<?xml version="1.0" encoding="utf-8" standalone="no"?>
<!DOCTYPE svg PUBLIC "-//W3C//DTD SVG 1.1//EN"
  "http://www.w3.org/Graphics/SVG/1.1/DTD/svg11.dtd">
<svg xmlns:xlink="http://www.w3.org/1999/xlink" width="631.44pt" height="482.4pt" viewBox="0 0 631.44 482.4" xmlns="http://www.w3.org/2000/svg" version="1.1">
 <metadata>
  <rdf:RDF xmlns:dc="http://purl.org/dc/elements/1.1/" xmlns:cc="http://creativecommons.org/ns#" xmlns:rdf="http://www.w3.org/1999/02/22-rdf-syntax-ns#">
   <cc:Work>
    <dc:type rdf:resource="http://purl.org/dc/dcmitype/StillImage"/>
    <dc:date>2025-09-22T16:01:52.692958</dc:date>
    <dc:format>image/svg+xml</dc:format>
    <dc:creator>
     <cc:Agent>
      <dc:title>Matplotlib v3.9.2, https://matplotlib.org/</dc:title>
     </cc:Agent>
    </dc:creator>
   </cc:Work>
  </rdf:RDF>
 </metadata>
 <defs>
  <style type="text/css">*{stroke-linejoin: round; stroke-linecap: butt}</style>
 </defs>
 <g id="figure_1">
  <g id="patch_1">
   <path d="M 0 482.4 
L 631.44 482.4 
L 631.44 0 
L 0 0 
z
" style="fill: #ffffff"/>
  </g>
  <g id="axes_1">
   <g id="patch_2">
    <path d="M 76.143122 424.429332 
L 620.64 424.429332 
L 620.64 10.8 
L 76.143122 10.8 
z
" style="fill: #ffffff"/>
   </g>
   <g id="patch_3">
    <path d="M 100.89298 383.573058 
L 595.890142 383.573058 
L 595.890142 51.656274 
L 100.89298 51.656274 
z
" clip-path="url(#pbc497538b9)" style="fill: #87ceeb; stroke: #87ceeb; stroke-width: 0.24; stroke-linejoin: miter"/>
   </g>
   <g id="PolyCollection_1">
    <defs>
     <path id="m0e476c4b33" d="M 100.89298 -197.906579 
L 100.89298 -98.826942 
L 101.387977 -98.826942 
L 101.882975 -98.826942 
L 102.377972 -98.826942 
L 102.872969 -98.826942 
L 103.367966 -98.826942 
L 103.862963 -98.826942 
L 104.35796 -98.826942 
L 104.852957 -98.826942 
L 105.347955 -98.826942 
L 105.842952 -98.826942 
L 106.337949 -98.826942 
L 106.832946 -98.826942 
L 107.327943 -98.826942 
L 107.82294 -98.826942 
L 108.317938 -98.826942 
L 108.812935 -98.826942 
L 109.307932 -98.826942 
L 109.802929 -98.826942 
L 110.297926 -98.826942 
L 110.792923 -98.826942 
L 111.287921 -98.826942 
L 111.782918 -98.826942 
L 112.277915 -98.826942 
L 112.772912 -98.826942 
L 113.267909 -98.826942 
L 113.762906 -98.826942 
L 114.257904 -98.826942 
L 114.752901 -98.826942 
L 115.247898 -98.826942 
L 115.742895 -98.826942 
L 116.237892 -98.826942 
L 116.732889 -98.826942 
L 117.227887 -98.826942 
L 117.722884 -98.826942 
L 118.217881 -98.826942 
L 118.712878 -98.826942 
L 119.207875 -98.826942 
L 119.702872 -98.826942 
L 120.197869 -98.826942 
L 120.692867 -98.826942 
L 121.187864 -98.826942 
L 121.682861 -98.826942 
L 122.177858 -98.826942 
L 122.672855 -98.826942 
L 123.167852 -98.826942 
L 123.66285 -98.826942 
L 124.157847 -98.826942 
L 124.652844 -98.826942 
L 125.147841 -98.826942 
L 125.642838 -98.826942 
L 126.137835 -98.826942 
L 126.632833 -98.826942 
L 127.12783 -98.826942 
L 127.622827 -98.826942 
L 128.117824 -98.826942 
L 128.612821 -98.826942 
L 129.107818 -98.826942 
L 129.602816 -98.826942 
L 130.097813 -98.826942 
L 130.59281 -98.826942 
L 131.087807 -98.826942 
L 131.582804 -98.826942 
L 132.077801 -98.826942 
L 132.572799 -98.826942 
L 133.067796 -98.826942 
L 133.562793 -98.826942 
L 134.05779 -98.826942 
L 134.552787 -98.826942 
L 135.047784 -98.826942 
L 135.542782 -98.826942 
L 136.037779 -98.826942 
L 136.532776 -98.826942 
L 137.027773 -98.826942 
L 137.52277 -98.826942 
L 138.017767 -98.826942 
L 138.512764 -98.826942 
L 139.007762 -98.826942 
L 139.502759 -98.826942 
L 139.997756 -98.826942 
L 140.492753 -98.826942 
L 140.98775 -98.826942 
L 141.482747 -98.826942 
L 141.977745 -98.826942 
L 142.472742 -98.826942 
L 142.967739 -98.826942 
L 143.462736 -98.826942 
L 143.957733 -98.826942 
L 144.45273 -98.826942 
L 144.947728 -98.826942 
L 145.442725 -98.826942 
L 145.937722 -98.826942 
L 146.432719 -98.826942 
L 146.927716 -98.826942 
L 147.422713 -98.826942 
L 147.917711 -98.826942 
L 148.412708 -98.826942 
L 148.907705 -98.826942 
L 149.402702 -98.826942 
L 149.897699 -98.826942 
L 150.392696 -98.826942 
L 150.887694 -98.826942 
L 151.382691 -98.826942 
L 151.877688 -98.826942 
L 152.372685 -98.826942 
L 152.867682 -98.826942 
L 153.362679 -98.826942 
L 153.857676 -98.826942 
L 154.352674 -98.826942 
L 154.847671 -98.826942 
L 155.342668 -98.826942 
L 155.837665 -98.826942 
L 156.332662 -98.826942 
L 156.827659 -98.826942 
L 157.322657 -98.826942 
L 157.817654 -98.826942 
L 158.312651 -98.826942 
L 158.807648 -98.826942 
L 159.302645 -98.826942 
L 159.797642 -98.826942 
L 160.29264 -98.826942 
L 160.787637 -98.826942 
L 161.282634 -98.826942 
L 161.777631 -98.826942 
L 162.272628 -98.826942 
L 162.767625 -98.826942 
L 163.262623 -98.826942 
L 163.75762 -98.826942 
L 164.252617 -98.826942 
L 164.747614 -98.826942 
L 165.242611 -98.826942 
L 165.737608 -98.826942 
L 166.232606 -98.826942 
L 166.727603 -98.826942 
L 167.2226 -98.826942 
L 167.717597 -98.826942 
L 168.212594 -98.826942 
L 168.707591 -98.826942 
L 169.202589 -98.826942 
L 169.697586 -98.826942 
L 170.192583 -98.826942 
L 170.68758 -98.826942 
L 171.182577 -98.826942 
L 171.677574 -98.826942 
L 172.172571 -98.826942 
L 172.667569 -98.826942 
L 173.162566 -98.826942 
L 173.657563 -98.826942 
L 174.15256 -98.826942 
L 174.647557 -98.826942 
L 175.142554 -98.826942 
L 175.637552 -98.826942 
L 176.132549 -98.826942 
L 176.627546 -98.826942 
L 177.122543 -98.826942 
L 177.61754 -98.826942 
L 178.112537 -98.826942 
L 178.607535 -98.826942 
L 179.102532 -98.826942 
L 179.597529 -98.826942 
L 180.092526 -98.826942 
L 180.587523 -98.826942 
L 181.08252 -98.826942 
L 181.577518 -98.826942 
L 182.072515 -98.826942 
L 182.567512 -98.826942 
L 183.062509 -98.826942 
L 183.557506 -98.826942 
L 184.052503 -98.826942 
L 184.547501 -98.826942 
L 185.042498 -98.826942 
L 185.537495 -98.826942 
L 186.032492 -98.826942 
L 186.527489 -98.826942 
L 187.022486 -98.826942 
L 187.517483 -98.826942 
L 188.012481 -98.826942 
L 188.507478 -98.826942 
L 189.002475 -98.826942 
L 189.497472 -98.826942 
L 189.992469 -98.826942 
L 190.487466 -98.826942 
L 190.982464 -98.826942 
L 191.477461 -98.826942 
L 191.972458 -98.826942 
L 192.467455 -98.826942 
L 192.962452 -98.826942 
L 193.457449 -98.826942 
L 193.952447 -98.826942 
L 194.447444 -98.826942 
L 194.942441 -98.826942 
L 195.437438 -98.826942 
L 195.932435 -98.826942 
L 196.427432 -98.826942 
L 196.92243 -98.826942 
L 197.417427 -98.826942 
L 197.912424 -98.826942 
L 198.407421 -98.826942 
L 198.902418 -98.826942 
L 199.397415 -98.826942 
L 199.892413 -98.826942 
L 200.38741 -98.826942 
L 200.882407 -98.826942 
L 201.377404 -98.826942 
L 201.872401 -98.826942 
L 202.367398 -98.826942 
L 202.862396 -98.826942 
L 203.357393 -98.826942 
L 203.85239 -98.826942 
L 204.347387 -98.826942 
L 204.842384 -98.826942 
L 205.337381 -98.826942 
L 205.832378 -98.826942 
L 206.327376 -98.826942 
L 206.822373 -98.826942 
L 207.31737 -98.826942 
L 207.812367 -98.826942 
L 208.307364 -98.826942 
L 208.802361 -98.826942 
L 209.297359 -98.826942 
L 209.792356 -98.826942 
L 210.287353 -98.826942 
L 210.78235 -98.826942 
L 211.277347 -98.826942 
L 211.772344 -98.826942 
L 212.267342 -98.826942 
L 212.762339 -98.826942 
L 213.257336 -98.826942 
L 213.752333 -98.826942 
L 214.24733 -98.826942 
L 214.742327 -98.826942 
L 215.237325 -98.826942 
L 215.732322 -98.826942 
L 216.227319 -98.826942 
L 216.722316 -98.826942 
L 217.217313 -98.826942 
L 217.71231 -98.826942 
L 218.207308 -98.826942 
L 218.702305 -98.826942 
L 219.197302 -98.826942 
L 219.692299 -98.826942 
L 220.187296 -98.826942 
L 220.682293 -98.826942 
L 221.17729 -98.826942 
L 221.672288 -98.826942 
L 222.167285 -98.826942 
L 222.662282 -98.826942 
L 223.157279 -98.826942 
L 223.652276 -98.826942 
L 224.147273 -98.826942 
L 224.642271 -98.826942 
L 225.137268 -98.826942 
L 225.632265 -98.826942 
L 226.127262 -98.826942 
L 226.622259 -98.826942 
L 227.117256 -98.826942 
L 227.612254 -98.826942 
L 228.107251 -98.826942 
L 228.602248 -98.826942 
L 229.097245 -98.826942 
L 229.592242 -98.826942 
L 230.087239 -98.826942 
L 230.582237 -98.826942 
L 231.077234 -98.826942 
L 231.572231 -98.826942 
L 232.067228 -98.826942 
L 232.562225 -98.826942 
L 233.057222 -98.826942 
L 233.55222 -98.826942 
L 234.047217 -98.826942 
L 234.542214 -98.826942 
L 235.037211 -98.826942 
L 235.532208 -98.826942 
L 236.027205 -98.826942 
L 236.522203 -98.826942 
L 237.0172 -98.826942 
L 237.512197 -98.826942 
L 238.007194 -98.826942 
L 238.502191 -98.826942 
L 238.997188 -98.826942 
L 239.492185 -98.826942 
L 239.987183 -98.826942 
L 240.48218 -98.826942 
L 240.977177 -98.826942 
L 241.472174 -98.826942 
L 241.967171 -98.826942 
L 242.462168 -98.826942 
L 242.957166 -98.826942 
L 243.452163 -98.826942 
L 243.94716 -98.826942 
L 244.442157 -98.826942 
L 244.937154 -98.826942 
L 245.432151 -98.826942 
L 245.927149 -98.826942 
L 246.422146 -98.826942 
L 246.917143 -98.826942 
L 247.41214 -98.826942 
L 247.907137 -98.826942 
L 248.402134 -98.826942 
L 248.897132 -98.826942 
L 249.392129 -98.826942 
L 249.887126 -98.826942 
L 250.382123 -98.826942 
L 250.87712 -98.826942 
L 251.372117 -98.826942 
L 251.867115 -98.826942 
L 252.362112 -98.826942 
L 252.857109 -98.826942 
L 253.352106 -98.826942 
L 253.847103 -98.826942 
L 254.3421 -98.826942 
L 254.837097 -98.826942 
L 255.332095 -98.826942 
L 255.827092 -98.826942 
L 256.322089 -98.826942 
L 256.817086 -98.826942 
L 257.312083 -98.826942 
L 257.80708 -98.826942 
L 258.302078 -98.826942 
L 258.797075 -98.826942 
L 259.292072 -98.826942 
L 259.787069 -98.826942 
L 260.282066 -98.826942 
L 260.777063 -98.826942 
L 261.272061 -98.826942 
L 261.767058 -98.826942 
L 262.262055 -98.826942 
L 262.757052 -98.826942 
L 263.252049 -98.826942 
L 263.747046 -98.826942 
L 264.242044 -98.826942 
L 264.737041 -98.826942 
L 265.232038 -98.826942 
L 265.727035 -98.826942 
L 266.222032 -98.826942 
L 266.717029 -98.826942 
L 267.212027 -98.826942 
L 267.707024 -98.826942 
L 268.202021 -98.826942 
L 268.697018 -98.826942 
L 269.192015 -98.826942 
L 269.687012 -98.826942 
L 270.18201 -98.826942 
L 270.677007 -98.826942 
L 271.172004 -98.826942 
L 271.667001 -98.826942 
L 272.161998 -98.826942 
L 272.656995 -98.826942 
L 273.151992 -98.826942 
L 273.64699 -98.826942 
L 274.141987 -98.826942 
L 274.636984 -98.826942 
L 275.131981 -98.826942 
L 275.626978 -98.826942 
L 276.121975 -98.826942 
L 276.616973 -98.826942 
L 277.11197 -98.826942 
L 277.606967 -98.826942 
L 278.101964 -98.826942 
L 278.596961 -98.826942 
L 279.091958 -98.826942 
L 279.586956 -98.826942 
L 280.081953 -98.826942 
L 280.57695 -98.826942 
L 281.071947 -98.826942 
L 281.566944 -98.826942 
L 282.061941 -98.826942 
L 282.556939 -98.826942 
L 283.051936 -98.826942 
L 283.546933 -98.826942 
L 284.04193 -98.826942 
L 284.536927 -98.826942 
L 285.031924 -98.826942 
L 285.526922 -98.826942 
L 286.021919 -98.826942 
L 286.516916 -98.826942 
L 287.011913 -98.826942 
L 287.50691 -98.826942 
L 288.001907 -98.826942 
L 288.496904 -98.826942 
L 288.991902 -98.826942 
L 289.486899 -98.826942 
L 289.981896 -98.826942 
L 290.476893 -98.826942 
L 290.97189 -98.826942 
L 291.466887 -98.826942 
L 291.961885 -98.826942 
L 292.456882 -98.826942 
L 292.951879 -98.826942 
L 293.446876 -98.826942 
L 293.941873 -98.826942 
L 294.43687 -98.826942 
L 294.931868 -98.826942 
L 295.426865 -98.826942 
L 295.921862 -98.826942 
L 296.416859 -98.826942 
L 296.911856 -98.826942 
L 297.406853 -98.826942 
L 297.901851 -98.826942 
L 298.396848 -98.826942 
L 298.891845 -98.826942 
L 299.386842 -98.826942 
L 299.881839 -98.826942 
L 300.376836 -98.826942 
L 300.871834 -98.826942 
L 301.366831 -98.826942 
L 301.861828 -98.826942 
L 302.356825 -98.826942 
L 302.851822 -98.826942 
L 303.346819 -98.826942 
L 303.841816 -98.826942 
L 304.336814 -98.826942 
L 304.831811 -98.826942 
L 305.326808 -98.826942 
L 305.821805 -98.826942 
L 306.316802 -98.826942 
L 306.811799 -98.826942 
L 307.306797 -98.826942 
L 307.801794 -98.826942 
L 308.296791 -98.826942 
L 308.791788 -98.826942 
L 309.286785 -98.826942 
L 309.781782 -98.826942 
L 310.27678 -98.826942 
L 310.771777 -98.826942 
L 311.266774 -98.826942 
L 311.761771 -98.826942 
L 312.256768 -98.826942 
L 312.751765 -98.826942 
L 313.246763 -98.826942 
L 313.74176 -98.826942 
L 314.236757 -98.826942 
L 314.731754 -98.826942 
L 315.226751 -98.826942 
L 315.721748 -98.826942 
L 316.216746 -98.826942 
L 316.711743 -98.826942 
L 317.20674 -98.826942 
L 317.701737 -98.826942 
L 318.196734 -98.826942 
L 318.691731 -98.826942 
L 319.186729 -98.826942 
L 319.681726 -98.826942 
L 320.176723 -98.826942 
L 320.67172 -98.826942 
L 321.166717 -98.826942 
L 321.661714 -98.826942 
L 322.156711 -98.826942 
L 322.651709 -98.826942 
L 323.146706 -98.826942 
L 323.641703 -98.826942 
L 324.1367 -98.826942 
L 324.631697 -98.826942 
L 325.126694 -98.826942 
L 325.621692 -98.826942 
L 326.116689 -98.826942 
L 326.611686 -98.826942 
L 327.106683 -98.826942 
L 327.60168 -98.826942 
L 328.096677 -98.826942 
L 328.591675 -98.826942 
L 329.086672 -98.826942 
L 329.581669 -98.826942 
L 330.076666 -98.826942 
L 330.571663 -98.826942 
L 331.06666 -98.826942 
L 331.561658 -98.826942 
L 332.056655 -98.826942 
L 332.551652 -98.826942 
L 333.046649 -98.826942 
L 333.541646 -98.826942 
L 334.036643 -98.826942 
L 334.531641 -98.826942 
L 335.026638 -98.826942 
L 335.521635 -98.826942 
L 336.016632 -98.826942 
L 336.511629 -98.826942 
L 337.006626 -98.826942 
L 337.501623 -98.826942 
L 337.996621 -98.826942 
L 338.491618 -98.826942 
L 338.986615 -98.826942 
L 339.481612 -98.826942 
L 339.976609 -98.826942 
L 340.471606 -98.826942 
L 340.966604 -98.826942 
L 341.461601 -98.826942 
L 341.956598 -98.826942 
L 342.451595 -98.826942 
L 342.946592 -98.826942 
L 343.441589 -98.826942 
L 343.936587 -98.826942 
L 344.431584 -98.826942 
L 344.926581 -98.826942 
L 345.421578 -98.826942 
L 345.916575 -98.826942 
L 346.411572 -98.826942 
L 346.90657 -98.826942 
L 347.401567 -98.826942 
L 347.896564 -98.826942 
L 348.391561 -98.826942 
L 348.886558 -98.826942 
L 349.381555 -98.826942 
L 349.876553 -98.826942 
L 350.37155 -98.826942 
L 350.866547 -98.826942 
L 351.361544 -98.826942 
L 351.856541 -98.826942 
L 352.351538 -98.826942 
L 352.846536 -98.826942 
L 353.341533 -98.826942 
L 353.83653 -98.826942 
L 354.331527 -98.826942 
L 354.826524 -98.826942 
L 355.321521 -98.826942 
L 355.816518 -98.826942 
L 356.311516 -98.826942 
L 356.806513 -98.826942 
L 357.30151 -98.826942 
L 357.796507 -98.826942 
L 358.291504 -98.826942 
L 358.786501 -98.826942 
L 359.281499 -98.826942 
L 359.776496 -98.826942 
L 360.271493 -98.826942 
L 360.76649 -98.826942 
L 361.261487 -98.826942 
L 361.756484 -98.826942 
L 362.251482 -98.826942 
L 362.746479 -98.826942 
L 363.241476 -98.826942 
L 363.736473 -98.826942 
L 364.23147 -98.826942 
L 364.726467 -98.826942 
L 365.221465 -98.826942 
L 365.716462 -98.826942 
L 366.211459 -98.826942 
L 366.706456 -98.826942 
L 367.201453 -98.826942 
L 367.69645 -98.826942 
L 368.191448 -98.826942 
L 368.686445 -98.826942 
L 369.181442 -98.826942 
L 369.676439 -98.826942 
L 370.171436 -98.826942 
L 370.666433 -98.826942 
L 371.16143 -98.826942 
L 371.656428 -98.826942 
L 372.151425 -98.826942 
L 372.646422 -98.826942 
L 373.141419 -98.826942 
L 373.636416 -98.826942 
L 374.131413 -98.826942 
L 374.626411 -98.826942 
L 375.121408 -98.826942 
L 375.616405 -98.826942 
L 376.111402 -98.826942 
L 376.606399 -98.826942 
L 377.101396 -98.826942 
L 377.596394 -98.826942 
L 378.091391 -98.826942 
L 378.586388 -98.826942 
L 379.081385 -98.826942 
L 379.576382 -98.826942 
L 380.071379 -98.826942 
L 380.566377 -98.826942 
L 381.061374 -98.826942 
L 381.556371 -98.826942 
L 382.051368 -98.826942 
L 382.546365 -98.826942 
L 383.041362 -98.826942 
L 383.53636 -98.826942 
L 384.031357 -98.826942 
L 384.526354 -98.826942 
L 385.021351 -98.826942 
L 385.516348 -98.826942 
L 386.011345 -98.826942 
L 386.506343 -98.826942 
L 387.00134 -98.826942 
L 387.496337 -98.826942 
L 387.991334 -98.826942 
L 388.486331 -98.826942 
L 388.981328 -98.826942 
L 389.476325 -98.826942 
L 389.971323 -98.826942 
L 390.46632 -98.826942 
L 390.961317 -98.826942 
L 391.456314 -98.826942 
L 391.951311 -98.826942 
L 392.446308 -98.826942 
L 392.941306 -98.826942 
L 393.436303 -98.826942 
L 393.9313 -98.826942 
L 394.426297 -98.826942 
L 394.921294 -98.826942 
L 395.416291 -98.826942 
L 395.911289 -98.826942 
L 396.406286 -98.826942 
L 396.901283 -98.826942 
L 397.39628 -98.826942 
L 397.891277 -98.826942 
L 398.386274 -98.826942 
L 398.881272 -98.826942 
L 399.376269 -98.826942 
L 399.871266 -98.826942 
L 400.366263 -98.826942 
L 400.86126 -98.826942 
L 401.356257 -98.826942 
L 401.851255 -98.826942 
L 402.346252 -98.826942 
L 402.841249 -98.826942 
L 403.336246 -98.826942 
L 403.831243 -98.826942 
L 404.32624 -98.826942 
L 404.821237 -98.826942 
L 405.316235 -98.826942 
L 405.811232 -98.826942 
L 406.306229 -98.826942 
L 406.801226 -98.826942 
L 407.296223 -98.826942 
L 407.79122 -98.826942 
L 408.286218 -98.826942 
L 408.781215 -98.826942 
L 409.276212 -98.826942 
L 409.771209 -98.826942 
L 410.266206 -98.826942 
L 410.761203 -98.826942 
L 411.256201 -98.826942 
L 411.751198 -98.826942 
L 412.246195 -98.826942 
L 412.741192 -98.826942 
L 413.236189 -98.826942 
L 413.731186 -98.826942 
L 414.226184 -98.826942 
L 414.721181 -98.826942 
L 415.216178 -98.826942 
L 415.711175 -98.826942 
L 416.206172 -98.826942 
L 416.701169 -98.826942 
L 417.196167 -98.826942 
L 417.691164 -98.826942 
L 418.186161 -98.826942 
L 418.681158 -98.826942 
L 419.176155 -98.826942 
L 419.671152 -98.826942 
L 420.16615 -98.826942 
L 420.661147 -98.826942 
L 421.156144 -98.826942 
L 421.651141 -98.826942 
L 422.146138 -98.826942 
L 422.641135 -98.826942 
L 423.136132 -98.826942 
L 423.63113 -98.826942 
L 424.126127 -98.826942 
L 424.621124 -98.826942 
L 425.116121 -98.826942 
L 425.611118 -98.826942 
L 426.106115 -98.826942 
L 426.601113 -98.826942 
L 427.09611 -98.826942 
L 427.591107 -98.826942 
L 428.086104 -98.826942 
L 428.581101 -98.826942 
L 429.076098 -98.826942 
L 429.571096 -98.826942 
L 430.066093 -98.826942 
L 430.56109 -98.826942 
L 431.056087 -98.826942 
L 431.551084 -98.826942 
L 432.046081 -98.826942 
L 432.541079 -98.826942 
L 433.036076 -98.826942 
L 433.531073 -98.826942 
L 434.02607 -98.826942 
L 434.521067 -98.826942 
L 435.016064 -98.826942 
L 435.511062 -98.826942 
L 436.006059 -98.826942 
L 436.501056 -98.826942 
L 436.996053 -98.826942 
L 437.49105 -98.826942 
L 437.986047 -98.826942 
L 438.481044 -98.826942 
L 438.976042 -98.826942 
L 439.471039 -98.826942 
L 439.966036 -98.826942 
L 440.461033 -98.826942 
L 440.95603 -98.826942 
L 441.451027 -98.826942 
L 441.946025 -98.826942 
L 442.441022 -98.826942 
L 442.936019 -98.826942 
L 443.431016 -98.826942 
L 443.926013 -98.826942 
L 444.42101 -98.826942 
L 444.916008 -98.826942 
L 445.411005 -98.826942 
L 445.906002 -98.826942 
L 446.400999 -98.826942 
L 446.895996 -98.826942 
L 447.390993 -98.826942 
L 447.885991 -98.826942 
L 448.380988 -98.826942 
L 448.875985 -98.826942 
L 449.370982 -98.826942 
L 449.865979 -98.826942 
L 450.360976 -98.826942 
L 450.855974 -98.826942 
L 451.350971 -98.826942 
L 451.845968 -98.826942 
L 452.340965 -98.826942 
L 452.835962 -98.826942 
L 453.330959 -98.826942 
L 453.825956 -98.826942 
L 454.320954 -98.826942 
L 454.815951 -98.826942 
L 455.310948 -98.826942 
L 455.805945 -98.826942 
L 456.300942 -98.826942 
L 456.795939 -98.826942 
L 457.290937 -98.826942 
L 457.785934 -98.826942 
L 458.280931 -98.826942 
L 458.775928 -98.826942 
L 459.270925 -98.826942 
L 459.765922 -98.826942 
L 460.26092 -98.826942 
L 460.755917 -98.826942 
L 461.250914 -98.826942 
L 461.745911 -98.826942 
L 462.240908 -98.826942 
L 462.735905 -98.826942 
L 463.230903 -98.826942 
L 463.7259 -98.826942 
L 464.220897 -98.826942 
L 464.715894 -98.826942 
L 465.210891 -98.826942 
L 465.705888 -98.826942 
L 466.200886 -98.826942 
L 466.695883 -98.826942 
L 467.19088 -98.826942 
L 467.685877 -98.826942 
L 468.180874 -98.826942 
L 468.675871 -98.826942 
L 469.170869 -98.826942 
L 469.665866 -98.826942 
L 470.160863 -98.826942 
L 470.65586 -98.826942 
L 471.150857 -98.826942 
L 471.645854 -98.826942 
L 472.140851 -98.826942 
L 472.635849 -98.826942 
L 473.130846 -98.826942 
L 473.625843 -98.826942 
L 474.12084 -98.826942 
L 474.615837 -98.826942 
L 475.110834 -98.826942 
L 475.605832 -98.826942 
L 476.100829 -98.826942 
L 476.595826 -98.826942 
L 477.090823 -98.826942 
L 477.58582 -98.826942 
L 478.080817 -98.826942 
L 478.575815 -98.826942 
L 479.070812 -98.826942 
L 479.565809 -98.826942 
L 480.060806 -98.826942 
L 480.555803 -98.826942 
L 481.0508 -98.826942 
L 481.545798 -98.826942 
L 482.040795 -98.826942 
L 482.535792 -98.826942 
L 483.030789 -98.826942 
L 483.525786 -98.826942 
L 484.020783 -98.826942 
L 484.515781 -98.826942 
L 485.010778 -98.826942 
L 485.505775 -98.826942 
L 486.000772 -98.826942 
L 486.495769 -98.826942 
L 486.990766 -98.826942 
L 487.485763 -98.826942 
L 487.980761 -98.826942 
L 488.475758 -98.826942 
L 488.970755 -98.826942 
L 489.465752 -98.826942 
L 489.960749 -98.826942 
L 490.455746 -98.826942 
L 490.950744 -98.826942 
L 491.445741 -98.826942 
L 491.940738 -98.826942 
L 492.435735 -98.826942 
L 492.930732 -98.826942 
L 493.425729 -98.826942 
L 493.920727 -98.826942 
L 494.415724 -98.826942 
L 494.910721 -98.826942 
L 495.405718 -98.826942 
L 495.900715 -98.826942 
L 496.395712 -98.826942 
L 496.89071 -98.826942 
L 497.385707 -98.826942 
L 497.880704 -98.826942 
L 498.375701 -98.826942 
L 498.870698 -98.826942 
L 499.365695 -98.826942 
L 499.860693 -98.826942 
L 500.35569 -98.826942 
L 500.850687 -98.826942 
L 501.345684 -98.826942 
L 501.840681 -98.826942 
L 502.335678 -98.826942 
L 502.830676 -98.826942 
L 503.325673 -98.826942 
L 503.82067 -98.826942 
L 504.315667 -98.826942 
L 504.810664 -98.826942 
L 505.305661 -98.826942 
L 505.800658 -98.826942 
L 506.295656 -98.826942 
L 506.790653 -98.826942 
L 507.28565 -98.826942 
L 507.780647 -98.826942 
L 508.275644 -98.826942 
L 508.770641 -98.826942 
L 509.265639 -98.826942 
L 509.760636 -98.826942 
L 510.255633 -98.826942 
L 510.75063 -98.826942 
L 511.245627 -98.826942 
L 511.740624 -98.826942 
L 512.235622 -98.826942 
L 512.730619 -98.826942 
L 513.225616 -98.826942 
L 513.720613 -98.826942 
L 514.21561 -98.826942 
L 514.710607 -98.826942 
L 515.205605 -98.826942 
L 515.700602 -98.826942 
L 516.195599 -98.826942 
L 516.690596 -98.826942 
L 517.185593 -98.826942 
L 517.68059 -98.826942 
L 518.175588 -98.826942 
L 518.670585 -98.826942 
L 519.165582 -98.826942 
L 519.660579 -98.826942 
L 520.155576 -98.826942 
L 520.650573 -98.826942 
L 521.14557 -98.826942 
L 521.640568 -98.826942 
L 522.135565 -98.826942 
L 522.630562 -98.826942 
L 523.125559 -98.826942 
L 523.620556 -98.826942 
L 524.115553 -98.826942 
L 524.610551 -98.826942 
L 525.105548 -98.826942 
L 525.600545 -98.826942 
L 526.095542 -98.826942 
L 526.590539 -98.826942 
L 527.085536 -98.826942 
L 527.580534 -98.826942 
L 528.075531 -98.826942 
L 528.570528 -98.826942 
L 529.065525 -98.826942 
L 529.560522 -98.826942 
L 530.055519 -98.826942 
L 530.550517 -98.826942 
L 531.045514 -98.826942 
L 531.540511 -98.826942 
L 532.035508 -98.826942 
L 532.530505 -98.826942 
L 533.025502 -98.826942 
L 533.5205 -98.826942 
L 534.015497 -98.826942 
L 534.510494 -98.826942 
L 535.005491 -98.826942 
L 535.500488 -98.826942 
L 535.995485 -98.826942 
L 536.490483 -98.826942 
L 536.98548 -98.826942 
L 537.480477 -98.826942 
L 537.975474 -98.826942 
L 538.470471 -98.826942 
L 538.965468 -98.826942 
L 539.460465 -98.826942 
L 539.955463 -98.826942 
L 540.45046 -98.826942 
L 540.945457 -98.826942 
L 541.440454 -98.826942 
L 541.935451 -98.826942 
L 542.430448 -98.826942 
L 542.925446 -98.826942 
L 543.420443 -98.826942 
L 543.91544 -98.826942 
L 544.410437 -98.826942 
L 544.905434 -98.826942 
L 545.400431 -98.826942 
L 545.895429 -98.826942 
L 546.390426 -98.826942 
L 546.885423 -98.826942 
L 547.38042 -98.826942 
L 547.875417 -98.826942 
L 548.370414 -98.826942 
L 548.865412 -98.826942 
L 549.360409 -98.826942 
L 549.855406 -98.826942 
L 550.350403 -98.826942 
L 550.8454 -98.826942 
L 551.340397 -98.826942 
L 551.835395 -98.826942 
L 552.330392 -98.826942 
L 552.825389 -98.826942 
L 553.320386 -98.826942 
L 553.815383 -98.826942 
L 554.31038 -98.826942 
L 554.805377 -98.826942 
L 555.300375 -98.826942 
L 555.795372 -98.826942 
L 556.290369 -98.826942 
L 556.785366 -98.826942 
L 557.280363 -98.826942 
L 557.77536 -98.826942 
L 558.270358 -98.826942 
L 558.765355 -98.826942 
L 559.260352 -98.826942 
L 559.755349 -98.826942 
L 560.250346 -98.826942 
L 560.745343 -98.826942 
L 561.240341 -98.826942 
L 561.735338 -98.826942 
L 562.230335 -98.826942 
L 562.725332 -98.826942 
L 563.220329 -98.826942 
L 563.715326 -98.826942 
L 564.210324 -98.826942 
L 564.705321 -98.826942 
L 565.200318 -98.826942 
L 565.695315 -98.826942 
L 566.190312 -98.826942 
L 566.685309 -98.826942 
L 567.180307 -98.826942 
L 567.675304 -98.826942 
L 568.170301 -98.826942 
L 568.665298 -98.826942 
L 569.160295 -98.826942 
L 569.655292 -98.826942 
L 570.15029 -98.826942 
L 570.645287 -98.826942 
L 571.140284 -98.826942 
L 571.635281 -98.826942 
L 572.130278 -98.826942 
L 572.625275 -98.826942 
L 573.120272 -98.826942 
L 573.61527 -98.826942 
L 574.110267 -98.826942 
L 574.605264 -98.826942 
L 575.100261 -98.826942 
L 575.595258 -98.826942 
L 576.090255 -98.826942 
L 576.585253 -98.826942 
L 577.08025 -98.826942 
L 577.575247 -98.826942 
L 578.070244 -98.826942 
L 578.565241 -98.826942 
L 579.060238 -98.826942 
L 579.555236 -98.826942 
L 580.050233 -98.826942 
L 580.54523 -98.826942 
L 581.040227 -98.826942 
L 581.535224 -98.826942 
L 582.030221 -98.826942 
L 582.525219 -98.826942 
L 583.020216 -98.826942 
L 583.515213 -98.826942 
L 584.01021 -98.826942 
L 584.505207 -98.826942 
L 585.000204 -98.826942 
L 585.495202 -98.826942 
L 585.990199 -98.826942 
L 586.485196 -98.826942 
L 586.980193 -98.826942 
L 587.47519 -98.826942 
L 587.970187 -98.826942 
L 588.465184 -98.826942 
L 588.960182 -98.826942 
L 589.455179 -98.826942 
L 589.950176 -98.826942 
L 590.445173 -98.826942 
L 590.94017 -98.826942 
L 591.435167 -98.826942 
L 591.930165 -98.826942 
L 592.425162 -98.826942 
L 592.920159 -98.826942 
L 593.415156 -98.826942 
L 593.910153 -98.826942 
L 594.40515 -98.826942 
L 594.900148 -98.826942 
L 595.395145 -98.826942 
L 595.890142 -98.826942 
L 595.890142 -197.906579 
L 595.890142 -197.906579 
L 595.395145 -197.906579 
L 594.900148 -197.906579 
L 594.40515 -197.906579 
L 593.910153 -197.906579 
L 593.415156 -197.906579 
L 592.920159 -197.906579 
L 592.425162 -197.906579 
L 591.930165 -197.906579 
L 591.435167 -197.906579 
L 590.94017 -197.906579 
L 590.445173 -197.906579 
L 589.950176 -197.906579 
L 589.455179 -197.906579 
L 588.960182 -197.906579 
L 588.465184 -197.906579 
L 587.970187 -197.906579 
L 587.47519 -197.906579 
L 586.980193 -197.906579 
L 586.485196 -197.906579 
L 585.990199 -197.906579 
L 585.495202 -197.906579 
L 585.000204 -197.906579 
L 584.505207 -197.906579 
L 584.01021 -197.906579 
L 583.515213 -197.906579 
L 583.020216 -197.906579 
L 582.525219 -197.906579 
L 582.030221 -197.906579 
L 581.535224 -197.906579 
L 581.040227 -197.906579 
L 580.54523 -197.906579 
L 580.050233 -197.906579 
L 579.555236 -197.906579 
L 579.060238 -197.906579 
L 578.565241 -197.906579 
L 578.070244 -197.906579 
L 577.575247 -197.906579 
L 577.08025 -197.906579 
L 576.585253 -197.906579 
L 576.090255 -197.906579 
L 575.595258 -197.906579 
L 575.100261 -197.906579 
L 574.605264 -197.906579 
L 574.110267 -197.906579 
L 573.61527 -197.906579 
L 573.120272 -197.906579 
L 572.625275 -197.906579 
L 572.130278 -197.906579 
L 571.635281 -197.906579 
L 571.140284 -197.906579 
L 570.645287 -197.906579 
L 570.15029 -197.906579 
L 569.655292 -197.906579 
L 569.160295 -197.906579 
L 568.665298 -197.906579 
L 568.170301 -197.906579 
L 567.675304 -197.906579 
L 567.180307 -197.906579 
L 566.685309 -197.906579 
L 566.190312 -197.906579 
L 565.695315 -197.906579 
L 565.200318 -197.906579 
L 564.705321 -197.906579 
L 564.210324 -197.906579 
L 563.715326 -197.906579 
L 563.220329 -197.906579 
L 562.725332 -197.906579 
L 562.230335 -197.906579 
L 561.735338 -197.906579 
L 561.240341 -197.906579 
L 560.745343 -197.906579 
L 560.250346 -197.906579 
L 559.755349 -197.906579 
L 559.260352 -197.906579 
L 558.765355 -197.906579 
L 558.270358 -197.906579 
L 557.77536 -197.906579 
L 557.280363 -197.906579 
L 556.785366 -197.906579 
L 556.290369 -197.906579 
L 555.795372 -197.906579 
L 555.300375 -197.906579 
L 554.805377 -197.906579 
L 554.31038 -197.906579 
L 553.815383 -197.906579 
L 553.320386 -197.906579 
L 552.825389 -197.906579 
L 552.330392 -197.906579 
L 551.835395 -197.906579 
L 551.340397 -197.906579 
L 550.8454 -197.906579 
L 550.350403 -197.906579 
L 549.855406 -197.906579 
L 549.360409 -197.906579 
L 548.865412 -197.906579 
L 548.370414 -197.906579 
L 547.875417 -197.906579 
L 547.38042 -197.906579 
L 546.885423 -197.906579 
L 546.390426 -197.906579 
L 545.895429 -197.906579 
L 545.400431 -197.906579 
L 544.905434 -197.906579 
L 544.410437 -197.906579 
L 543.91544 -197.906579 
L 543.420443 -197.906579 
L 542.925446 -197.906579 
L 542.430448 -197.906579 
L 541.935451 -197.906579 
L 541.440454 -197.906579 
L 540.945457 -197.906579 
L 540.45046 -197.906579 
L 539.955463 -197.906579 
L 539.460465 -197.906579 
L 538.965468 -197.906579 
L 538.470471 -197.906579 
L 537.975474 -197.906579 
L 537.480477 -197.906579 
L 536.98548 -197.906579 
L 536.490483 -197.906579 
L 535.995485 -197.906579 
L 535.500488 -197.906579 
L 535.005491 -197.906579 
L 534.510494 -197.906579 
L 534.015497 -197.906579 
L 533.5205 -197.906579 
L 533.025502 -197.906579 
L 532.530505 -197.906579 
L 532.035508 -197.906579 
L 531.540511 -197.906579 
L 531.045514 -197.906579 
L 530.550517 -197.906579 
L 530.055519 -197.906579 
L 529.560522 -197.906579 
L 529.065525 -197.906579 
L 528.570528 -197.906579 
L 528.075531 -197.906579 
L 527.580534 -197.906579 
L 527.085536 -197.906579 
L 526.590539 -197.906579 
L 526.095542 -197.906579 
L 525.600545 -197.906579 
L 525.105548 -197.906579 
L 524.610551 -197.906579 
L 524.115553 -197.906579 
L 523.620556 -197.906579 
L 523.125559 -197.906579 
L 522.630562 -197.906579 
L 522.135565 -197.906579 
L 521.640568 -197.906579 
L 521.14557 -197.906579 
L 520.650573 -197.906579 
L 520.155576 -197.906579 
L 519.660579 -197.906579 
L 519.165582 -197.906579 
L 518.670585 -197.906579 
L 518.175588 -197.906579 
L 517.68059 -197.906579 
L 517.185593 -197.906579 
L 516.690596 -197.906579 
L 516.195599 -197.906579 
L 515.700602 -197.906579 
L 515.205605 -197.906579 
L 514.710607 -197.906579 
L 514.21561 -197.906579 
L 513.720613 -197.906579 
L 513.225616 -197.906579 
L 512.730619 -197.906579 
L 512.235622 -197.906579 
L 511.740624 -197.906579 
L 511.245627 -197.906579 
L 510.75063 -197.906579 
L 510.255633 -197.906579 
L 509.760636 -197.906579 
L 509.265639 -197.906579 
L 508.770641 -197.906579 
L 508.275644 -197.906579 
L 507.780647 -197.906579 
L 507.28565 -197.906579 
L 506.790653 -198.006007 
L 506.295656 -198.148036 
L 505.800658 -198.290472 
L 505.305661 -198.433315 
L 504.810664 -198.576567 
L 504.315667 -198.720228 
L 503.82067 -198.864301 
L 503.325673 -199.008786 
L 502.830676 -199.153685 
L 502.335678 -199.298998 
L 501.840681 -199.444726 
L 501.345684 -199.590872 
L 500.850687 -199.737436 
L 500.35569 -199.884419 
L 499.860693 -200.031823 
L 499.365695 -200.179649 
L 498.870698 -200.327897 
L 498.375701 -200.47657 
L 497.880704 -200.625668 
L 497.385707 -200.775193 
L 496.89071 -200.925145 
L 496.395712 -201.075527 
L 495.900715 -201.226338 
L 495.405718 -201.377582 
L 494.910721 -201.529258 
L 494.415724 -201.681368 
L 493.920727 -201.833913 
L 493.425729 -201.986895 
L 492.930732 -202.140314 
L 492.435735 -202.294173 
L 491.940738 -202.448471 
L 491.445741 -202.603211 
L 490.950744 -202.758394 
L 490.455746 -202.914021 
L 489.960749 -203.070093 
L 489.465752 -203.226612 
L 488.970755 -203.383579 
L 488.475758 -203.540994 
L 487.980761 -203.69886 
L 487.485763 -203.857178 
L 486.990766 -204.015949 
L 486.495769 -204.175174 
L 486.000772 -204.334855 
L 485.505775 -204.494992 
L 485.010778 -204.655588 
L 484.515781 -204.816643 
L 484.020783 -204.978159 
L 483.525786 -205.140137 
L 483.030789 -205.302579 
L 482.535792 -205.465485 
L 482.040795 -205.628858 
L 481.545798 -205.792698 
L 481.0508 -205.957006 
L 480.555803 -206.121785 
L 480.060806 -206.287035 
L 479.565809 -206.452759 
L 479.070812 -206.618956 
L 478.575815 -206.785629 
L 478.080817 -206.952778 
L 477.58582 -207.120406 
L 477.090823 -207.288514 
L 476.595826 -207.457103 
L 476.100829 -207.626174 
L 475.605832 -207.795728 
L 475.110834 -207.965768 
L 474.615837 -208.136294 
L 474.12084 -208.307309 
L 473.625843 -208.478812 
L 473.130846 -208.650807 
L 472.635849 -208.823293 
L 472.140851 -208.996273 
L 471.645854 -209.169748 
L 471.150857 -209.343719 
L 470.65586 -209.518188 
L 470.160863 -209.693156 
L 469.665866 -209.868625 
L 469.170869 -210.044596 
L 468.675871 -210.22107 
L 468.180874 -210.39805 
L 467.685877 -210.575535 
L 467.19088 -210.753529 
L 466.695883 -210.932032 
L 466.200886 -211.111045 
L 465.705888 -211.290571 
L 465.210891 -211.47061 
L 464.715894 -211.651165 
L 464.220897 -211.832236 
L 463.7259 -212.013825 
L 463.230903 -212.195934 
L 462.735905 -212.378564 
L 462.240908 -212.561716 
L 461.745911 -212.745393 
L 461.250914 -212.929595 
L 460.755917 -213.114324 
L 460.26092 -213.299581 
L 459.765922 -213.485369 
L 459.270925 -213.671688 
L 458.775928 -213.85854 
L 458.280931 -214.045927 
L 457.785934 -214.23385 
L 457.290937 -214.422311 
L 456.795939 -214.611311 
L 456.300942 -214.800852 
L 455.805945 -214.990935 
L 455.310948 -215.181562 
L 454.815951 -215.372735 
L 454.320954 -215.564454 
L 453.825956 -215.756722 
L 453.330959 -215.94954 
L 452.835962 -216.14291 
L 452.340965 -216.336833 
L 451.845968 -216.531311 
L 451.350971 -216.726345 
L 450.855974 -216.921937 
L 450.360976 -217.118089 
L 449.865979 -217.314803 
L 449.370982 -217.512079 
L 448.875985 -217.709919 
L 448.380988 -217.908326 
L 447.885991 -218.445015 
L 447.390993 -218.896082 
L 446.895996 -219.347782 
L 446.400999 -219.800088 
L 445.906002 -220.252976 
L 445.411005 -220.706421 
L 444.916008 -221.160397 
L 444.42101 -221.614877 
L 443.926013 -222.069836 
L 443.431016 -222.525249 
L 442.936019 -222.981087 
L 442.441022 -223.437325 
L 441.946025 -223.893936 
L 441.451027 -224.350893 
L 440.95603 -224.808168 
L 440.461033 -225.265735 
L 439.966036 -225.723564 
L 439.471039 -226.18163 
L 438.976042 -226.639903 
L 438.481044 -227.098355 
L 437.986047 -227.556959 
L 437.49105 -228.015685 
L 436.996053 -228.474505 
L 436.501056 -228.93339 
L 436.006059 -229.39231 
L 435.511062 -229.851237 
L 435.016064 -230.310142 
L 434.521067 -230.768993 
L 434.02607 -231.227763 
L 433.531073 -231.68642 
L 433.036076 -232.144936 
L 432.541079 -232.603279 
L 432.046081 -233.061419 
L 431.551084 -233.519326 
L 431.056087 -233.976969 
L 430.56109 -234.434318 
L 430.066093 -234.89134 
L 429.571096 -235.348007 
L 429.076098 -235.804285 
L 428.581101 -236.260145 
L 428.086104 -236.715553 
L 427.591107 -237.17048 
L 427.09611 -237.624893 
L 426.601113 -238.07876 
L 426.106115 -238.53205 
L 425.611118 -238.98473 
L 425.116121 -239.436769 
L 424.621124 -239.888134 
L 424.126127 -240.338793 
L 423.63113 -240.788713 
L 423.136132 -241.237863 
L 422.641135 -241.686209 
L 422.146138 -242.133719 
L 421.651141 -242.58036 
L 421.156144 -243.026099 
L 420.661147 -243.470904 
L 420.16615 -243.914741 
L 419.671152 -244.357578 
L 419.176155 -244.799381 
L 418.681158 -245.240118 
L 418.186161 -245.679755 
L 417.691164 -246.11826 
L 417.196167 -246.555598 
L 416.701169 -246.991736 
L 416.206172 -247.426642 
L 415.711175 -247.860282 
L 415.216178 -248.292623 
L 414.721181 -248.723631 
L 414.226184 -249.153272 
L 413.731186 -249.581514 
L 413.236189 -250.008323 
L 412.741192 -250.433666 
L 412.246195 -250.857509 
L 411.751198 -251.279818 
L 411.256201 -251.700562 
L 410.761203 -252.119705 
L 410.266206 -252.537214 
L 409.771209 -252.953057 
L 409.276212 -253.3672 
L 408.781215 -253.779609 
L 408.286218 -254.190252 
L 407.79122 -254.599095 
L 407.296223 -255.006106 
L 406.801226 -255.41125 
L 406.306229 -255.814495 
L 405.811232 -256.215807 
L 405.316235 -256.615155 
L 404.821237 -257.012505 
L 404.32624 -257.407823 
L 403.831243 -257.801079 
L 403.336246 -258.192238 
L 402.841249 -258.581268 
L 402.346252 -258.968137 
L 401.851255 -259.352812 
L 401.356257 -259.735262 
L 400.86126 -260.115453 
L 400.366263 -260.493354 
L 399.871266 -260.868933 
L 399.376269 -261.242158 
L 398.881272 -261.612997 
L 398.386274 -261.981419 
L 397.891277 -262.347392 
L 397.39628 -262.710885 
L 396.901283 -263.071866 
L 396.406286 -263.430305 
L 395.911289 -263.78617 
L 395.416291 -264.139431 
L 394.921294 -264.490058 
L 394.426297 -264.838019 
L 393.9313 -265.183285 
L 393.436303 -265.525825 
L 392.941306 -265.865609 
L 392.446308 -266.202608 
L 391.951311 -266.536792 
L 391.456314 -266.868132 
L 390.961317 -267.196598 
L 390.46632 -267.522162 
L 389.971323 -267.844794 
L 389.476325 -268.164466 
L 388.981328 -268.48115 
L 388.486331 -268.794817 
L 387.991334 -269.10544 
L 387.496337 -269.41299 
L 387.00134 -269.71744 
L 386.506343 -270.018764 
L 386.011345 -270.316932 
L 385.516348 -270.61192 
L 385.021351 -270.9037 
L 384.526354 -271.192246 
L 384.031357 -271.477532 
L 383.53636 -271.759532 
L 383.041362 -272.038221 
L 382.546365 -272.313572 
L 382.051368 -272.585561 
L 381.556371 -272.854164 
L 381.061374 -273.119355 
L 380.566377 -273.381111 
L 380.071379 -273.639407 
L 379.576382 -273.89422 
L 379.081385 -274.145526 
L 378.586388 -274.393302 
L 378.091391 -274.637526 
L 377.596394 -274.878175 
L 377.101396 -275.115226 
L 376.606399 -275.348658 
L 376.111402 -275.578449 
L 375.616405 -275.804577 
L 375.121408 -276.027023 
L 374.626411 -276.245764 
L 374.131413 -276.460782 
L 373.636416 -276.672055 
L 373.141419 -276.879564 
L 372.646422 -277.083289 
L 372.151425 -277.283212 
L 371.656428 -277.479314 
L 371.16143 -277.671577 
L 370.666433 -277.859982 
L 370.171436 -278.044511 
L 369.676439 -278.225149 
L 369.181442 -278.401876 
L 368.686445 -278.574678 
L 368.191448 -278.743536 
L 367.69645 -278.908437 
L 367.201453 -279.069363 
L 366.706456 -279.226301 
L 366.211459 -279.379234 
L 365.716462 -279.528149 
L 365.221465 -279.673031 
L 364.726467 -279.813866 
L 364.23147 -279.950643 
L 363.736473 -280.083346 
L 363.241476 -280.211964 
L 362.746479 -280.336485 
L 362.251482 -280.456896 
L 361.756484 -280.573187 
L 361.261487 -280.685345 
L 360.76649 -280.793361 
L 360.271493 -280.897224 
L 359.776496 -280.996925 
L 359.281499 -281.092453 
L 358.786501 -281.183799 
L 358.291504 -281.270956 
L 357.796507 -281.353914 
L 357.30151 -281.432666 
L 356.806513 -281.507204 
L 356.311516 -281.57752 
L 355.816518 -281.643609 
L 355.321521 -281.705464 
L 354.826524 -281.763079 
L 354.331527 -281.816448 
L 353.83653 -281.865567 
L 353.341533 -281.91043 
L 352.846536 -281.951033 
L 352.351538 -281.987373 
L 351.856541 -282.019446 
L 351.361544 -282.047248 
L 350.866547 -282.070778 
L 350.37155 -282.090033 
L 349.876553 -282.105011 
L 349.381555 -282.11571 
L 348.886558 -282.12213 
L 348.391561 -282.124271 
L 347.896564 -282.12213 
L 347.401567 -282.11571 
L 346.90657 -282.105011 
L 346.411572 -282.090033 
L 345.916575 -282.070778 
L 345.421578 -282.047248 
L 344.926581 -282.019446 
L 344.431584 -281.987373 
L 343.936587 -281.951033 
L 343.441589 -281.91043 
L 342.946592 -281.865567 
L 342.451595 -281.816448 
L 341.956598 -281.763079 
L 341.461601 -281.705464 
L 340.966604 -281.643609 
L 340.471606 -281.57752 
L 339.976609 -281.507204 
L 339.481612 -281.432666 
L 338.986615 -281.353914 
L 338.491618 -281.270956 
L 337.996621 -281.183799 
L 337.501623 -281.092453 
L 337.006626 -280.996925 
L 336.511629 -280.897224 
L 336.016632 -280.793361 
L 335.521635 -280.685345 
L 335.026638 -280.573187 
L 334.531641 -280.456896 
L 334.036643 -280.336485 
L 333.541646 -280.211964 
L 333.046649 -280.083346 
L 332.551652 -279.950643 
L 332.056655 -279.813866 
L 331.561658 -279.673031 
L 331.06666 -279.528149 
L 330.571663 -279.379234 
L 330.076666 -279.226301 
L 329.581669 -279.069363 
L 329.086672 -278.908437 
L 328.591675 -278.743536 
L 328.096677 -278.574678 
L 327.60168 -278.401876 
L 327.106683 -278.225149 
L 326.611686 -278.044511 
L 326.116689 -277.859982 
L 325.621692 -277.671577 
L 325.126694 -277.479314 
L 324.631697 -277.283212 
L 324.1367 -277.083289 
L 323.641703 -276.879564 
L 323.146706 -276.672055 
L 322.651709 -276.460782 
L 322.156711 -276.245764 
L 321.661714 -276.027023 
L 321.166717 -275.804577 
L 320.67172 -275.578449 
L 320.176723 -275.348658 
L 319.681726 -275.115226 
L 319.186729 -274.878175 
L 318.691731 -274.637526 
L 318.196734 -274.393302 
L 317.701737 -274.145526 
L 317.20674 -273.89422 
L 316.711743 -273.639407 
L 316.216746 -273.381111 
L 315.721748 -273.119355 
L 315.226751 -272.854164 
L 314.731754 -272.585561 
L 314.236757 -272.313572 
L 313.74176 -272.038221 
L 313.246763 -271.759532 
L 312.751765 -271.477532 
L 312.256768 -271.192246 
L 311.761771 -270.9037 
L 311.266774 -270.61192 
L 310.771777 -270.316932 
L 310.27678 -270.018764 
L 309.781782 -269.71744 
L 309.286785 -269.41299 
L 308.791788 -269.10544 
L 308.296791 -268.794817 
L 307.801794 -268.48115 
L 307.306797 -268.164466 
L 306.811799 -267.844794 
L 306.316802 -267.522162 
L 305.821805 -267.196598 
L 305.326808 -266.868132 
L 304.831811 -266.536792 
L 304.336814 -266.202608 
L 303.841816 -265.865609 
L 303.346819 -265.525825 
L 302.851822 -265.183285 
L 302.356825 -264.838019 
L 301.861828 -264.490058 
L 301.366831 -264.139431 
L 300.871834 -263.78617 
L 300.376836 -263.430305 
L 299.881839 -263.071866 
L 299.386842 -262.710885 
L 298.891845 -262.347392 
L 298.396848 -261.981419 
L 297.901851 -261.612997 
L 297.406853 -261.242158 
L 296.911856 -260.868933 
L 296.416859 -260.493354 
L 295.921862 -260.115453 
L 295.426865 -259.735262 
L 294.931868 -259.352812 
L 294.43687 -258.968137 
L 293.941873 -258.581268 
L 293.446876 -258.192238 
L 292.951879 -257.801079 
L 292.456882 -257.407823 
L 291.961885 -257.012505 
L 291.466887 -256.615155 
L 290.97189 -256.215807 
L 290.476893 -255.814495 
L 289.981896 -255.41125 
L 289.486899 -255.006106 
L 288.991902 -254.599095 
L 288.496904 -254.190252 
L 288.001907 -253.779609 
L 287.50691 -253.3672 
L 287.011913 -252.953057 
L 286.516916 -252.537214 
L 286.021919 -252.119705 
L 285.526922 -251.700562 
L 285.031924 -251.279818 
L 284.536927 -250.857509 
L 284.04193 -250.433666 
L 283.546933 -250.008323 
L 283.051936 -249.581514 
L 282.556939 -249.153272 
L 282.061941 -248.723631 
L 281.566944 -248.292623 
L 281.071947 -247.860282 
L 280.57695 -247.426642 
L 280.081953 -246.991736 
L 279.586956 -246.555598 
L 279.091958 -246.11826 
L 278.596961 -245.679755 
L 278.101964 -245.240118 
L 277.606967 -244.799381 
L 277.11197 -244.357578 
L 276.616973 -243.914741 
L 276.121975 -243.470904 
L 275.626978 -243.026099 
L 275.131981 -242.58036 
L 274.636984 -242.133719 
L 274.141987 -241.686209 
L 273.64699 -241.237863 
L 273.151992 -240.788713 
L 272.656995 -240.338793 
L 272.161998 -239.888134 
L 271.667001 -239.436769 
L 271.172004 -238.98473 
L 270.677007 -238.53205 
L 270.18201 -238.07876 
L 269.687012 -237.624893 
L 269.192015 -237.17048 
L 268.697018 -236.715553 
L 268.202021 -236.260145 
L 267.707024 -235.804285 
L 267.212027 -235.348007 
L 266.717029 -234.89134 
L 266.222032 -234.434318 
L 265.727035 -233.976969 
L 265.232038 -233.519326 
L 264.737041 -233.061419 
L 264.242044 -232.603279 
L 263.747046 -232.144936 
L 263.252049 -231.68642 
L 262.757052 -231.227763 
L 262.262055 -230.768993 
L 261.767058 -230.310142 
L 261.272061 -229.851237 
L 260.777063 -229.39231 
L 260.282066 -228.93339 
L 259.787069 -228.474505 
L 259.292072 -228.015685 
L 258.797075 -227.556959 
L 258.302078 -227.098355 
L 257.80708 -226.639903 
L 257.312083 -226.18163 
L 256.817086 -225.723564 
L 256.322089 -225.265735 
L 255.827092 -224.808168 
L 255.332095 -224.350893 
L 254.837097 -223.893936 
L 254.3421 -223.437325 
L 253.847103 -222.981087 
L 253.352106 -222.525249 
L 252.857109 -222.069836 
L 252.362112 -221.614877 
L 251.867115 -221.160397 
L 251.372117 -220.706421 
L 250.87712 -220.252976 
L 250.382123 -219.800088 
L 249.887126 -219.347782 
L 249.392129 -218.896082 
L 248.897132 -218.445015 
L 248.402134 -217.908326 
L 247.907137 -217.709919 
L 247.41214 -217.512079 
L 246.917143 -217.314803 
L 246.422146 -217.118089 
L 245.927149 -216.921937 
L 245.432151 -216.726345 
L 244.937154 -216.531311 
L 244.442157 -216.336833 
L 243.94716 -216.14291 
L 243.452163 -215.94954 
L 242.957166 -215.756722 
L 242.462168 -215.564454 
L 241.967171 -215.372735 
L 241.472174 -215.181562 
L 240.977177 -214.990935 
L 240.48218 -214.800852 
L 239.987183 -214.611311 
L 239.492185 -214.422311 
L 238.997188 -214.23385 
L 238.502191 -214.045927 
L 238.007194 -213.85854 
L 237.512197 -213.671688 
L 237.0172 -213.485369 
L 236.522203 -213.299581 
L 236.027205 -213.114324 
L 235.532208 -212.929595 
L 235.037211 -212.745393 
L 234.542214 -212.561716 
L 234.047217 -212.378564 
L 233.55222 -212.195934 
L 233.057222 -212.013825 
L 232.562225 -211.832236 
L 232.067228 -211.651165 
L 231.572231 -211.47061 
L 231.077234 -211.290571 
L 230.582237 -211.111045 
L 230.087239 -210.932032 
L 229.592242 -210.753529 
L 229.097245 -210.575535 
L 228.602248 -210.39805 
L 228.107251 -210.22107 
L 227.612254 -210.044596 
L 227.117256 -209.868625 
L 226.622259 -209.693156 
L 226.127262 -209.518188 
L 225.632265 -209.343719 
L 225.137268 -209.169748 
L 224.642271 -208.996273 
L 224.147273 -208.823293 
L 223.652276 -208.650807 
L 223.157279 -208.478812 
L 222.662282 -208.307309 
L 222.167285 -208.136294 
L 221.672288 -207.965768 
L 221.17729 -207.795728 
L 220.682293 -207.626174 
L 220.187296 -207.457103 
L 219.692299 -207.288514 
L 219.197302 -207.120406 
L 218.702305 -206.952778 
L 218.207308 -206.785629 
L 217.71231 -206.618956 
L 217.217313 -206.452759 
L 216.722316 -206.287035 
L 216.227319 -206.121785 
L 215.732322 -205.957006 
L 215.237325 -205.792698 
L 214.742327 -205.628858 
L 214.24733 -205.465485 
L 213.752333 -205.302579 
L 213.257336 -205.140137 
L 212.762339 -204.978159 
L 212.267342 -204.816643 
L 211.772344 -204.655588 
L 211.277347 -204.494992 
L 210.78235 -204.334855 
L 210.287353 -204.175174 
L 209.792356 -204.015949 
L 209.297359 -203.857178 
L 208.802361 -203.69886 
L 208.307364 -203.540994 
L 207.812367 -203.383579 
L 207.31737 -203.226612 
L 206.822373 -203.070093 
L 206.327376 -202.914021 
L 205.832378 -202.758394 
L 205.337381 -202.603211 
L 204.842384 -202.448471 
L 204.347387 -202.294173 
L 203.85239 -202.140314 
L 203.357393 -201.986895 
L 202.862396 -201.833913 
L 202.367398 -201.681368 
L 201.872401 -201.529258 
L 201.377404 -201.377582 
L 200.882407 -201.226338 
L 200.38741 -201.075527 
L 199.892413 -200.925145 
L 199.397415 -200.775193 
L 198.902418 -200.625668 
L 198.407421 -200.47657 
L 197.912424 -200.327897 
L 197.417427 -200.179649 
L 196.92243 -200.031823 
L 196.427432 -199.884419 
L 195.932435 -199.737436 
L 195.437438 -199.590872 
L 194.942441 -199.444726 
L 194.447444 -199.298998 
L 193.952447 -199.153685 
L 193.457449 -199.008786 
L 192.962452 -198.864301 
L 192.467455 -198.720228 
L 191.972458 -198.576567 
L 191.477461 -198.433315 
L 190.982464 -198.290472 
L 190.487466 -198.148036 
L 189.992469 -198.006007 
L 189.497472 -197.906579 
L 189.002475 -197.906579 
L 188.507478 -197.906579 
L 188.012481 -197.906579 
L 187.517483 -197.906579 
L 187.022486 -197.906579 
L 186.527489 -197.906579 
L 186.032492 -197.906579 
L 185.537495 -197.906579 
L 185.042498 -197.906579 
L 184.547501 -197.906579 
L 184.052503 -197.906579 
L 183.557506 -197.906579 
L 183.062509 -197.906579 
L 182.567512 -197.906579 
L 182.072515 -197.906579 
L 181.577518 -197.906579 
L 181.08252 -197.906579 
L 180.587523 -197.906579 
L 180.092526 -197.906579 
L 179.597529 -197.906579 
L 179.102532 -197.906579 
L 178.607535 -197.906579 
L 178.112537 -197.906579 
L 177.61754 -197.906579 
L 177.122543 -197.906579 
L 176.627546 -197.906579 
L 176.132549 -197.906579 
L 175.637552 -197.906579 
L 175.142554 -197.906579 
L 174.647557 -197.906579 
L 174.15256 -197.906579 
L 173.657563 -197.906579 
L 173.162566 -197.906579 
L 172.667569 -197.906579 
L 172.172571 -197.906579 
L 171.677574 -197.906579 
L 171.182577 -197.906579 
L 170.68758 -197.906579 
L 170.192583 -197.906579 
L 169.697586 -197.906579 
L 169.202589 -197.906579 
L 168.707591 -197.906579 
L 168.212594 -197.906579 
L 167.717597 -197.906579 
L 167.2226 -197.906579 
L 166.727603 -197.906579 
L 166.232606 -197.906579 
L 165.737608 -197.906579 
L 165.242611 -197.906579 
L 164.747614 -197.906579 
L 164.252617 -197.906579 
L 163.75762 -197.906579 
L 163.262623 -197.906579 
L 162.767625 -197.906579 
L 162.272628 -197.906579 
L 161.777631 -197.906579 
L 161.282634 -197.906579 
L 160.787637 -197.906579 
L 160.29264 -197.906579 
L 159.797642 -197.906579 
L 159.302645 -197.906579 
L 158.807648 -197.906579 
L 158.312651 -197.906579 
L 157.817654 -197.906579 
L 157.322657 -197.906579 
L 156.827659 -197.906579 
L 156.332662 -197.906579 
L 155.837665 -197.906579 
L 155.342668 -197.906579 
L 154.847671 -197.906579 
L 154.352674 -197.906579 
L 153.857676 -197.906579 
L 153.362679 -197.906579 
L 152.867682 -197.906579 
L 152.372685 -197.906579 
L 151.877688 -197.906579 
L 151.382691 -197.906579 
L 150.887694 -197.906579 
L 150.392696 -197.906579 
L 149.897699 -197.906579 
L 149.402702 -197.906579 
L 148.907705 -197.906579 
L 148.412708 -197.906579 
L 147.917711 -197.906579 
L 147.422713 -197.906579 
L 146.927716 -197.906579 
L 146.432719 -197.906579 
L 145.937722 -197.906579 
L 145.442725 -197.906579 
L 144.947728 -197.906579 
L 144.45273 -197.906579 
L 143.957733 -197.906579 
L 143.462736 -197.906579 
L 142.967739 -197.906579 
L 142.472742 -197.906579 
L 141.977745 -197.906579 
L 141.482747 -197.906579 
L 140.98775 -197.906579 
L 140.492753 -197.906579 
L 139.997756 -197.906579 
L 139.502759 -197.906579 
L 139.007762 -197.906579 
L 138.512764 -197.906579 
L 138.017767 -197.906579 
L 137.52277 -197.906579 
L 137.027773 -197.906579 
L 136.532776 -197.906579 
L 136.037779 -197.906579 
L 135.542782 -197.906579 
L 135.047784 -197.906579 
L 134.552787 -197.906579 
L 134.05779 -197.906579 
L 133.562793 -197.906579 
L 133.067796 -197.906579 
L 132.572799 -197.906579 
L 132.077801 -197.906579 
L 131.582804 -197.906579 
L 131.087807 -197.906579 
L 130.59281 -197.906579 
L 130.097813 -197.906579 
L 129.602816 -197.906579 
L 129.107818 -197.906579 
L 128.612821 -197.906579 
L 128.117824 -197.906579 
L 127.622827 -197.906579 
L 127.12783 -197.906579 
L 126.632833 -197.906579 
L 126.137835 -197.906579 
L 125.642838 -197.906579 
L 125.147841 -197.906579 
L 124.652844 -197.906579 
L 124.157847 -197.906579 
L 123.66285 -197.906579 
L 123.167852 -197.906579 
L 122.672855 -197.906579 
L 122.177858 -197.906579 
L 121.682861 -197.906579 
L 121.187864 -197.906579 
L 120.692867 -197.906579 
L 120.197869 -197.906579 
L 119.702872 -197.906579 
L 119.207875 -197.906579 
L 118.712878 -197.906579 
L 118.217881 -197.906579 
L 117.722884 -197.906579 
L 117.227887 -197.906579 
L 116.732889 -197.906579 
L 116.237892 -197.906579 
L 115.742895 -197.906579 
L 115.247898 -197.906579 
L 114.752901 -197.906579 
L 114.257904 -197.906579 
L 113.762906 -197.906579 
L 113.267909 -197.906579 
L 112.772912 -197.906579 
L 112.277915 -197.906579 
L 111.782918 -197.906579 
L 111.287921 -197.906579 
L 110.792923 -197.906579 
L 110.297926 -197.906579 
L 109.802929 -197.906579 
L 109.307932 -197.906579 
L 108.812935 -197.906579 
L 108.317938 -197.906579 
L 107.82294 -197.906579 
L 107.327943 -197.906579 
L 106.832946 -197.906579 
L 106.337949 -197.906579 
L 105.842952 -197.906579 
L 105.347955 -197.906579 
L 104.852957 -197.906579 
L 104.35796 -197.906579 
L 103.862963 -197.906579 
L 103.367966 -197.906579 
L 102.872969 -197.906579 
L 102.377972 -197.906579 
L 101.882975 -197.906579 
L 101.387977 -197.906579 
L 100.89298 -197.906579 
z
" style="stroke: #919182; stroke-width: 0.24"/>
    </defs>
    <g clip-path="url(#pbc497538b9)">
     <use xlink:href="#m0e476c4b33" x="0" y="482.4" style="fill: #919182; stroke: #919182; stroke-width: 0.24"/>
    </g>
   </g>
   <g id="matplotlib.axis_1">
    <g id="xtick_1">
     <g id="line2d_1">
      <defs>
       <path id="m5d0dd54b63" d="M 0 0 
L 0 3.5 
" style="stroke: #000000; stroke-width: 0.8"/>
      </defs>
      <g>
       <use xlink:href="#m5d0dd54b63" x="150.392696" y="424.429332" style="stroke: #000000; stroke-width: 0.8"/>
      </g>
     </g>
     <g id="text_1">
      <!-- $\mathdefault{0.4}$ -->
      <g transform="translate(134.221937 444.59892) scale(0.16 -0.16)">
       <defs>
        <path id="CMSY10-0" d="M 4218 1472 
C 4326 1472 4442 1472 4442 1600 
C 4442 1728 4326 1728 4218 1728 
L 755 1728 
C 646 1728 531 1728 531 1600 
C 531 1472 646 1472 755 1472 
L 4218 1472 
z
" transform="scale(0.015625)"/>
        <path id="CMR17-30" d="M 2688 2025 
C 2688 2416 2682 3080 2413 3591 
C 2176 4039 1798 4198 1466 4198 
C 1158 4198 768 4058 525 3597 
C 269 3118 243 2524 243 2025 
C 243 1661 250 1106 448 619 
C 723 -39 1216 -128 1466 -128 
C 1760 -128 2208 -7 2470 600 
C 2662 1042 2688 1559 2688 2025 
z
M 1466 -26 
C 1056 -26 813 325 723 812 
C 653 1188 653 1738 653 2096 
C 653 2588 653 2997 736 3387 
C 858 3929 1216 4096 1466 4096 
C 1728 4096 2067 3923 2189 3400 
C 2272 3036 2278 2607 2278 2096 
C 2278 1680 2278 1169 2202 792 
C 2067 95 1690 -26 1466 -26 
z
" transform="scale(0.015625)"/>
        <path id="CMMI12-3a" d="M 1178 307 
C 1178 492 1024 619 870 619 
C 685 619 557 466 557 313 
C 557 128 710 0 864 0 
C 1050 0 1178 153 1178 307 
z
" transform="scale(0.015625)"/>
        <path id="CMR17-34" d="M 2150 4122 
C 2150 4256 2144 4256 2029 4256 
L 128 1254 
L 128 1088 
L 1779 1088 
L 1779 457 
C 1779 224 1766 160 1318 160 
L 1197 160 
L 1197 0 
C 1402 0 1747 0 1965 0 
C 2182 0 2528 0 2733 0 
L 2733 160 
L 2611 160 
C 2163 160 2150 224 2150 457 
L 2150 1088 
L 2803 1088 
L 2803 1254 
L 2150 1254 
L 2150 4122 
z
M 1798 3703 
L 1798 1254 
L 256 1254 
L 1798 3703 
z
" transform="scale(0.015625)"/>
       </defs>
       <use xlink:href="#CMSY10-0" transform="scale(0.996264)"/>
       <use xlink:href="#CMR17-30" transform="translate(77.487468 0) scale(0.996264)"/>
       <use xlink:href="#CMMI12-3a" transform="translate(123.177945 0) scale(0.996264)"/>
       <use xlink:href="#CMR17-34" transform="translate(150.275122 0) scale(0.996264)"/>
      </g>
     </g>
    </g>
    <g id="xtick_2">
     <g id="line2d_2">
      <g>
       <use xlink:href="#m5d0dd54b63" x="249.392129" y="424.429332" style="stroke: #000000; stroke-width: 0.8"/>
      </g>
     </g>
     <g id="text_2">
      <!-- $\mathdefault{0.2}$ -->
      <g transform="translate(233.22137 444.59892) scale(0.16 -0.16)">
       <defs>
        <path id="CMR17-32" d="M 2669 989 
L 2554 989 
C 2490 536 2438 459 2413 420 
C 2381 369 1920 369 1830 369 
L 602 369 
C 832 619 1280 1072 1824 1597 
C 2214 1967 2669 2402 2669 3035 
C 2669 3790 2067 4224 1395 4224 
C 691 4224 262 3604 262 3030 
C 262 2780 448 2748 525 2748 
C 589 2748 781 2787 781 3010 
C 781 3207 614 3264 525 3264 
C 486 3264 448 3258 422 3245 
C 544 3790 915 4058 1306 4058 
C 1862 4058 2227 3617 2227 3035 
C 2227 2479 1901 2000 1536 1584 
L 262 146 
L 262 0 
L 2515 0 
L 2669 989 
z
" transform="scale(0.015625)"/>
       </defs>
       <use xlink:href="#CMSY10-0" transform="scale(0.996264)"/>
       <use xlink:href="#CMR17-30" transform="translate(77.487468 0) scale(0.996264)"/>
       <use xlink:href="#CMMI12-3a" transform="translate(123.177945 0) scale(0.996264)"/>
       <use xlink:href="#CMR17-32" transform="translate(150.275122 0) scale(0.996264)"/>
      </g>
     </g>
    </g>
    <g id="xtick_3">
     <g id="line2d_3">
      <g>
       <use xlink:href="#m5d0dd54b63" x="348.391561" y="424.429332" style="stroke: #000000; stroke-width: 0.8"/>
      </g>
     </g>
     <g id="text_3">
      <!-- $\mathdefault{0.0}$ -->
      <g transform="translate(338.4198 444.59892) scale(0.16 -0.16)">
       <use xlink:href="#CMR17-30" transform="scale(0.996264)"/>
       <use xlink:href="#CMMI12-3a" transform="translate(45.690477 0) scale(0.996264)"/>
       <use xlink:href="#CMR17-30" transform="translate(72.787654 0) scale(0.996264)"/>
      </g>
     </g>
    </g>
    <g id="xtick_4">
     <g id="line2d_4">
      <g>
       <use xlink:href="#m5d0dd54b63" x="447.390993" y="424.429332" style="stroke: #000000; stroke-width: 0.8"/>
      </g>
     </g>
     <g id="text_4">
      <!-- $\mathdefault{0.2}$ -->
      <g transform="translate(437.419232 444.59892) scale(0.16 -0.16)">
       <use xlink:href="#CMR17-30" transform="scale(0.996264)"/>
       <use xlink:href="#CMMI12-3a" transform="translate(45.690477 0) scale(0.996264)"/>
       <use xlink:href="#CMR17-32" transform="translate(72.787654 0) scale(0.996264)"/>
      </g>
     </g>
    </g>
    <g id="xtick_5">
     <g id="line2d_5">
      <g>
       <use xlink:href="#m5d0dd54b63" x="546.390426" y="424.429332" style="stroke: #000000; stroke-width: 0.8"/>
      </g>
     </g>
     <g id="text_5">
      <!-- $\mathdefault{0.4}$ -->
      <g transform="translate(536.418665 444.59892) scale(0.16 -0.16)">
       <use xlink:href="#CMR17-30" transform="scale(0.996264)"/>
       <use xlink:href="#CMMI12-3a" transform="translate(45.690477 0) scale(0.996264)"/>
       <use xlink:href="#CMR17-34" transform="translate(72.787654 0) scale(0.996264)"/>
      </g>
     </g>
    </g>
    <g id="text_6">
     <!-- x (km) -->
     <g transform="translate(323.718719 467.131816) scale(0.18 -0.18)">
      <defs>
       <path id="CMR17-78" d="M 1664 1477 
C 1856 1726 2074 2006 2253 2216 
C 2464 2458 2707 2560 2989 2560 
L 2989 2726 
C 2880 2726 2656 2726 2541 2726 
C 2368 2726 2170 2726 2022 2732 
L 2022 2566 
C 2112 2553 2163 2489 2163 2400 
C 2163 2285 2099 2215 2067 2171 
L 1594 1573 
L 1030 2306 
C 973 2376 973 2388 973 2420 
C 973 2497 1037 2560 1146 2560 
L 1146 2732 
C 992 2726 717 2726 557 2726 
C 384 2726 179 2726 38 2732 
L 38 2560 
C 384 2560 461 2534 614 2343 
L 1350 1395 
C 1363 1382 1395 1344 1395 1325 
C 1395 1299 838 619 768 530 
C 480 185 179 160 6 160 
L 6 0 
C 115 0 339 0 454 0 
C 582 0 864 0 979 -6 
L 979 160 
C 941 166 838 179 838 325 
C 838 440 890 510 947 586 
L 1478 1236 
L 2035 512 
C 2086 442 2163 346 2163 301 
C 2163 211 2086 160 1984 160 
L 1984 -6 
C 2138 0 2413 0 2573 0 
C 2746 0 2950 0 3091 -6 
L 3091 160 
C 2771 160 2675 172 2522 370 
L 1664 1477 
z
" transform="scale(0.015625)"/>
       <path id="CMR17-28" d="M 1958 -1561 
C 1958 -1555 1958 -1542 1939 -1523 
C 1645 -1224 858 -407 858 1581 
C 858 3569 1632 4379 1946 4697 
C 1946 4704 1958 4717 1958 4736 
C 1958 4755 1939 4768 1914 4768 
C 1843 4768 1299 4296 986 3594 
C 666 2887 576 2199 576 1588 
C 576 1128 621 351 1005 -471 
C 1312 -1135 1837 -1600 1914 -1600 
C 1946 -1600 1958 -1587 1958 -1561 
z
" transform="scale(0.015625)"/>
       <path id="CMR17-6b" d="M 1670 1673 
C 1664 1686 1632 1724 1632 1743 
C 1632 1756 2086 2171 2144 2222 
C 2509 2528 2739 2560 2906 2560 
L 2906 2733 
C 2867 2733 2854 2733 2848 2720 
L 2534 2720 
C 2355 2720 2080 2720 1907 2733 
L 1907 2566 
C 1997 2559 2061 2508 2061 2419 
C 2061 2291 1933 2170 1926 2170 
L 960 1289 
L 960 4396 
L 198 4326 
L 198 4160 
C 576 4160 634 4122 634 3817 
L 634 426 
C 634 184 608 153 198 153 
L 198 -13 
C 352 0 634 0 794 0 
C 954 0 1235 0 1389 -13 
L 1389 153 
C 979 153 954 178 954 428 
L 954 1130 
L 1395 1532 
L 2042 574 
C 2118 459 2182 369 2182 286 
C 2182 172 2067 153 1990 153 
L 1990 -13 
C 2144 0 2419 0 2579 0 
C 2694 0 2931 0 3040 0 
L 3040 153 
C 2739 153 2669 210 2477 491 
L 1670 1673 
z
" transform="scale(0.015625)"/>
       <path id="CMR17-6d" d="M 4326 1933 
C 4326 2252 4269 2790 3507 2790 
C 3072 2790 2771 2496 2656 2151 
L 2650 2151 
C 2573 2676 2195 2790 1837 2790 
C 1331 2790 1069 2400 973 2144 
L 966 2144 
L 966 2790 
L 211 2720 
L 211 2554 
C 589 2554 646 2515 646 2208 
L 646 428 
C 646 184 621 153 211 153 
L 211 -13 
C 365 0 646 0 813 0 
C 979 0 1267 0 1421 -13 
L 1421 153 
C 1011 153 986 178 986 428 
L 986 1658 
C 986 2247 1344 2688 1792 2688 
C 2266 2688 2317 2266 2317 1958 
L 2317 428 
C 2317 184 2291 153 1882 153 
L 1882 -13 
C 2035 0 2317 0 2483 0 
C 2650 0 2938 0 3091 -13 
L 3091 153 
C 2682 153 2656 178 2656 428 
L 2656 1658 
C 2656 2247 3014 2688 3462 2688 
C 3936 2688 3987 2266 3987 1958 
L 3987 428 
C 3987 184 3962 153 3552 153 
L 3552 -13 
C 3706 0 3987 0 4154 0 
C 4320 0 4608 0 4762 -13 
L 4762 153 
C 4352 153 4326 178 4326 428 
L 4326 1933 
z
" transform="scale(0.015625)"/>
       <path id="CMR17-29" d="M 1683 1581 
C 1683 2040 1638 2817 1254 3639 
C 947 4303 422 4768 346 4768 
C 326 4768 301 4761 301 4729 
C 301 4717 307 4710 314 4697 
C 621 4378 1402 3568 1402 1584 
C 1402 -407 627 -1217 314 -1537 
C 307 -1549 301 -1556 301 -1568 
C 301 -1600 326 -1600 346 -1600 
C 416 -1600 960 -1128 1274 -426 
C 1594 281 1683 969 1683 1581 
z
" transform="scale(0.015625)"/>
      </defs>
      <use xlink:href="#CMR17-78" transform="scale(0.996264)"/>
      <use xlink:href="#CMR17-28" transform="translate(78.368882 0) scale(0.996264)"/>
      <use xlink:href="#CMR17-6b" transform="translate(113.64965 0) scale(0.996264)"/>
      <use xlink:href="#CMR17-6d" transform="translate(161.942566 0) scale(0.996264)"/>
      <use xlink:href="#CMR17-29" transform="translate(238.862156 0) scale(0.996264)"/>
     </g>
    </g>
   </g>
   <g id="matplotlib.axis_2">
    <g id="ytick_1">
     <g id="line2d_6">
      <defs>
       <path id="mf9bc7da32a" d="M 0 0 
L -3.5 0 
" style="stroke: #000000; stroke-width: 0.8"/>
      </defs>
      <g>
       <use xlink:href="#mf9bc7da32a" x="76.143122" y="383.573058" style="stroke: #000000; stroke-width: 0.8"/>
      </g>
     </g>
     <g id="text_7">
      <!-- $\mathdefault{0.1}$ -->
      <g transform="translate(34.701604 389.107852) scale(0.16 -0.16)">
       <defs>
        <path id="CMR17-31" d="M 1702 4058 
C 1702 4192 1696 4192 1606 4192 
C 1357 3916 979 3827 621 3827 
C 602 3827 570 3827 563 3808 
C 557 3795 557 3782 557 3648 
C 755 3648 1088 3686 1344 3839 
L 1344 461 
C 1344 236 1331 160 781 160 
L 589 160 
L 589 0 
C 896 0 1216 0 1523 0 
C 1830 0 2150 0 2458 0 
L 2458 160 
L 2266 160 
C 1715 160 1702 230 1702 458 
L 1702 4058 
z
" transform="scale(0.015625)"/>
       </defs>
       <use xlink:href="#CMSY10-0" transform="scale(0.996264)"/>
       <use xlink:href="#CMR17-30" transform="translate(77.487468 0) scale(0.996264)"/>
       <use xlink:href="#CMMI12-3a" transform="translate(123.177945 0) scale(0.996264)"/>
       <use xlink:href="#CMR17-31" transform="translate(150.275122 0) scale(0.996264)"/>
      </g>
     </g>
    </g>
    <g id="ytick_2">
     <g id="line2d_7">
      <g>
       <use xlink:href="#mf9bc7da32a" x="76.143122" y="334.033239" style="stroke: #000000; stroke-width: 0.8"/>
      </g>
     </g>
     <g id="text_8">
      <!-- $\mathdefault{0.0}$ -->
      <g transform="translate(47.0996 339.568034) scale(0.16 -0.16)">
       <use xlink:href="#CMR17-30" transform="scale(0.996264)"/>
       <use xlink:href="#CMMI12-3a" transform="translate(45.690477 0) scale(0.996264)"/>
       <use xlink:href="#CMR17-30" transform="translate(72.787654 0) scale(0.996264)"/>
      </g>
     </g>
    </g>
    <g id="ytick_3">
     <g id="line2d_8">
      <g>
       <use xlink:href="#mf9bc7da32a" x="76.143122" y="284.493421" style="stroke: #000000; stroke-width: 0.8"/>
      </g>
     </g>
     <g id="text_9">
      <!-- $\mathdefault{0.1}$ -->
      <g transform="translate(47.0996 290.028215) scale(0.16 -0.16)">
       <use xlink:href="#CMR17-30" transform="scale(0.996264)"/>
       <use xlink:href="#CMMI12-3a" transform="translate(45.690477 0) scale(0.996264)"/>
       <use xlink:href="#CMR17-31" transform="translate(72.787654 0) scale(0.996264)"/>
      </g>
     </g>
    </g>
    <g id="ytick_4">
     <g id="line2d_9">
      <g>
       <use xlink:href="#mf9bc7da32a" x="76.143122" y="234.953602" style="stroke: #000000; stroke-width: 0.8"/>
      </g>
     </g>
     <g id="text_10">
      <!-- $\mathdefault{0.2}$ -->
      <g transform="translate(47.0996 240.488397) scale(0.16 -0.16)">
       <use xlink:href="#CMR17-30" transform="scale(0.996264)"/>
       <use xlink:href="#CMMI12-3a" transform="translate(45.690477 0) scale(0.996264)"/>
       <use xlink:href="#CMR17-32" transform="translate(72.787654 0) scale(0.996264)"/>
      </g>
     </g>
    </g>
    <g id="ytick_5">
     <g id="line2d_10">
      <g>
       <use xlink:href="#mf9bc7da32a" x="76.143122" y="185.413784" style="stroke: #000000; stroke-width: 0.8"/>
      </g>
     </g>
     <g id="text_11">
      <!-- $\mathdefault{0.3}$ -->
      <g transform="translate(47.0996 190.948578) scale(0.16 -0.16)">
       <defs>
        <path id="CMR17-33" d="M 1414 2157 
C 1984 2157 2234 1662 2234 1090 
C 2234 320 1824 25 1453 25 
C 1114 25 563 194 390 693 
C 422 680 454 680 486 680 
C 640 680 755 782 755 948 
C 755 1133 614 1216 486 1216 
C 378 1216 211 1165 211 926 
C 211 335 787 -128 1466 -128 
C 2176 -128 2720 430 2720 1085 
C 2720 1707 2208 2157 1600 2227 
C 2086 2328 2554 2756 2554 3329 
C 2554 3820 2048 4179 1472 4179 
C 890 4179 378 3829 378 3329 
C 378 3110 544 3072 627 3072 
C 762 3072 877 3155 877 3321 
C 877 3486 762 3569 627 3569 
C 602 3569 570 3569 544 3557 
C 730 3959 1235 4032 1459 4032 
C 1683 4032 2106 3925 2106 3320 
C 2106 3143 2080 2828 1862 2550 
C 1670 2304 1453 2304 1242 2284 
C 1210 2284 1062 2269 1037 2269 
C 992 2263 966 2257 966 2208 
C 966 2163 973 2157 1101 2157 
L 1414 2157 
z
" transform="scale(0.015625)"/>
       </defs>
       <use xlink:href="#CMR17-30" transform="scale(0.996264)"/>
       <use xlink:href="#CMMI12-3a" transform="translate(45.690477 0) scale(0.996264)"/>
       <use xlink:href="#CMR17-33" transform="translate(72.787654 0) scale(0.996264)"/>
      </g>
     </g>
    </g>
    <g id="ytick_6">
     <g id="line2d_11">
      <g>
       <use xlink:href="#mf9bc7da32a" x="76.143122" y="135.873965" style="stroke: #000000; stroke-width: 0.8"/>
      </g>
     </g>
     <g id="text_12">
      <!-- $\mathdefault{0.4}$ -->
      <g transform="translate(47.0996 141.408759) scale(0.16 -0.16)">
       <use xlink:href="#CMR17-30" transform="scale(0.996264)"/>
       <use xlink:href="#CMMI12-3a" transform="translate(45.690477 0) scale(0.996264)"/>
       <use xlink:href="#CMR17-34" transform="translate(72.787654 0) scale(0.996264)"/>
      </g>
     </g>
    </g>
    <g id="ytick_7">
     <g id="line2d_12">
      <g>
       <use xlink:href="#mf9bc7da32a" x="76.143122" y="86.334147" style="stroke: #000000; stroke-width: 0.8"/>
      </g>
     </g>
     <g id="text_13">
      <!-- $\mathdefault{0.5}$ -->
      <g transform="translate(47.0996 91.868941) scale(0.16 -0.16)">
       <defs>
        <path id="CMR17-35" d="M 730 3692 
C 794 3666 1056 3584 1325 3584 
C 1920 3584 2246 3911 2432 4100 
C 2432 4157 2432 4192 2394 4192 
C 2387 4192 2374 4192 2323 4163 
C 2099 4058 1837 3973 1517 3973 
C 1325 3973 1037 3999 723 4139 
C 653 4171 640 4171 634 4171 
C 602 4171 595 4164 595 4037 
L 595 2203 
C 595 2089 595 2057 659 2057 
C 691 2057 704 2070 736 2114 
C 941 2401 1222 2522 1542 2522 
C 1766 2522 2246 2382 2246 1289 
C 2246 1085 2246 715 2054 421 
C 1894 159 1645 25 1370 25 
C 947 25 518 320 403 814 
C 429 807 480 795 506 795 
C 589 795 749 840 749 1038 
C 749 1210 627 1280 506 1280 
C 358 1280 262 1190 262 1011 
C 262 454 704 -128 1382 -128 
C 2042 -128 2669 440 2669 1264 
C 2669 2030 2170 2624 1549 2624 
C 1222 2624 947 2503 730 2274 
L 730 3692 
z
" transform="scale(0.015625)"/>
       </defs>
       <use xlink:href="#CMR17-30" transform="scale(0.996264)"/>
       <use xlink:href="#CMMI12-3a" transform="translate(45.690477 0) scale(0.996264)"/>
       <use xlink:href="#CMR17-35" transform="translate(72.787654 0) scale(0.996264)"/>
      </g>
     </g>
    </g>
    <g id="ytick_8">
     <g id="line2d_13">
      <g>
       <use xlink:href="#mf9bc7da32a" x="76.143122" y="36.794328" style="stroke: #000000; stroke-width: 0.8"/>
      </g>
     </g>
     <g id="text_14">
      <!-- $\mathdefault{0.6}$ -->
      <g transform="translate(47.0996 42.329122) scale(0.16 -0.16)">
       <defs>
        <path id="CMR17-36" d="M 678 2176 
C 678 3690 1395 4032 1811 4032 
C 1946 4032 2272 4009 2400 3776 
C 2298 3776 2106 3776 2106 3553 
C 2106 3381 2246 3323 2336 3323 
C 2394 3323 2566 3348 2566 3560 
C 2566 3954 2246 4179 1805 4179 
C 1043 4179 243 3390 243 1984 
C 243 253 966 -128 1478 -128 
C 2099 -128 2688 427 2688 1283 
C 2688 2081 2170 2662 1517 2662 
C 1126 2662 838 2407 678 1960 
L 678 2176 
z
M 1478 25 
C 691 25 691 1200 691 1436 
C 691 1896 909 2560 1504 2560 
C 1613 2560 1926 2560 2138 2120 
C 2253 1870 2253 1609 2253 1289 
C 2253 944 2253 690 2118 434 
C 1978 171 1773 25 1478 25 
z
" transform="scale(0.015625)"/>
       </defs>
       <use xlink:href="#CMR17-30" transform="scale(0.996264)"/>
       <use xlink:href="#CMMI12-3a" transform="translate(45.690477 0) scale(0.996264)"/>
       <use xlink:href="#CMR17-36" transform="translate(72.787654 0) scale(0.996264)"/>
      </g>
     </g>
    </g>
    <g id="text_15">
     <!-- z (km) -->
     <g transform="translate(24.23342 241.584859) rotate(-90) scale(0.18 -0.18)">
      <defs>
       <path id="CMR17-7a" d="M 2310 2605 
C 2362 2670 2362 2682 2362 2695 
C 2362 2752 2336 2752 2221 2752 
L 275 2752 
L 211 1760 
L 326 1760 
C 371 2381 442 2650 1178 2650 
L 1958 2650 
L 128 96 
C 128 0 134 0 269 0 
L 2291 0 
L 2381 1152 
L 2266 1152 
C 2214 442 2131 115 1350 115 
L 531 115 
L 2310 2605 
z
" transform="scale(0.015625)"/>
      </defs>
      <use xlink:href="#CMR17-7a" transform="scale(0.996264)"/>
      <use xlink:href="#CMR17-28" transform="translate(70.561627 0) scale(0.996264)"/>
      <use xlink:href="#CMR17-6b" transform="translate(105.842395 0) scale(0.996264)"/>
      <use xlink:href="#CMR17-6d" transform="translate(154.13531 0) scale(0.996264)"/>
      <use xlink:href="#CMR17-29" transform="translate(231.0549 0) scale(0.996264)"/>
     </g>
    </g>
   </g>
   <g id="patch_4">
    <path d="M 76.143122 424.429332 
L 76.143122 10.8 
" style="fill: none; stroke: #000000; stroke-width: 0.8; stroke-linejoin: miter; stroke-linecap: square"/>
   </g>
   <g id="patch_5">
    <path d="M 620.64 424.429332 
L 620.64 10.8 
" style="fill: none; stroke: #000000; stroke-width: 0.8; stroke-linejoin: miter; stroke-linecap: square"/>
   </g>
   <g id="patch_6">
    <path d="M 76.143122 424.429332 
L 620.64 424.429332 
" style="fill: none; stroke: #000000; stroke-width: 0.8; stroke-linejoin: miter; stroke-linecap: square"/>
   </g>
   <g id="patch_7">
    <path d="M 76.143122 10.8 
L 620.64 10.8 
" style="fill: none; stroke: #000000; stroke-width: 0.8; stroke-linejoin: miter; stroke-linecap: square"/>
   </g>
  </g>
 </g>
 <defs>
  <clipPath id="pbc497538b9">
   <rect x="76.143122" y="10.8" width="544.496878" height="413.629332"/>
  </clipPath>
 </defs>
</svg>
