<?xml version="1.0" encoding="utf-8" standalone="no"?>
<!DOCTYPE svg PUBLIC "-//W3C//DTD SVG 1.1//EN"
  "http://www.w3.org/Graphics/SVG/1.1/DTD/svg11.dtd">
<svg xmlns:xlink="http://www.w3.org/1999/xlink" width="570.96pt" height="383.76pt" viewBox="0 0 570.96 383.76" xmlns="http://www.w3.org/2000/svg" version="1.1">
 <metadata>
  <rdf:RDF xmlns:dc="http://purl.org/dc/elements/1.1/" xmlns:cc="http://creativecommons.org/ns#" xmlns:rdf="http://www.w3.org/1999/02/22-rdf-syntax-ns#">
   <cc:Work>
    <dc:type rdf:resource="http://purl.org/dc/dcmitype/StillImage"/>
    <dc:date>2025-10-06T15:48:27.310444</dc:date>
    <dc:format>image/svg+xml</dc:format>
    <dc:creator>
     <cc:Agent>
      <dc:title>Matplotlib v3.9.2, https://matplotlib.org/</dc:title>
     </cc:Agent>
    </dc:creator>
   </cc:Work>
  </rdf:RDF>
 </metadata>
 <defs>
  <style type="text/css">*{stroke-linejoin: round; stroke-linecap: butt}</style>
 </defs>
 <g id="figure_1">
  <g id="patch_1">
   <path d="M 0 383.76 
L 570.96 383.76 
L 570.96 0 
L 0 0 
z
" style="fill: #ffffff"/>
  </g>
  <g id="axes_1">
   <g id="patch_2">
    <path d="M 76.143122 325.789332 
L 560.16 325.789332 
L 560.16 14.931493 
L 76.143122 14.931493 
z
" style="fill: #ffffff"/>
   </g>
   <g id="patch_3">
    <path d="M 98.143889 317.765552 
L 538.159233 317.765552 
L 538.159233 22.955272 
L 98.143889 22.955272 
z
" clip-path="url(#p9587cc4903)" style="fill: #87ceeb; stroke: #87ceeb; stroke-width: 0.24; stroke-linejoin: miter"/>
   </g>
   <g id="PolyCollection_1">
    <defs>
     <path id="m46f6fe5de8" d="M 98.143889 -153.997516 
L 98.143889 -65.994448 
L 98.583905 -65.994448 
L 99.02392 -65.994448 
L 99.463935 -65.994448 
L 99.903951 -65.994448 
L 100.343966 -65.994448 
L 100.783981 -65.994448 
L 101.223997 -65.994448 
L 101.664012 -65.994448 
L 102.104027 -65.994448 
L 102.544043 -65.994448 
L 102.984058 -65.994448 
L 103.424073 -65.994448 
L 103.864089 -65.994448 
L 104.304104 -65.994448 
L 104.744119 -65.994448 
L 105.184135 -65.994448 
L 105.62415 -65.994448 
L 106.064165 -65.994448 
L 106.504181 -65.994448 
L 106.944196 -65.994448 
L 107.384211 -65.994448 
L 107.824227 -65.994448 
L 108.264242 -65.994448 
L 108.704258 -65.994448 
L 109.144273 -65.994448 
L 109.584288 -65.994448 
L 110.024304 -65.994448 
L 110.464319 -65.994448 
L 110.904334 -65.994448 
L 111.34435 -65.994448 
L 111.784365 -65.994448 
L 112.22438 -65.994448 
L 112.664396 -65.994448 
L 113.104411 -65.994448 
L 113.544426 -65.994448 
L 113.984442 -65.994448 
L 114.424457 -65.994448 
L 114.864472 -65.994448 
L 115.304488 -65.994448 
L 115.744503 -65.994448 
L 116.184518 -65.994448 
L 116.624534 -65.994448 
L 117.064549 -65.994448 
L 117.504564 -65.994448 
L 117.94458 -65.994448 
L 118.384595 -65.994448 
L 118.82461 -65.994448 
L 119.264626 -65.994448 
L 119.704641 -65.994448 
L 120.144656 -65.994448 
L 120.584672 -65.994448 
L 121.024687 -65.994448 
L 121.464702 -65.994448 
L 121.904718 -65.994448 
L 122.344733 -65.994448 
L 122.784749 -65.994448 
L 123.224764 -65.994448 
L 123.664779 -65.994448 
L 124.104795 -65.994448 
L 124.54481 -65.994448 
L 124.984825 -65.994448 
L 125.424841 -65.994448 
L 125.864856 -65.994448 
L 126.304871 -65.994448 
L 126.744887 -65.994448 
L 127.184902 -65.994448 
L 127.624917 -65.994448 
L 128.064933 -65.994448 
L 128.504948 -65.994448 
L 128.944963 -65.994448 
L 129.384979 -65.994448 
L 129.824994 -65.994448 
L 130.265009 -65.994448 
L 130.705025 -65.994448 
L 131.14504 -65.994448 
L 131.585055 -65.994448 
L 132.025071 -65.994448 
L 132.465086 -65.994448 
L 132.905101 -65.994448 
L 133.345117 -65.994448 
L 133.785132 -65.994448 
L 134.225147 -65.994448 
L 134.665163 -65.994448 
L 135.105178 -65.994448 
L 135.545193 -65.994448 
L 135.985209 -65.994448 
L 136.425224 -65.994448 
L 136.86524 -65.994448 
L 137.305255 -65.994448 
L 137.74527 -65.994448 
L 138.185286 -65.994448 
L 138.625301 -65.994448 
L 139.065316 -65.994448 
L 139.505332 -65.994448 
L 139.945347 -65.994448 
L 140.385362 -65.994448 
L 140.825378 -65.994448 
L 141.265393 -65.994448 
L 141.705408 -65.994448 
L 142.145424 -65.994448 
L 142.585439 -65.994448 
L 143.025454 -65.994448 
L 143.46547 -65.994448 
L 143.905485 -65.994448 
L 144.3455 -65.994448 
L 144.785516 -65.994448 
L 145.225531 -65.994448 
L 145.665546 -65.994448 
L 146.105562 -65.994448 
L 146.545577 -65.994448 
L 146.985592 -65.994448 
L 147.425608 -65.994448 
L 147.865623 -65.994448 
L 148.305638 -65.994448 
L 148.745654 -65.994448 
L 149.185669 -65.994448 
L 149.625684 -65.994448 
L 150.0657 -65.994448 
L 150.505715 -65.994448 
L 150.945731 -65.994448 
L 151.385746 -65.994448 
L 151.825761 -65.994448 
L 152.265777 -65.994448 
L 152.705792 -65.994448 
L 153.145807 -65.994448 
L 153.585823 -65.994448 
L 154.025838 -65.994448 
L 154.465853 -65.994448 
L 154.905869 -65.994448 
L 155.345884 -65.994448 
L 155.785899 -65.994448 
L 156.225915 -65.994448 
L 156.66593 -65.994448 
L 157.105945 -65.994448 
L 157.545961 -65.994448 
L 157.985976 -65.994448 
L 158.425991 -65.994448 
L 158.866007 -65.994448 
L 159.306022 -65.994448 
L 159.746037 -65.994448 
L 160.186053 -65.994448 
L 160.626068 -65.994448 
L 161.066083 -65.994448 
L 161.506099 -65.994448 
L 161.946114 -65.994448 
L 162.386129 -65.994448 
L 162.826145 -65.994448 
L 163.26616 -65.994448 
L 163.706175 -65.994448 
L 164.146191 -65.994448 
L 164.586206 -65.994448 
L 165.026222 -65.994448 
L 165.466237 -65.994448 
L 165.906252 -65.994448 
L 166.346268 -65.994448 
L 166.786283 -65.994448 
L 167.226298 -65.994448 
L 167.666314 -65.994448 
L 168.106329 -65.994448 
L 168.546344 -65.994448 
L 168.98636 -65.994448 
L 169.426375 -65.994448 
L 169.86639 -65.994448 
L 170.306406 -65.994448 
L 170.746421 -65.994448 
L 171.186436 -65.994448 
L 171.626452 -65.994448 
L 172.066467 -65.994448 
L 172.506482 -65.994448 
L 172.946498 -65.994448 
L 173.386513 -65.994448 
L 173.826528 -65.994448 
L 174.266544 -65.994448 
L 174.706559 -65.994448 
L 175.146574 -65.994448 
L 175.58659 -65.994448 
L 176.026605 -65.994448 
L 176.46662 -65.994448 
L 176.906636 -65.994448 
L 177.346651 -65.994448 
L 177.786666 -65.994448 
L 178.226682 -65.994448 
L 178.666697 -65.994448 
L 179.106712 -65.994448 
L 179.546728 -65.994448 
L 179.986743 -65.994448 
L 180.426759 -65.994448 
L 180.866774 -65.994448 
L 181.306789 -65.994448 
L 181.746805 -65.994448 
L 182.18682 -65.994448 
L 182.626835 -65.994448 
L 183.066851 -65.994448 
L 183.506866 -65.994448 
L 183.946881 -65.994448 
L 184.386897 -65.994448 
L 184.826912 -65.994448 
L 185.266927 -65.994448 
L 185.706943 -65.994448 
L 186.146958 -65.994448 
L 186.586973 -65.994448 
L 187.026989 -65.994448 
L 187.467004 -65.994448 
L 187.907019 -65.994448 
L 188.347035 -65.994448 
L 188.78705 -65.994448 
L 189.227065 -65.994448 
L 189.667081 -65.994448 
L 190.107096 -65.994448 
L 190.547111 -65.994448 
L 190.987127 -65.994448 
L 191.427142 -65.994448 
L 191.867157 -65.994448 
L 192.307173 -65.994448 
L 192.747188 -65.994448 
L 193.187203 -65.994448 
L 193.627219 -65.994448 
L 194.067234 -65.994448 
L 194.50725 -65.994448 
L 194.947265 -65.994448 
L 195.38728 -65.994448 
L 195.827296 -65.994448 
L 196.267311 -65.994448 
L 196.707326 -65.994448 
L 197.147342 -65.994448 
L 197.587357 -65.994448 
L 198.027372 -65.994448 
L 198.467388 -65.994448 
L 198.907403 -65.994448 
L 199.347418 -65.994448 
L 199.787434 -65.994448 
L 200.227449 -65.994448 
L 200.667464 -65.994448 
L 201.10748 -65.994448 
L 201.547495 -65.994448 
L 201.98751 -65.994448 
L 202.427526 -65.994448 
L 202.867541 -65.994448 
L 203.307556 -65.994448 
L 203.747572 -65.994448 
L 204.187587 -65.994448 
L 204.627602 -65.994448 
L 205.067618 -65.994448 
L 205.507633 -65.994448 
L 205.947648 -65.994448 
L 206.387664 -65.994448 
L 206.827679 -65.994448 
L 207.267694 -65.994448 
L 207.70771 -65.994448 
L 208.147725 -65.994448 
L 208.587741 -65.994448 
L 209.027756 -65.994448 
L 209.467771 -65.994448 
L 209.907787 -65.994448 
L 210.347802 -65.994448 
L 210.787817 -65.994448 
L 211.227833 -65.994448 
L 211.667848 -65.994448 
L 212.107863 -65.994448 
L 212.547879 -65.994448 
L 212.987894 -65.994448 
L 213.427909 -65.994448 
L 213.867925 -65.994448 
L 214.30794 -65.994448 
L 214.747955 -65.994448 
L 215.187971 -65.994448 
L 215.627986 -65.994448 
L 216.068001 -65.994448 
L 216.508017 -65.994448 
L 216.948032 -65.994448 
L 217.388047 -65.994448 
L 217.828063 -65.994448 
L 218.268078 -65.994448 
L 218.708093 -65.994448 
L 219.148109 -65.994448 
L 219.588124 -65.994448 
L 220.028139 -65.994448 
L 220.468155 -65.994448 
L 220.90817 -65.994448 
L 221.348185 -65.994448 
L 221.788201 -65.994448 
L 222.228216 -65.994448 
L 222.668232 -65.994448 
L 223.108247 -65.994448 
L 223.548262 -65.994448 
L 223.988278 -65.994448 
L 224.428293 -65.994448 
L 224.868308 -65.994448 
L 225.308324 -65.994448 
L 225.748339 -65.994448 
L 226.188354 -65.994448 
L 226.62837 -65.994448 
L 227.068385 -65.994448 
L 227.5084 -65.994448 
L 227.948416 -65.994448 
L 228.388431 -65.994448 
L 228.828446 -65.994448 
L 229.268462 -65.994448 
L 229.708477 -65.994448 
L 230.148492 -65.994448 
L 230.588508 -65.994448 
L 231.028523 -65.994448 
L 231.468538 -65.994448 
L 231.908554 -65.994448 
L 232.348569 -65.994448 
L 232.788584 -65.994448 
L 233.2286 -65.994448 
L 233.668615 -65.994448 
L 234.10863 -65.994448 
L 234.548646 -65.994448 
L 234.988661 -65.994448 
L 235.428676 -65.994448 
L 235.868692 -65.994448 
L 236.308707 -65.994448 
L 236.748722 -65.994448 
L 237.188738 -65.994448 
L 237.628753 -65.994448 
L 238.068769 -65.994448 
L 238.508784 -65.994448 
L 238.948799 -65.994448 
L 239.388815 -65.994448 
L 239.82883 -65.994448 
L 240.268845 -65.994448 
L 240.708861 -65.994448 
L 241.148876 -65.994448 
L 241.588891 -65.994448 
L 242.028907 -65.994448 
L 242.468922 -65.994448 
L 242.908937 -65.994448 
L 243.348953 -65.994448 
L 243.788968 -65.994448 
L 244.228983 -65.994448 
L 244.668999 -65.994448 
L 245.109014 -65.994448 
L 245.549029 -65.994448 
L 245.989045 -65.994448 
L 246.42906 -65.994448 
L 246.869075 -65.994448 
L 247.309091 -65.994448 
L 247.749106 -65.994448 
L 248.189121 -65.994448 
L 248.629137 -65.994448 
L 249.069152 -65.994448 
L 249.509167 -65.994448 
L 249.949183 -65.994448 
L 250.389198 -65.994448 
L 250.829213 -65.994448 
L 251.269229 -65.994448 
L 251.709244 -65.994448 
L 252.14926 -65.994448 
L 252.589275 -65.994448 
L 253.02929 -65.994448 
L 253.469306 -65.994448 
L 253.909321 -65.994448 
L 254.349336 -65.994448 
L 254.789352 -65.994448 
L 255.229367 -65.994448 
L 255.669382 -65.994448 
L 256.109398 -65.994448 
L 256.549413 -65.994448 
L 256.989428 -65.994448 
L 257.429444 -65.994448 
L 257.869459 -65.994448 
L 258.309474 -65.994448 
L 258.74949 -65.994448 
L 259.189505 -65.994448 
L 259.62952 -65.994448 
L 260.069536 -65.994448 
L 260.509551 -65.994448 
L 260.949566 -65.994448 
L 261.389582 -65.994448 
L 261.829597 -65.994448 
L 262.269612 -65.994448 
L 262.709628 -65.994448 
L 263.149643 -65.994448 
L 263.589658 -65.994448 
L 264.029674 -65.994448 
L 264.469689 -65.994448 
L 264.909704 -65.994448 
L 265.34972 -65.994448 
L 265.789735 -65.994448 
L 266.229751 -65.994448 
L 266.669766 -65.994448 
L 267.109781 -65.994448 
L 267.549797 -65.994448 
L 267.989812 -65.994448 
L 268.429827 -65.994448 
L 268.869843 -65.994448 
L 269.309858 -65.994448 
L 269.749873 -65.994448 
L 270.189889 -65.994448 
L 270.629904 -65.994448 
L 271.069919 -65.994448 
L 271.509935 -65.994448 
L 271.94995 -65.994448 
L 272.389965 -65.994448 
L 272.829981 -65.994448 
L 273.269996 -65.994448 
L 273.710011 -65.994448 
L 274.150027 -65.994448 
L 274.590042 -65.994448 
L 275.030057 -65.994448 
L 275.470073 -65.994448 
L 275.910088 -65.994448 
L 276.350103 -65.994448 
L 276.790119 -65.994448 
L 277.230134 -65.994448 
L 277.670149 -65.994448 
L 278.110165 -65.994448 
L 278.55018 -65.994448 
L 278.990195 -65.994448 
L 279.430211 -65.994448 
L 279.870226 -65.994448 
L 280.310242 -65.994448 
L 280.750257 -65.994448 
L 281.190272 -65.994448 
L 281.630288 -65.994448 
L 282.070303 -65.994448 
L 282.510318 -65.994448 
L 282.950334 -65.994448 
L 283.390349 -65.994448 
L 283.830364 -65.994448 
L 284.27038 -65.994448 
L 284.710395 -65.994448 
L 285.15041 -65.994448 
L 285.590426 -65.994448 
L 286.030441 -65.994448 
L 286.470456 -65.994448 
L 286.910472 -65.994448 
L 287.350487 -65.994448 
L 287.790502 -65.994448 
L 288.230518 -65.994448 
L 288.670533 -65.994448 
L 289.110548 -65.994448 
L 289.550564 -65.994448 
L 289.990579 -65.994448 
L 290.430594 -65.994448 
L 290.87061 -65.994448 
L 291.310625 -65.994448 
L 291.75064 -65.994448 
L 292.190656 -65.994448 
L 292.630671 -65.994448 
L 293.070686 -65.994448 
L 293.510702 -65.994448 
L 293.950717 -65.994448 
L 294.390733 -65.994448 
L 294.830748 -65.994448 
L 295.270763 -65.994448 
L 295.710779 -65.994448 
L 296.150794 -65.994448 
L 296.590809 -65.994448 
L 297.030825 -65.994448 
L 297.47084 -65.994448 
L 297.910855 -65.994448 
L 298.350871 -65.994448 
L 298.790886 -65.994448 
L 299.230901 -65.994448 
L 299.670917 -65.994448 
L 300.110932 -65.994448 
L 300.550947 -65.994448 
L 300.990963 -65.994448 
L 301.430978 -65.994448 
L 301.870993 -65.994448 
L 302.311009 -65.994448 
L 302.751024 -65.994448 
L 303.191039 -65.994448 
L 303.631055 -65.994448 
L 304.07107 -65.994448 
L 304.511085 -65.994448 
L 304.951101 -65.994448 
L 305.391116 -65.994448 
L 305.831131 -65.994448 
L 306.271147 -65.994448 
L 306.711162 -65.994448 
L 307.151177 -65.994448 
L 307.591193 -65.994448 
L 308.031208 -65.994448 
L 308.471223 -65.994448 
L 308.911239 -65.994448 
L 309.351254 -65.994448 
L 309.79127 -65.994448 
L 310.231285 -65.994448 
L 310.6713 -65.994448 
L 311.111316 -65.994448 
L 311.551331 -65.994448 
L 311.991346 -65.994448 
L 312.431362 -65.994448 
L 312.871377 -65.994448 
L 313.311392 -65.994448 
L 313.751408 -65.994448 
L 314.191423 -65.994448 
L 314.631438 -65.994448 
L 315.071454 -65.994448 
L 315.511469 -65.994448 
L 315.951484 -65.994448 
L 316.3915 -65.994448 
L 316.831515 -65.994448 
L 317.27153 -65.994448 
L 317.711546 -65.994448 
L 318.151561 -65.994448 
L 318.591576 -65.994448 
L 319.031592 -65.994448 
L 319.471607 -65.994448 
L 319.911622 -65.994448 
L 320.351638 -65.994448 
L 320.791653 -65.994448 
L 321.231668 -65.994448 
L 321.671684 -65.994448 
L 322.111699 -65.994448 
L 322.551714 -65.994448 
L 322.99173 -65.994448 
L 323.431745 -65.994448 
L 323.871761 -65.994448 
L 324.311776 -65.994448 
L 324.751791 -65.994448 
L 325.191807 -65.994448 
L 325.631822 -65.994448 
L 326.071837 -65.994448 
L 326.511853 -65.994448 
L 326.951868 -65.994448 
L 327.391883 -65.994448 
L 327.831899 -65.994448 
L 328.271914 -65.994448 
L 328.711929 -65.994448 
L 329.151945 -65.994448 
L 329.59196 -65.994448 
L 330.031975 -65.994448 
L 330.471991 -65.994448 
L 330.912006 -65.994448 
L 331.352021 -65.994448 
L 331.792037 -65.994448 
L 332.232052 -65.994448 
L 332.672067 -65.994448 
L 333.112083 -65.994448 
L 333.552098 -65.994448 
L 333.992113 -65.994448 
L 334.432129 -65.994448 
L 334.872144 -65.994448 
L 335.312159 -65.994448 
L 335.752175 -65.994448 
L 336.19219 -65.994448 
L 336.632205 -65.994448 
L 337.072221 -65.994448 
L 337.512236 -65.994448 
L 337.952252 -65.994448 
L 338.392267 -65.994448 
L 338.832282 -65.994448 
L 339.272298 -65.994448 
L 339.712313 -65.994448 
L 340.152328 -65.994448 
L 340.592344 -65.994448 
L 341.032359 -65.994448 
L 341.472374 -65.994448 
L 341.91239 -65.994448 
L 342.352405 -65.994448 
L 342.79242 -65.994448 
L 343.232436 -65.994448 
L 343.672451 -65.994448 
L 344.112466 -65.994448 
L 344.552482 -65.994448 
L 344.992497 -65.994448 
L 345.432512 -65.994448 
L 345.872528 -65.994448 
L 346.312543 -65.994448 
L 346.752558 -65.994448 
L 347.192574 -65.994448 
L 347.632589 -65.994448 
L 348.072604 -65.994448 
L 348.51262 -65.994448 
L 348.952635 -65.994448 
L 349.39265 -65.994448 
L 349.832666 -65.994448 
L 350.272681 -65.994448 
L 350.712696 -65.994448 
L 351.152712 -65.994448 
L 351.592727 -65.994448 
L 352.032743 -65.994448 
L 352.472758 -65.994448 
L 352.912773 -65.994448 
L 353.352789 -65.994448 
L 353.792804 -65.994448 
L 354.232819 -65.994448 
L 354.672835 -65.994448 
L 355.11285 -65.994448 
L 355.552865 -65.994448 
L 355.992881 -65.994448 
L 356.432896 -65.994448 
L 356.872911 -65.994448 
L 357.312927 -65.994448 
L 357.752942 -65.994448 
L 358.192957 -65.994448 
L 358.632973 -65.994448 
L 359.072988 -65.994448 
L 359.513003 -65.994448 
L 359.953019 -65.994448 
L 360.393034 -65.994448 
L 360.833049 -65.994448 
L 361.273065 -65.994448 
L 361.71308 -65.994448 
L 362.153095 -65.994448 
L 362.593111 -65.994448 
L 363.033126 -65.994448 
L 363.473141 -65.994448 
L 363.913157 -65.994448 
L 364.353172 -65.994448 
L 364.793187 -65.994448 
L 365.233203 -65.994448 
L 365.673218 -65.994448 
L 366.113233 -65.994448 
L 366.553249 -65.994448 
L 366.993264 -65.994448 
L 367.43328 -65.994448 
L 367.873295 -65.994448 
L 368.31331 -65.994448 
L 368.753326 -65.994448 
L 369.193341 -65.994448 
L 369.633356 -65.994448 
L 370.073372 -65.994448 
L 370.513387 -65.994448 
L 370.953402 -65.994448 
L 371.393418 -65.994448 
L 371.833433 -65.994448 
L 372.273448 -65.994448 
L 372.713464 -65.994448 
L 373.153479 -65.994448 
L 373.593494 -65.994448 
L 374.03351 -65.994448 
L 374.473525 -65.994448 
L 374.91354 -65.994448 
L 375.353556 -65.994448 
L 375.793571 -65.994448 
L 376.233586 -65.994448 
L 376.673602 -65.994448 
L 377.113617 -65.994448 
L 377.553632 -65.994448 
L 377.993648 -65.994448 
L 378.433663 -65.994448 
L 378.873678 -65.994448 
L 379.313694 -65.994448 
L 379.753709 -65.994448 
L 380.193724 -65.994448 
L 380.63374 -65.994448 
L 381.073755 -65.994448 
L 381.513771 -65.994448 
L 381.953786 -65.994448 
L 382.393801 -65.994448 
L 382.833817 -65.994448 
L 383.273832 -65.994448 
L 383.713847 -65.994448 
L 384.153863 -65.994448 
L 384.593878 -65.994448 
L 385.033893 -65.994448 
L 385.473909 -65.994448 
L 385.913924 -65.994448 
L 386.353939 -65.994448 
L 386.793955 -65.994448 
L 387.23397 -65.994448 
L 387.673985 -65.994448 
L 388.114001 -65.994448 
L 388.554016 -65.994448 
L 388.994031 -65.994448 
L 389.434047 -65.994448 
L 389.874062 -65.994448 
L 390.314077 -65.994448 
L 390.754093 -65.994448 
L 391.194108 -65.994448 
L 391.634123 -65.994448 
L 392.074139 -65.994448 
L 392.514154 -65.994448 
L 392.954169 -65.994448 
L 393.394185 -65.994448 
L 393.8342 -65.994448 
L 394.274215 -65.994448 
L 394.714231 -65.994448 
L 395.154246 -65.994448 
L 395.594262 -65.994448 
L 396.034277 -65.994448 
L 396.474292 -65.994448 
L 396.914308 -65.994448 
L 397.354323 -65.994448 
L 397.794338 -65.994448 
L 398.234354 -65.994448 
L 398.674369 -65.994448 
L 399.114384 -65.994448 
L 399.5544 -65.994448 
L 399.994415 -65.994448 
L 400.43443 -65.994448 
L 400.874446 -65.994448 
L 401.314461 -65.994448 
L 401.754476 -65.994448 
L 402.194492 -65.994448 
L 402.634507 -65.994448 
L 403.074522 -65.994448 
L 403.514538 -65.994448 
L 403.954553 -65.994448 
L 404.394568 -65.994448 
L 404.834584 -65.994448 
L 405.274599 -65.994448 
L 405.714614 -65.994448 
L 406.15463 -65.994448 
L 406.594645 -65.994448 
L 407.03466 -65.994448 
L 407.474676 -65.994448 
L 407.914691 -65.994448 
L 408.354706 -65.994448 
L 408.794722 -65.994448 
L 409.234737 -65.994448 
L 409.674753 -65.994448 
L 410.114768 -65.994448 
L 410.554783 -65.994448 
L 410.994799 -65.994448 
L 411.434814 -65.994448 
L 411.874829 -65.994448 
L 412.314845 -65.994448 
L 412.75486 -65.994448 
L 413.194875 -65.994448 
L 413.634891 -65.994448 
L 414.074906 -65.994448 
L 414.514921 -65.994448 
L 414.954937 -65.994448 
L 415.394952 -65.994448 
L 415.834967 -65.994448 
L 416.274983 -65.994448 
L 416.714998 -65.994448 
L 417.155013 -65.994448 
L 417.595029 -65.994448 
L 418.035044 -65.994448 
L 418.475059 -65.994448 
L 418.915075 -65.994448 
L 419.35509 -65.994448 
L 419.795105 -65.994448 
L 420.235121 -65.994448 
L 420.675136 -65.994448 
L 421.115151 -65.994448 
L 421.555167 -65.994448 
L 421.995182 -65.994448 
L 422.435197 -65.994448 
L 422.875213 -65.994448 
L 423.315228 -65.994448 
L 423.755244 -65.994448 
L 424.195259 -65.994448 
L 424.635274 -65.994448 
L 425.07529 -65.994448 
L 425.515305 -65.994448 
L 425.95532 -65.994448 
L 426.395336 -65.994448 
L 426.835351 -65.994448 
L 427.275366 -65.994448 
L 427.715382 -65.994448 
L 428.155397 -65.994448 
L 428.595412 -65.994448 
L 429.035428 -65.994448 
L 429.475443 -65.994448 
L 429.915458 -65.994448 
L 430.355474 -65.994448 
L 430.795489 -65.994448 
L 431.235504 -65.994448 
L 431.67552 -65.994448 
L 432.115535 -65.994448 
L 432.55555 -65.994448 
L 432.995566 -65.994448 
L 433.435581 -65.994448 
L 433.875596 -65.994448 
L 434.315612 -65.994448 
L 434.755627 -65.994448 
L 435.195642 -65.994448 
L 435.635658 -65.994448 
L 436.075673 -65.994448 
L 436.515688 -65.994448 
L 436.955704 -65.994448 
L 437.395719 -65.994448 
L 437.835734 -65.994448 
L 438.27575 -65.994448 
L 438.715765 -65.994448 
L 439.155781 -65.994448 
L 439.595796 -65.994448 
L 440.035811 -65.994448 
L 440.475827 -65.994448 
L 440.915842 -65.994448 
L 441.355857 -65.994448 
L 441.795873 -65.994448 
L 442.235888 -65.994448 
L 442.675903 -65.994448 
L 443.115919 -65.994448 
L 443.555934 -65.994448 
L 443.995949 -65.994448 
L 444.435965 -65.994448 
L 444.87598 -65.994448 
L 445.315995 -65.994448 
L 445.756011 -65.994448 
L 446.196026 -65.994448 
L 446.636041 -65.994448 
L 447.076057 -65.994448 
L 447.516072 -65.994448 
L 447.956087 -65.994448 
L 448.396103 -65.994448 
L 448.836118 -65.994448 
L 449.276133 -65.994448 
L 449.716149 -65.994448 
L 450.156164 -65.994448 
L 450.596179 -65.994448 
L 451.036195 -65.994448 
L 451.47621 -65.994448 
L 451.916225 -65.994448 
L 452.356241 -65.994448 
L 452.796256 -65.994448 
L 453.236272 -65.994448 
L 453.676287 -65.994448 
L 454.116302 -65.994448 
L 454.556318 -65.994448 
L 454.996333 -65.994448 
L 455.436348 -65.994448 
L 455.876364 -65.994448 
L 456.316379 -65.994448 
L 456.756394 -65.994448 
L 457.19641 -65.994448 
L 457.636425 -65.994448 
L 458.07644 -65.994448 
L 458.516456 -65.994448 
L 458.956471 -65.994448 
L 459.396486 -65.994448 
L 459.836502 -65.994448 
L 460.276517 -65.994448 
L 460.716532 -65.994448 
L 461.156548 -65.994448 
L 461.596563 -65.994448 
L 462.036578 -65.994448 
L 462.476594 -65.994448 
L 462.916609 -65.994448 
L 463.356624 -65.994448 
L 463.79664 -65.994448 
L 464.236655 -65.994448 
L 464.67667 -65.994448 
L 465.116686 -65.994448 
L 465.556701 -65.994448 
L 465.996716 -65.994448 
L 466.436732 -65.994448 
L 466.876747 -65.994448 
L 467.316763 -65.994448 
L 467.756778 -65.994448 
L 468.196793 -65.994448 
L 468.636809 -65.994448 
L 469.076824 -65.994448 
L 469.516839 -65.994448 
L 469.956855 -65.994448 
L 470.39687 -65.994448 
L 470.836885 -65.994448 
L 471.276901 -65.994448 
L 471.716916 -65.994448 
L 472.156931 -65.994448 
L 472.596947 -65.994448 
L 473.036962 -65.994448 
L 473.476977 -65.994448 
L 473.916993 -65.994448 
L 474.357008 -65.994448 
L 474.797023 -65.994448 
L 475.237039 -65.994448 
L 475.677054 -65.994448 
L 476.117069 -65.994448 
L 476.557085 -65.994448 
L 476.9971 -65.994448 
L 477.437115 -65.994448 
L 477.877131 -65.994448 
L 478.317146 -65.994448 
L 478.757161 -65.994448 
L 479.197177 -65.994448 
L 479.637192 -65.994448 
L 480.077207 -65.994448 
L 480.517223 -65.994448 
L 480.957238 -65.994448 
L 481.397254 -65.994448 
L 481.837269 -65.994448 
L 482.277284 -65.994448 
L 482.7173 -65.994448 
L 483.157315 -65.994448 
L 483.59733 -65.994448 
L 484.037346 -65.994448 
L 484.477361 -65.994448 
L 484.917376 -65.994448 
L 485.357392 -65.994448 
L 485.797407 -65.994448 
L 486.237422 -65.994448 
L 486.677438 -65.994448 
L 487.117453 -65.994448 
L 487.557468 -65.994448 
L 487.997484 -65.994448 
L 488.437499 -65.994448 
L 488.877514 -65.994448 
L 489.31753 -65.994448 
L 489.757545 -65.994448 
L 490.19756 -65.994448 
L 490.637576 -65.994448 
L 491.077591 -65.994448 
L 491.517606 -65.994448 
L 491.957622 -65.994448 
L 492.397637 -65.994448 
L 492.837652 -65.994448 
L 493.277668 -65.994448 
L 493.717683 -65.994448 
L 494.157698 -65.994448 
L 494.597714 -65.994448 
L 495.037729 -65.994448 
L 495.477744 -65.994448 
L 495.91776 -65.994448 
L 496.357775 -65.994448 
L 496.797791 -65.994448 
L 497.237806 -65.994448 
L 497.677821 -65.994448 
L 498.117837 -65.994448 
L 498.557852 -65.994448 
L 498.997867 -65.994448 
L 499.437883 -65.994448 
L 499.877898 -65.994448 
L 500.317913 -65.994448 
L 500.757929 -65.994448 
L 501.197944 -65.994448 
L 501.637959 -65.994448 
L 502.077975 -65.994448 
L 502.51799 -65.994448 
L 502.958005 -65.994448 
L 503.398021 -65.994448 
L 503.838036 -65.994448 
L 504.278051 -65.994448 
L 504.718067 -65.994448 
L 505.158082 -65.994448 
L 505.598097 -65.994448 
L 506.038113 -65.994448 
L 506.478128 -65.994448 
L 506.918143 -65.994448 
L 507.358159 -65.994448 
L 507.798174 -65.994448 
L 508.238189 -65.994448 
L 508.678205 -65.994448 
L 509.11822 -65.994448 
L 509.558235 -65.994448 
L 509.998251 -65.994448 
L 510.438266 -65.994448 
L 510.878282 -65.994448 
L 511.318297 -65.994448 
L 511.758312 -65.994448 
L 512.198328 -65.994448 
L 512.638343 -65.994448 
L 513.078358 -65.994448 
L 513.518374 -65.994448 
L 513.958389 -65.994448 
L 514.398404 -65.994448 
L 514.83842 -65.994448 
L 515.278435 -65.994448 
L 515.71845 -65.994448 
L 516.158466 -65.994448 
L 516.598481 -65.994448 
L 517.038496 -65.994448 
L 517.478512 -65.994448 
L 517.918527 -65.994448 
L 518.358542 -65.994448 
L 518.798558 -65.994448 
L 519.238573 -65.994448 
L 519.678588 -65.994448 
L 520.118604 -65.994448 
L 520.558619 -65.994448 
L 520.998634 -65.994448 
L 521.43865 -65.994448 
L 521.878665 -65.994448 
L 522.31868 -65.994448 
L 522.758696 -65.994448 
L 523.198711 -65.994448 
L 523.638726 -65.994448 
L 524.078742 -65.994448 
L 524.518757 -65.994448 
L 524.958773 -65.994448 
L 525.398788 -65.994448 
L 525.838803 -65.994448 
L 526.278819 -65.994448 
L 526.718834 -65.994448 
L 527.158849 -65.994448 
L 527.598865 -65.994448 
L 528.03888 -65.994448 
L 528.478895 -65.994448 
L 528.918911 -65.994448 
L 529.358926 -65.994448 
L 529.798941 -65.994448 
L 530.238957 -65.994448 
L 530.678972 -65.994448 
L 531.118987 -65.994448 
L 531.559003 -65.994448 
L 531.999018 -65.994448 
L 532.439033 -65.994448 
L 532.879049 -65.994448 
L 533.319064 -65.994448 
L 533.759079 -65.994448 
L 534.199095 -65.994448 
L 534.63911 -65.994448 
L 535.079125 -65.994448 
L 535.519141 -65.994448 
L 535.959156 -65.994448 
L 536.399171 -65.994448 
L 536.839187 -65.994448 
L 537.279202 -65.994448 
L 537.719217 -65.994448 
L 538.159233 -65.994448 
L 538.159233 -153.997516 
L 538.159233 -153.997516 
L 537.719217 -153.997516 
L 537.279202 -153.997516 
L 536.839187 -153.997516 
L 536.399171 -153.997516 
L 535.959156 -153.997516 
L 535.519141 -153.997516 
L 535.079125 -153.997516 
L 534.63911 -153.997516 
L 534.199095 -153.997516 
L 533.759079 -153.997516 
L 533.319064 -153.997516 
L 532.879049 -153.997516 
L 532.439033 -153.997516 
L 531.999018 -153.997516 
L 531.559003 -153.997516 
L 531.118987 -153.997516 
L 530.678972 -153.997516 
L 530.238957 -153.997516 
L 529.798941 -153.997516 
L 529.358926 -153.997516 
L 528.918911 -153.997516 
L 528.478895 -153.997516 
L 528.03888 -153.997516 
L 527.598865 -153.997516 
L 527.158849 -153.997516 
L 526.718834 -153.997516 
L 526.278819 -153.997516 
L 525.838803 -153.997516 
L 525.398788 -153.997516 
L 524.958773 -153.997516 
L 524.518757 -153.997516 
L 524.078742 -153.997516 
L 523.638726 -153.997516 
L 523.198711 -153.997516 
L 522.758696 -153.997516 
L 522.31868 -153.997516 
L 521.878665 -153.997516 
L 521.43865 -153.997516 
L 520.998634 -153.997516 
L 520.558619 -153.997516 
L 520.118604 -153.997516 
L 519.678588 -153.997516 
L 519.238573 -153.997516 
L 518.798558 -153.997516 
L 518.358542 -153.997516 
L 517.918527 -153.997516 
L 517.478512 -153.997516 
L 517.038496 -153.997516 
L 516.598481 -153.997516 
L 516.158466 -153.997516 
L 515.71845 -153.997516 
L 515.278435 -153.997516 
L 514.83842 -153.997516 
L 514.398404 -153.997516 
L 513.958389 -153.997516 
L 513.518374 -153.997516 
L 513.078358 -153.997516 
L 512.638343 -153.997516 
L 512.198328 -153.997516 
L 511.758312 -153.997516 
L 511.318297 -153.997516 
L 510.878282 -153.997516 
L 510.438266 -153.997516 
L 509.998251 -153.997516 
L 509.558235 -153.997516 
L 509.11822 -153.997516 
L 508.678205 -153.997516 
L 508.238189 -153.997516 
L 507.798174 -153.997516 
L 507.358159 -153.997516 
L 506.918143 -153.997516 
L 506.478128 -153.997516 
L 506.038113 -153.997516 
L 505.598097 -153.997516 
L 505.158082 -153.997516 
L 504.718067 -153.997516 
L 504.278051 -153.997516 
L 503.838036 -153.997516 
L 503.398021 -153.997516 
L 502.958005 -153.997516 
L 502.51799 -153.997516 
L 502.077975 -153.997516 
L 501.637959 -153.997516 
L 501.197944 -153.997516 
L 500.757929 -153.997516 
L 500.317913 -153.997516 
L 499.877898 -153.997516 
L 499.437883 -153.997516 
L 498.997867 -153.997516 
L 498.557852 -153.997516 
L 498.117837 -153.997516 
L 497.677821 -153.997516 
L 497.237806 -153.997516 
L 496.797791 -153.997516 
L 496.357775 -153.997516 
L 495.91776 -153.997516 
L 495.477744 -153.997516 
L 495.037729 -153.997516 
L 494.597714 -153.997516 
L 494.157698 -153.997516 
L 493.717683 -153.997516 
L 493.277668 -153.997516 
L 492.837652 -153.997516 
L 492.397637 -153.997516 
L 491.957622 -153.997516 
L 491.517606 -153.997516 
L 491.077591 -153.997516 
L 490.637576 -153.997516 
L 490.19756 -153.997516 
L 489.757545 -153.997516 
L 489.31753 -153.997516 
L 488.877514 -153.997516 
L 488.437499 -153.997516 
L 487.997484 -153.997516 
L 487.557468 -153.997516 
L 487.117453 -153.997516 
L 486.677438 -153.997516 
L 486.237422 -153.997516 
L 485.797407 -153.997516 
L 485.357392 -153.997516 
L 484.917376 -153.997516 
L 484.477361 -153.997516 
L 484.037346 -153.997516 
L 483.59733 -153.997516 
L 483.157315 -153.997516 
L 482.7173 -153.997516 
L 482.277284 -153.997516 
L 481.837269 -153.997516 
L 481.397254 -153.997516 
L 480.957238 -153.997516 
L 480.517223 -153.997516 
L 480.077207 -153.997516 
L 479.637192 -153.997516 
L 479.197177 -153.997516 
L 478.757161 -153.997516 
L 478.317146 -153.997516 
L 477.877131 -153.997516 
L 477.437115 -153.997516 
L 476.9971 -153.997516 
L 476.557085 -153.997516 
L 476.117069 -153.997516 
L 475.677054 -153.997516 
L 475.237039 -153.997516 
L 474.797023 -153.997516 
L 474.357008 -153.997516 
L 473.916993 -153.997516 
L 473.476977 -153.997516 
L 473.036962 -153.997516 
L 472.596947 -153.997516 
L 472.156931 -153.997516 
L 471.716916 -153.997516 
L 471.276901 -153.997516 
L 470.836885 -153.997516 
L 470.39687 -153.997516 
L 469.956855 -153.997516 
L 469.516839 -153.997516 
L 469.076824 -153.997516 
L 468.636809 -153.997516 
L 468.196793 -153.997516 
L 467.756778 -153.997516 
L 467.316763 -153.997516 
L 466.876747 -153.997516 
L 466.436732 -153.997516 
L 465.996716 -153.997516 
L 465.556701 -153.997516 
L 465.116686 -153.997516 
L 464.67667 -153.997516 
L 464.236655 -153.997516 
L 463.79664 -153.997516 
L 463.356624 -153.997516 
L 462.916609 -153.997516 
L 462.476594 -153.997516 
L 462.036578 -153.997516 
L 461.596563 -153.997516 
L 461.156548 -153.997516 
L 460.716532 -153.997516 
L 460.276517 -153.997516 
L 459.836502 -153.997516 
L 459.396486 -153.997516 
L 458.956471 -154.085829 
L 458.516456 -154.21198 
L 458.07644 -154.338492 
L 457.636425 -154.465366 
L 457.19641 -154.592603 
L 456.756394 -154.720204 
L 456.316379 -154.84817 
L 455.876364 -154.976503 
L 455.436348 -155.105202 
L 454.996333 -155.23427 
L 454.556318 -155.363707 
L 454.116302 -155.493515 
L 453.676287 -155.623693 
L 453.236272 -155.754245 
L 452.796256 -155.88517 
L 452.356241 -156.016469 
L 451.916225 -156.148144 
L 451.47621 -156.280196 
L 451.036195 -156.412626 
L 450.596179 -156.545434 
L 450.156164 -156.678623 
L 449.716149 -156.812193 
L 449.276133 -156.946144 
L 448.836118 -157.08048 
L 448.396103 -157.215199 
L 447.956087 -157.350304 
L 447.516072 -157.485796 
L 447.076057 -157.621675 
L 446.636041 -157.757943 
L 446.196026 -157.894601 
L 445.756011 -158.03165 
L 445.315995 -158.169091 
L 444.87598 -158.306925 
L 444.435965 -158.445153 
L 443.995949 -158.583778 
L 443.555934 -158.722798 
L 443.115919 -158.862217 
L 442.675903 -159.002034 
L 442.235888 -159.142252 
L 441.795873 -159.282871 
L 441.355857 -159.423892 
L 440.915842 -159.565316 
L 440.475827 -159.707145 
L 440.035811 -159.84938 
L 439.595796 -159.992022 
L 439.155781 -160.135072 
L 438.715765 -160.278532 
L 438.27575 -160.422402 
L 437.835734 -160.566683 
L 437.395719 -160.711378 
L 436.955704 -160.856486 
L 436.515688 -161.002009 
L 436.075673 -161.147949 
L 435.635658 -161.294307 
L 435.195642 -161.441083 
L 434.755627 -161.588279 
L 434.315612 -161.735896 
L 433.875596 -161.883936 
L 433.435581 -162.032399 
L 432.995566 -162.181288 
L 432.55555 -162.330602 
L 432.115535 -162.480343 
L 431.67552 -162.630513 
L 431.235504 -162.781112 
L 430.795489 -162.932142 
L 430.355474 -163.083605 
L 429.915458 -163.235501 
L 429.475443 -163.387831 
L 429.035428 -163.540597 
L 428.595412 -163.693801 
L 428.155397 -163.847442 
L 427.715382 -164.001524 
L 427.275366 -164.156046 
L 426.835351 -164.31101 
L 426.395336 -164.466418 
L 425.95532 -164.62227 
L 425.515305 -164.778569 
L 425.07529 -164.935314 
L 424.635274 -165.092508 
L 424.195259 -165.250152 
L 423.755244 -165.408247 
L 423.315228 -165.566794 
L 422.875213 -165.725795 
L 422.435197 -165.88525 
L 421.995182 -166.045162 
L 421.555167 -166.205532 
L 421.115151 -166.36636 
L 420.675136 -166.527649 
L 420.235121 -166.689399 
L 419.795105 -166.851611 
L 419.35509 -167.014288 
L 418.915075 -167.177431 
L 418.475059 -167.34104 
L 418.035044 -167.505117 
L 417.595029 -167.669664 
L 417.155013 -167.834682 
L 416.714998 -168.000171 
L 416.274983 -168.166135 
L 415.834967 -168.332573 
L 415.394952 -168.499487 
L 414.954937 -168.666879 
L 414.514921 -168.83475 
L 414.074906 -169.003101 
L 413.634891 -169.171934 
L 413.194875 -169.34125 
L 412.75486 -169.51105 
L 412.314845 -169.681336 
L 411.874829 -169.85211 
L 411.434814 -170.023372 
L 410.994799 -170.195124 
L 410.554783 -170.367367 
L 410.114768 -170.540104 
L 409.674753 -170.713334 
L 409.234737 -170.88706 
L 408.794722 -171.061284 
L 408.354706 -171.236005 
L 407.914691 -171.411227 
L 407.474676 -171.58695 
L 407.03466 -171.763176 
L 406.594645 -172.239866 
L 406.15463 -172.640506 
L 405.714614 -173.041708 
L 405.274599 -173.443449 
L 404.834584 -173.845707 
L 404.394568 -174.248459 
L 403.954553 -174.651683 
L 403.514538 -175.055355 
L 403.074522 -175.459452 
L 402.634507 -175.863952 
L 402.194492 -176.26883 
L 401.754476 -176.674063 
L 401.314461 -177.079627 
L 400.874446 -177.485499 
L 400.43443 -177.891653 
L 399.994415 -178.298066 
L 399.5544 -178.704713 
L 399.114384 -179.111569 
L 398.674369 -179.51861 
L 398.234354 -179.92581 
L 397.794338 -180.333144 
L 397.354323 -180.740587 
L 396.914308 -181.148113 
L 396.474292 -181.555697 
L 396.034277 -181.963313 
L 395.594262 -182.370934 
L 395.154246 -182.778536 
L 394.714231 -183.18609 
L 394.274215 -183.593572 
L 393.8342 -184.000954 
L 393.394185 -184.40821 
L 392.954169 -184.815312 
L 392.514154 -185.222235 
L 392.074139 -185.62895 
L 391.634123 -186.035432 
L 391.194108 -186.441651 
L 390.754093 -186.847581 
L 390.314077 -187.253195 
L 389.874062 -187.658464 
L 389.434047 -188.06336 
L 388.994031 -188.467857 
L 388.554016 -188.871925 
L 388.114001 -189.275537 
L 387.673985 -189.678665 
L 387.23397 -190.081279 
L 386.793955 -190.483352 
L 386.353939 -190.884855 
L 385.913924 -191.28576 
L 385.473909 -191.686038 
L 385.033893 -192.08566 
L 384.593878 -192.484597 
L 384.153863 -192.88282 
L 383.713847 -193.280301 
L 383.273832 -193.677009 
L 382.833817 -194.072918 
L 382.393801 -194.467996 
L 381.953786 -194.862214 
L 381.513771 -195.255544 
L 381.073755 -195.647957 
L 380.63374 -196.039421 
L 380.193724 -196.42991 
L 379.753709 -196.819391 
L 379.313694 -197.207837 
L 378.873678 -197.595218 
L 378.433663 -197.981504 
L 377.993648 -198.366665 
L 377.553632 -198.750673 
L 377.113617 -199.133496 
L 376.673602 -199.515106 
L 376.233586 -199.895473 
L 375.793571 -200.274567 
L 375.353556 -200.652359 
L 374.91354 -201.028818 
L 374.473525 -201.403916 
L 374.03351 -201.777622 
L 373.593494 -202.149907 
L 373.153479 -202.520741 
L 372.713464 -202.890095 
L 372.273448 -203.257939 
L 371.833433 -203.624244 
L 371.393418 -203.988979 
L 370.953402 -204.352116 
L 370.513387 -204.713624 
L 370.073372 -205.073475 
L 369.633356 -205.43164 
L 369.193341 -205.788088 
L 368.753326 -206.142791 
L 368.31331 -206.495719 
L 367.873295 -206.846843 
L 367.43328 -207.196134 
L 366.993264 -207.543564 
L 366.553249 -207.889103 
L 366.113233 -208.232722 
L 365.673218 -208.574393 
L 365.233203 -208.914086 
L 364.793187 -209.251774 
L 364.353172 -209.587428 
L 363.913157 -209.921019 
L 363.473141 -210.25252 
L 363.033126 -210.581901 
L 362.593111 -210.909135 
L 362.153095 -211.234194 
L 361.71308 -211.557051 
L 361.273065 -211.877676 
L 360.833049 -212.196043 
L 360.393034 -212.512125 
L 359.953019 -212.825893 
L 359.513003 -213.137322 
L 359.072988 -213.446383 
L 358.632973 -213.75305 
L 358.192957 -214.057296 
L 357.752942 -214.359094 
L 357.312927 -214.658418 
L 356.872911 -214.955242 
L 356.432896 -215.24954 
L 355.992881 -215.541286 
L 355.552865 -215.830453 
L 355.11285 -216.117017 
L 354.672835 -216.400951 
L 354.232819 -216.682231 
L 353.792804 -216.960832 
L 353.352789 -217.236729 
L 352.912773 -217.509897 
L 352.472758 -217.780311 
L 352.032743 -218.047948 
L 351.592727 -218.312783 
L 351.152712 -218.574793 
L 350.712696 -218.833954 
L 350.272681 -219.090242 
L 349.832666 -219.343634 
L 349.39265 -219.594108 
L 348.952635 -219.841641 
L 348.51262 -220.086209 
L 348.072604 -220.327792 
L 347.632589 -220.566366 
L 347.192574 -220.80191 
L 346.752558 -221.034403 
L 346.312543 -221.263823 
L 345.872528 -221.490149 
L 345.432512 -221.713361 
L 344.992497 -221.933437 
L 344.552482 -222.150358 
L 344.112466 -222.364103 
L 343.672451 -222.574653 
L 343.232436 -222.781989 
L 342.79242 -222.98609 
L 342.352405 -223.186939 
L 341.91239 -223.384516 
L 341.472374 -223.578804 
L 341.032359 -223.769783 
L 340.592344 -223.957437 
L 340.152328 -224.141748 
L 339.712313 -224.322698 
L 339.272298 -224.500271 
L 338.832282 -224.67445 
L 338.392267 -224.845218 
L 337.952252 -225.01256 
L 337.512236 -225.176461 
L 337.072221 -225.336904 
L 336.632205 -225.493874 
L 336.19219 -225.647357 
L 335.752175 -225.797338 
L 335.312159 -225.943804 
L 334.872144 -226.08674 
L 334.432129 -226.226132 
L 333.992113 -226.361968 
L 333.552098 -226.494235 
L 333.112083 -226.62292 
L 332.672067 -226.748011 
L 332.232052 -226.869497 
L 331.792037 -226.987365 
L 331.352021 -227.101604 
L 330.912006 -227.212204 
L 330.471991 -227.319154 
L 330.031975 -227.422444 
L 329.59196 -227.522063 
L 329.151945 -227.618004 
L 328.711929 -227.710256 
L 328.271914 -227.79881 
L 327.831899 -227.883659 
L 327.391883 -227.964793 
L 326.951868 -228.042206 
L 326.511853 -228.11589 
L 326.071837 -228.185838 
L 325.631822 -228.252043 
L 325.191807 -228.314498 
L 324.751791 -228.373199 
L 324.311776 -228.428139 
L 323.871761 -228.479312 
L 323.431745 -228.526715 
L 322.99173 -228.570342 
L 322.551714 -228.61019 
L 322.111699 -228.646254 
L 321.671684 -228.678532 
L 321.231668 -228.707019 
L 320.791653 -228.731713 
L 320.351638 -228.752613 
L 319.911622 -228.769715 
L 319.471607 -228.783018 
L 319.031592 -228.792522 
L 318.591576 -228.798224 
L 318.151561 -228.800125 
L 317.711546 -228.798224 
L 317.27153 -228.792522 
L 316.831515 -228.783018 
L 316.3915 -228.769715 
L 315.951484 -228.752613 
L 315.511469 -228.731713 
L 315.071454 -228.707019 
L 314.631438 -228.678532 
L 314.191423 -228.646254 
L 313.751408 -228.61019 
L 313.311392 -228.570342 
L 312.871377 -228.526715 
L 312.431362 -228.479312 
L 311.991346 -228.428139 
L 311.551331 -228.373199 
L 311.111316 -228.314498 
L 310.6713 -228.252043 
L 310.231285 -228.185838 
L 309.79127 -228.11589 
L 309.351254 -228.042206 
L 308.911239 -227.964793 
L 308.471223 -227.883659 
L 308.031208 -227.79881 
L 307.591193 -227.710256 
L 307.151177 -227.618004 
L 306.711162 -227.522063 
L 306.271147 -227.422444 
L 305.831131 -227.319154 
L 305.391116 -227.212204 
L 304.951101 -227.101604 
L 304.511085 -226.987365 
L 304.07107 -226.869497 
L 303.631055 -226.748011 
L 303.191039 -226.62292 
L 302.751024 -226.494235 
L 302.311009 -226.361968 
L 301.870993 -226.226132 
L 301.430978 -226.08674 
L 300.990963 -225.943804 
L 300.550947 -225.797338 
L 300.110932 -225.647357 
L 299.670917 -225.493874 
L 299.230901 -225.336904 
L 298.790886 -225.176461 
L 298.350871 -225.01256 
L 297.910855 -224.845218 
L 297.47084 -224.67445 
L 297.030825 -224.500271 
L 296.590809 -224.322698 
L 296.150794 -224.141748 
L 295.710779 -223.957437 
L 295.270763 -223.769783 
L 294.830748 -223.578804 
L 294.390733 -223.384516 
L 293.950717 -223.186939 
L 293.510702 -222.98609 
L 293.070686 -222.781989 
L 292.630671 -222.574653 
L 292.190656 -222.364103 
L 291.75064 -222.150358 
L 291.310625 -221.933437 
L 290.87061 -221.713361 
L 290.430594 -221.490149 
L 289.990579 -221.263823 
L 289.550564 -221.034403 
L 289.110548 -220.80191 
L 288.670533 -220.566366 
L 288.230518 -220.327792 
L 287.790502 -220.086209 
L 287.350487 -219.841641 
L 286.910472 -219.594108 
L 286.470456 -219.343634 
L 286.030441 -219.090242 
L 285.590426 -218.833954 
L 285.15041 -218.574793 
L 284.710395 -218.312783 
L 284.27038 -218.047948 
L 283.830364 -217.780311 
L 283.390349 -217.509897 
L 282.950334 -217.236729 
L 282.510318 -216.960832 
L 282.070303 -216.682231 
L 281.630288 -216.400951 
L 281.190272 -216.117017 
L 280.750257 -215.830453 
L 280.310242 -215.541286 
L 279.870226 -215.24954 
L 279.430211 -214.955242 
L 278.990195 -214.658418 
L 278.55018 -214.359094 
L 278.110165 -214.057296 
L 277.670149 -213.75305 
L 277.230134 -213.446383 
L 276.790119 -213.137322 
L 276.350103 -212.825893 
L 275.910088 -212.512125 
L 275.470073 -212.196043 
L 275.030057 -211.877676 
L 274.590042 -211.557051 
L 274.150027 -211.234194 
L 273.710011 -210.909135 
L 273.269996 -210.581901 
L 272.829981 -210.25252 
L 272.389965 -209.921019 
L 271.94995 -209.587428 
L 271.509935 -209.251774 
L 271.069919 -208.914086 
L 270.629904 -208.574393 
L 270.189889 -208.232722 
L 269.749873 -207.889103 
L 269.309858 -207.543564 
L 268.869843 -207.196134 
L 268.429827 -206.846843 
L 267.989812 -206.495719 
L 267.549797 -206.142791 
L 267.109781 -205.788088 
L 266.669766 -205.43164 
L 266.229751 -205.073475 
L 265.789735 -204.713624 
L 265.34972 -204.352116 
L 264.909704 -203.988979 
L 264.469689 -203.624244 
L 264.029674 -203.257939 
L 263.589658 -202.890095 
L 263.149643 -202.520741 
L 262.709628 -202.149907 
L 262.269612 -201.777622 
L 261.829597 -201.403916 
L 261.389582 -201.028818 
L 260.949566 -200.652359 
L 260.509551 -200.274567 
L 260.069536 -199.895473 
L 259.62952 -199.515106 
L 259.189505 -199.133496 
L 258.74949 -198.750673 
L 258.309474 -198.366665 
L 257.869459 -197.981504 
L 257.429444 -197.595218 
L 256.989428 -197.207837 
L 256.549413 -196.819391 
L 256.109398 -196.42991 
L 255.669382 -196.039421 
L 255.229367 -195.647957 
L 254.789352 -195.255544 
L 254.349336 -194.862214 
L 253.909321 -194.467996 
L 253.469306 -194.072918 
L 253.02929 -193.677009 
L 252.589275 -193.280301 
L 252.14926 -192.88282 
L 251.709244 -192.484597 
L 251.269229 -192.08566 
L 250.829213 -191.686038 
L 250.389198 -191.28576 
L 249.949183 -190.884855 
L 249.509167 -190.483352 
L 249.069152 -190.081279 
L 248.629137 -189.678665 
L 248.189121 -189.275537 
L 247.749106 -188.871925 
L 247.309091 -188.467857 
L 246.869075 -188.06336 
L 246.42906 -187.658464 
L 245.989045 -187.253195 
L 245.549029 -186.847581 
L 245.109014 -186.441651 
L 244.668999 -186.035432 
L 244.228983 -185.62895 
L 243.788968 -185.222235 
L 243.348953 -184.815312 
L 242.908937 -184.40821 
L 242.468922 -184.000954 
L 242.028907 -183.593572 
L 241.588891 -183.18609 
L 241.148876 -182.778536 
L 240.708861 -182.370934 
L 240.268845 -181.963313 
L 239.82883 -181.555697 
L 239.388815 -181.148113 
L 238.948799 -180.740587 
L 238.508784 -180.333144 
L 238.068769 -179.92581 
L 237.628753 -179.51861 
L 237.188738 -179.111569 
L 236.748722 -178.704713 
L 236.308707 -178.298066 
L 235.868692 -177.891653 
L 235.428676 -177.485499 
L 234.988661 -177.079627 
L 234.548646 -176.674063 
L 234.10863 -176.26883 
L 233.668615 -175.863952 
L 233.2286 -175.459452 
L 232.788584 -175.055355 
L 232.348569 -174.651683 
L 231.908554 -174.248459 
L 231.468538 -173.845707 
L 231.028523 -173.443449 
L 230.588508 -173.041708 
L 230.148492 -172.640506 
L 229.708477 -172.239866 
L 229.268462 -171.763176 
L 228.828446 -171.58695 
L 228.388431 -171.411227 
L 227.948416 -171.236005 
L 227.5084 -171.061284 
L 227.068385 -170.88706 
L 226.62837 -170.713334 
L 226.188354 -170.540104 
L 225.748339 -170.367367 
L 225.308324 -170.195124 
L 224.868308 -170.023372 
L 224.428293 -169.85211 
L 223.988278 -169.681336 
L 223.548262 -169.51105 
L 223.108247 -169.34125 
L 222.668232 -169.171934 
L 222.228216 -169.003101 
L 221.788201 -168.83475 
L 221.348185 -168.666879 
L 220.90817 -168.499487 
L 220.468155 -168.332573 
L 220.028139 -168.166135 
L 219.588124 -168.000171 
L 219.148109 -167.834682 
L 218.708093 -167.669664 
L 218.268078 -167.505117 
L 217.828063 -167.34104 
L 217.388047 -167.177431 
L 216.948032 -167.014288 
L 216.508017 -166.851611 
L 216.068001 -166.689399 
L 215.627986 -166.527649 
L 215.187971 -166.36636 
L 214.747955 -166.205532 
L 214.30794 -166.045162 
L 213.867925 -165.88525 
L 213.427909 -165.725795 
L 212.987894 -165.566794 
L 212.547879 -165.408247 
L 212.107863 -165.250152 
L 211.667848 -165.092508 
L 211.227833 -164.935314 
L 210.787817 -164.778569 
L 210.347802 -164.62227 
L 209.907787 -164.466418 
L 209.467771 -164.31101 
L 209.027756 -164.156046 
L 208.587741 -164.001524 
L 208.147725 -163.847442 
L 207.70771 -163.693801 
L 207.267694 -163.540597 
L 206.827679 -163.387831 
L 206.387664 -163.235501 
L 205.947648 -163.083605 
L 205.507633 -162.932142 
L 205.067618 -162.781112 
L 204.627602 -162.630513 
L 204.187587 -162.480343 
L 203.747572 -162.330602 
L 203.307556 -162.181288 
L 202.867541 -162.032399 
L 202.427526 -161.883936 
L 201.98751 -161.735896 
L 201.547495 -161.588279 
L 201.10748 -161.441083 
L 200.667464 -161.294307 
L 200.227449 -161.147949 
L 199.787434 -161.002009 
L 199.347418 -160.856486 
L 198.907403 -160.711378 
L 198.467388 -160.566683 
L 198.027372 -160.422402 
L 197.587357 -160.278532 
L 197.147342 -160.135072 
L 196.707326 -159.992022 
L 196.267311 -159.84938 
L 195.827296 -159.707145 
L 195.38728 -159.565316 
L 194.947265 -159.423892 
L 194.50725 -159.282871 
L 194.067234 -159.142252 
L 193.627219 -159.002034 
L 193.187203 -158.862217 
L 192.747188 -158.722798 
L 192.307173 -158.583778 
L 191.867157 -158.445153 
L 191.427142 -158.306925 
L 190.987127 -158.169091 
L 190.547111 -158.03165 
L 190.107096 -157.894601 
L 189.667081 -157.757943 
L 189.227065 -157.621675 
L 188.78705 -157.485796 
L 188.347035 -157.350304 
L 187.907019 -157.215199 
L 187.467004 -157.08048 
L 187.026989 -156.946144 
L 186.586973 -156.812193 
L 186.146958 -156.678623 
L 185.706943 -156.545434 
L 185.266927 -156.412626 
L 184.826912 -156.280196 
L 184.386897 -156.148144 
L 183.946881 -156.016469 
L 183.506866 -155.88517 
L 183.066851 -155.754245 
L 182.626835 -155.623693 
L 182.18682 -155.493515 
L 181.746805 -155.363707 
L 181.306789 -155.23427 
L 180.866774 -155.105202 
L 180.426759 -154.976503 
L 179.986743 -154.84817 
L 179.546728 -154.720204 
L 179.106712 -154.592603 
L 178.666697 -154.465366 
L 178.226682 -154.338492 
L 177.786666 -154.21198 
L 177.346651 -154.085829 
L 176.906636 -153.997516 
L 176.46662 -153.997516 
L 176.026605 -153.997516 
L 175.58659 -153.997516 
L 175.146574 -153.997516 
L 174.706559 -153.997516 
L 174.266544 -153.997516 
L 173.826528 -153.997516 
L 173.386513 -153.997516 
L 172.946498 -153.997516 
L 172.506482 -153.997516 
L 172.066467 -153.997516 
L 171.626452 -153.997516 
L 171.186436 -153.997516 
L 170.746421 -153.997516 
L 170.306406 -153.997516 
L 169.86639 -153.997516 
L 169.426375 -153.997516 
L 168.98636 -153.997516 
L 168.546344 -153.997516 
L 168.106329 -153.997516 
L 167.666314 -153.997516 
L 167.226298 -153.997516 
L 166.786283 -153.997516 
L 166.346268 -153.997516 
L 165.906252 -153.997516 
L 165.466237 -153.997516 
L 165.026222 -153.997516 
L 164.586206 -153.997516 
L 164.146191 -153.997516 
L 163.706175 -153.997516 
L 163.26616 -153.997516 
L 162.826145 -153.997516 
L 162.386129 -153.997516 
L 161.946114 -153.997516 
L 161.506099 -153.997516 
L 161.066083 -153.997516 
L 160.626068 -153.997516 
L 160.186053 -153.997516 
L 159.746037 -153.997516 
L 159.306022 -153.997516 
L 158.866007 -153.997516 
L 158.425991 -153.997516 
L 157.985976 -153.997516 
L 157.545961 -153.997516 
L 157.105945 -153.997516 
L 156.66593 -153.997516 
L 156.225915 -153.997516 
L 155.785899 -153.997516 
L 155.345884 -153.997516 
L 154.905869 -153.997516 
L 154.465853 -153.997516 
L 154.025838 -153.997516 
L 153.585823 -153.997516 
L 153.145807 -153.997516 
L 152.705792 -153.997516 
L 152.265777 -153.997516 
L 151.825761 -153.997516 
L 151.385746 -153.997516 
L 150.945731 -153.997516 
L 150.505715 -153.997516 
L 150.0657 -153.997516 
L 149.625684 -153.997516 
L 149.185669 -153.997516 
L 148.745654 -153.997516 
L 148.305638 -153.997516 
L 147.865623 -153.997516 
L 147.425608 -153.997516 
L 146.985592 -153.997516 
L 146.545577 -153.997516 
L 146.105562 -153.997516 
L 145.665546 -153.997516 
L 145.225531 -153.997516 
L 144.785516 -153.997516 
L 144.3455 -153.997516 
L 143.905485 -153.997516 
L 143.46547 -153.997516 
L 143.025454 -153.997516 
L 142.585439 -153.997516 
L 142.145424 -153.997516 
L 141.705408 -153.997516 
L 141.265393 -153.997516 
L 140.825378 -153.997516 
L 140.385362 -153.997516 
L 139.945347 -153.997516 
L 139.505332 -153.997516 
L 139.065316 -153.997516 
L 138.625301 -153.997516 
L 138.185286 -153.997516 
L 137.74527 -153.997516 
L 137.305255 -153.997516 
L 136.86524 -153.997516 
L 136.425224 -153.997516 
L 135.985209 -153.997516 
L 135.545193 -153.997516 
L 135.105178 -153.997516 
L 134.665163 -153.997516 
L 134.225147 -153.997516 
L 133.785132 -153.997516 
L 133.345117 -153.997516 
L 132.905101 -153.997516 
L 132.465086 -153.997516 
L 132.025071 -153.997516 
L 131.585055 -153.997516 
L 131.14504 -153.997516 
L 130.705025 -153.997516 
L 130.265009 -153.997516 
L 129.824994 -153.997516 
L 129.384979 -153.997516 
L 128.944963 -153.997516 
L 128.504948 -153.997516 
L 128.064933 -153.997516 
L 127.624917 -153.997516 
L 127.184902 -153.997516 
L 126.744887 -153.997516 
L 126.304871 -153.997516 
L 125.864856 -153.997516 
L 125.424841 -153.997516 
L 124.984825 -153.997516 
L 124.54481 -153.997516 
L 124.104795 -153.997516 
L 123.664779 -153.997516 
L 123.224764 -153.997516 
L 122.784749 -153.997516 
L 122.344733 -153.997516 
L 121.904718 -153.997516 
L 121.464702 -153.997516 
L 121.024687 -153.997516 
L 120.584672 -153.997516 
L 120.144656 -153.997516 
L 119.704641 -153.997516 
L 119.264626 -153.997516 
L 118.82461 -153.997516 
L 118.384595 -153.997516 
L 117.94458 -153.997516 
L 117.504564 -153.997516 
L 117.064549 -153.997516 
L 116.624534 -153.997516 
L 116.184518 -153.997516 
L 115.744503 -153.997516 
L 115.304488 -153.997516 
L 114.864472 -153.997516 
L 114.424457 -153.997516 
L 113.984442 -153.997516 
L 113.544426 -153.997516 
L 113.104411 -153.997516 
L 112.664396 -153.997516 
L 112.22438 -153.997516 
L 111.784365 -153.997516 
L 111.34435 -153.997516 
L 110.904334 -153.997516 
L 110.464319 -153.997516 
L 110.024304 -153.997516 
L 109.584288 -153.997516 
L 109.144273 -153.997516 
L 108.704258 -153.997516 
L 108.264242 -153.997516 
L 107.824227 -153.997516 
L 107.384211 -153.997516 
L 106.944196 -153.997516 
L 106.504181 -153.997516 
L 106.064165 -153.997516 
L 105.62415 -153.997516 
L 105.184135 -153.997516 
L 104.744119 -153.997516 
L 104.304104 -153.997516 
L 103.864089 -153.997516 
L 103.424073 -153.997516 
L 102.984058 -153.997516 
L 102.544043 -153.997516 
L 102.104027 -153.997516 
L 101.664012 -153.997516 
L 101.223997 -153.997516 
L 100.783981 -153.997516 
L 100.343966 -153.997516 
L 99.903951 -153.997516 
L 99.463935 -153.997516 
L 99.02392 -153.997516 
L 98.583905 -153.997516 
L 98.143889 -153.997516 
z
" style="stroke: #bfbfbe; stroke-width: 0.24"/>
    </defs>
    <g clip-path="url(#p9587cc4903)">
     <use xlink:href="#m46f6fe5de8" x="0" y="383.76" style="fill: #bfbfbe; stroke: #bfbfbe; stroke-width: 0.24"/>
    </g>
   </g>
   <g id="matplotlib.axis_1">
    <g id="xtick_1">
     <g id="line2d_1">
      <defs>
       <path id="m8bcf163daf" d="M 0 0 
L 0 3.5 
" style="stroke: #000000; stroke-width: 0.8"/>
      </defs>
      <g>
       <use xlink:href="#m8bcf163daf" x="142.145424" y="325.789332" style="stroke: #000000; stroke-width: 0.8"/>
      </g>
     </g>
     <g id="text_1">
      <!-- $\mathdefault{0.4}$ -->
      <g transform="translate(125.974664 345.95892) scale(0.16 -0.16)">
       <defs>
        <path id="CMSY10-0" d="M 4218 1472 
C 4326 1472 4442 1472 4442 1600 
C 4442 1728 4326 1728 4218 1728 
L 755 1728 
C 646 1728 531 1728 531 1600 
C 531 1472 646 1472 755 1472 
L 4218 1472 
z
" transform="scale(0.015625)"/>
        <path id="CMR17-30" d="M 2688 2025 
C 2688 2416 2682 3080 2413 3591 
C 2176 4039 1798 4198 1466 4198 
C 1158 4198 768 4058 525 3597 
C 269 3118 243 2524 243 2025 
C 243 1661 250 1106 448 619 
C 723 -39 1216 -128 1466 -128 
C 1760 -128 2208 -7 2470 600 
C 2662 1042 2688 1559 2688 2025 
z
M 1466 -26 
C 1056 -26 813 325 723 812 
C 653 1188 653 1738 653 2096 
C 653 2588 653 2997 736 3387 
C 858 3929 1216 4096 1466 4096 
C 1728 4096 2067 3923 2189 3400 
C 2272 3036 2278 2607 2278 2096 
C 2278 1680 2278 1169 2202 792 
C 2067 95 1690 -26 1466 -26 
z
" transform="scale(0.015625)"/>
        <path id="CMMI12-3a" d="M 1178 307 
C 1178 492 1024 619 870 619 
C 685 619 557 466 557 313 
C 557 128 710 0 864 0 
C 1050 0 1178 153 1178 307 
z
" transform="scale(0.015625)"/>
        <path id="CMR17-34" d="M 2150 4122 
C 2150 4256 2144 4256 2029 4256 
L 128 1254 
L 128 1088 
L 1779 1088 
L 1779 457 
C 1779 224 1766 160 1318 160 
L 1197 160 
L 1197 0 
C 1402 0 1747 0 1965 0 
C 2182 0 2528 0 2733 0 
L 2733 160 
L 2611 160 
C 2163 160 2150 224 2150 457 
L 2150 1088 
L 2803 1088 
L 2803 1254 
L 2150 1254 
L 2150 4122 
z
M 1798 3703 
L 1798 1254 
L 256 1254 
L 1798 3703 
z
" transform="scale(0.015625)"/>
       </defs>
       <use xlink:href="#CMSY10-0" transform="scale(0.996264)"/>
       <use xlink:href="#CMR17-30" transform="translate(77.487468 0) scale(0.996264)"/>
       <use xlink:href="#CMMI12-3a" transform="translate(123.177945 0) scale(0.996264)"/>
       <use xlink:href="#CMR17-34" transform="translate(150.275122 0) scale(0.996264)"/>
      </g>
     </g>
    </g>
    <g id="xtick_2">
     <g id="line2d_2">
      <g>
       <use xlink:href="#m8bcf163daf" x="230.148492" y="325.789332" style="stroke: #000000; stroke-width: 0.8"/>
      </g>
     </g>
     <g id="text_2">
      <!-- $\mathdefault{0.2}$ -->
      <g transform="translate(213.977733 345.95892) scale(0.16 -0.16)">
       <defs>
        <path id="CMR17-32" d="M 2669 989 
L 2554 989 
C 2490 536 2438 459 2413 420 
C 2381 369 1920 369 1830 369 
L 602 369 
C 832 619 1280 1072 1824 1597 
C 2214 1967 2669 2402 2669 3035 
C 2669 3790 2067 4224 1395 4224 
C 691 4224 262 3604 262 3030 
C 262 2780 448 2748 525 2748 
C 589 2748 781 2787 781 3010 
C 781 3207 614 3264 525 3264 
C 486 3264 448 3258 422 3245 
C 544 3790 915 4058 1306 4058 
C 1862 4058 2227 3617 2227 3035 
C 2227 2479 1901 2000 1536 1584 
L 262 146 
L 262 0 
L 2515 0 
L 2669 989 
z
" transform="scale(0.015625)"/>
       </defs>
       <use xlink:href="#CMSY10-0" transform="scale(0.996264)"/>
       <use xlink:href="#CMR17-30" transform="translate(77.487468 0) scale(0.996264)"/>
       <use xlink:href="#CMMI12-3a" transform="translate(123.177945 0) scale(0.996264)"/>
       <use xlink:href="#CMR17-32" transform="translate(150.275122 0) scale(0.996264)"/>
      </g>
     </g>
    </g>
    <g id="xtick_3">
     <g id="line2d_3">
      <g>
       <use xlink:href="#m8bcf163daf" x="318.151561" y="325.789332" style="stroke: #000000; stroke-width: 0.8"/>
      </g>
     </g>
     <g id="text_3">
      <!-- $\mathdefault{0.0}$ -->
      <g transform="translate(308.1798 345.95892) scale(0.16 -0.16)">
       <use xlink:href="#CMR17-30" transform="scale(0.996264)"/>
       <use xlink:href="#CMMI12-3a" transform="translate(45.690477 0) scale(0.996264)"/>
       <use xlink:href="#CMR17-30" transform="translate(72.787654 0) scale(0.996264)"/>
      </g>
     </g>
    </g>
    <g id="xtick_4">
     <g id="line2d_4">
      <g>
       <use xlink:href="#m8bcf163daf" x="406.15463" y="325.789332" style="stroke: #000000; stroke-width: 0.8"/>
      </g>
     </g>
     <g id="text_4">
      <!-- $\mathdefault{0.2}$ -->
      <g transform="translate(396.182869 345.95892) scale(0.16 -0.16)">
       <use xlink:href="#CMR17-30" transform="scale(0.996264)"/>
       <use xlink:href="#CMMI12-3a" transform="translate(45.690477 0) scale(0.996264)"/>
       <use xlink:href="#CMR17-32" transform="translate(72.787654 0) scale(0.996264)"/>
      </g>
     </g>
    </g>
    <g id="xtick_5">
     <g id="line2d_5">
      <g>
       <use xlink:href="#m8bcf163daf" x="494.157698" y="325.789332" style="stroke: #000000; stroke-width: 0.8"/>
      </g>
     </g>
     <g id="text_5">
      <!-- $\mathdefault{0.4}$ -->
      <g transform="translate(484.185937 345.95892) scale(0.16 -0.16)">
       <use xlink:href="#CMR17-30" transform="scale(0.996264)"/>
       <use xlink:href="#CMMI12-3a" transform="translate(45.690477 0) scale(0.996264)"/>
       <use xlink:href="#CMR17-34" transform="translate(72.787654 0) scale(0.996264)"/>
      </g>
     </g>
    </g>
    <g id="text_6">
     <!-- x (km) -->
     <g transform="translate(293.478719 368.491816) scale(0.18 -0.18)">
      <defs>
       <path id="CMR17-78" d="M 1664 1477 
C 1856 1726 2074 2006 2253 2216 
C 2464 2458 2707 2560 2989 2560 
L 2989 2726 
C 2880 2726 2656 2726 2541 2726 
C 2368 2726 2170 2726 2022 2732 
L 2022 2566 
C 2112 2553 2163 2489 2163 2400 
C 2163 2285 2099 2215 2067 2171 
L 1594 1573 
L 1030 2306 
C 973 2376 973 2388 973 2420 
C 973 2497 1037 2560 1146 2560 
L 1146 2732 
C 992 2726 717 2726 557 2726 
C 384 2726 179 2726 38 2732 
L 38 2560 
C 384 2560 461 2534 614 2343 
L 1350 1395 
C 1363 1382 1395 1344 1395 1325 
C 1395 1299 838 619 768 530 
C 480 185 179 160 6 160 
L 6 0 
C 115 0 339 0 454 0 
C 582 0 864 0 979 -6 
L 979 160 
C 941 166 838 179 838 325 
C 838 440 890 510 947 586 
L 1478 1236 
L 2035 512 
C 2086 442 2163 346 2163 301 
C 2163 211 2086 160 1984 160 
L 1984 -6 
C 2138 0 2413 0 2573 0 
C 2746 0 2950 0 3091 -6 
L 3091 160 
C 2771 160 2675 172 2522 370 
L 1664 1477 
z
" transform="scale(0.015625)"/>
       <path id="CMR17-28" d="M 1958 -1561 
C 1958 -1555 1958 -1542 1939 -1523 
C 1645 -1224 858 -407 858 1581 
C 858 3569 1632 4379 1946 4697 
C 1946 4704 1958 4717 1958 4736 
C 1958 4755 1939 4768 1914 4768 
C 1843 4768 1299 4296 986 3594 
C 666 2887 576 2199 576 1588 
C 576 1128 621 351 1005 -471 
C 1312 -1135 1837 -1600 1914 -1600 
C 1946 -1600 1958 -1587 1958 -1561 
z
" transform="scale(0.015625)"/>
       <path id="CMR17-6b" d="M 1670 1673 
C 1664 1686 1632 1724 1632 1743 
C 1632 1756 2086 2171 2144 2222 
C 2509 2528 2739 2560 2906 2560 
L 2906 2733 
C 2867 2733 2854 2733 2848 2720 
L 2534 2720 
C 2355 2720 2080 2720 1907 2733 
L 1907 2566 
C 1997 2559 2061 2508 2061 2419 
C 2061 2291 1933 2170 1926 2170 
L 960 1289 
L 960 4396 
L 198 4326 
L 198 4160 
C 576 4160 634 4122 634 3817 
L 634 426 
C 634 184 608 153 198 153 
L 198 -13 
C 352 0 634 0 794 0 
C 954 0 1235 0 1389 -13 
L 1389 153 
C 979 153 954 178 954 428 
L 954 1130 
L 1395 1532 
L 2042 574 
C 2118 459 2182 369 2182 286 
C 2182 172 2067 153 1990 153 
L 1990 -13 
C 2144 0 2419 0 2579 0 
C 2694 0 2931 0 3040 0 
L 3040 153 
C 2739 153 2669 210 2477 491 
L 1670 1673 
z
" transform="scale(0.015625)"/>
       <path id="CMR17-6d" d="M 4326 1933 
C 4326 2252 4269 2790 3507 2790 
C 3072 2790 2771 2496 2656 2151 
L 2650 2151 
C 2573 2676 2195 2790 1837 2790 
C 1331 2790 1069 2400 973 2144 
L 966 2144 
L 966 2790 
L 211 2720 
L 211 2554 
C 589 2554 646 2515 646 2208 
L 646 428 
C 646 184 621 153 211 153 
L 211 -13 
C 365 0 646 0 813 0 
C 979 0 1267 0 1421 -13 
L 1421 153 
C 1011 153 986 178 986 428 
L 986 1658 
C 986 2247 1344 2688 1792 2688 
C 2266 2688 2317 2266 2317 1958 
L 2317 428 
C 2317 184 2291 153 1882 153 
L 1882 -13 
C 2035 0 2317 0 2483 0 
C 2650 0 2938 0 3091 -13 
L 3091 153 
C 2682 153 2656 178 2656 428 
L 2656 1658 
C 2656 2247 3014 2688 3462 2688 
C 3936 2688 3987 2266 3987 1958 
L 3987 428 
C 3987 184 3962 153 3552 153 
L 3552 -13 
C 3706 0 3987 0 4154 0 
C 4320 0 4608 0 4762 -13 
L 4762 153 
C 4352 153 4326 178 4326 428 
L 4326 1933 
z
" transform="scale(0.015625)"/>
       <path id="CMR17-29" d="M 1683 1581 
C 1683 2040 1638 2817 1254 3639 
C 947 4303 422 4768 346 4768 
C 326 4768 301 4761 301 4729 
C 301 4717 307 4710 314 4697 
C 621 4378 1402 3568 1402 1584 
C 1402 -407 627 -1217 314 -1537 
C 307 -1549 301 -1556 301 -1568 
C 301 -1600 326 -1600 346 -1600 
C 416 -1600 960 -1128 1274 -426 
C 1594 281 1683 969 1683 1581 
z
" transform="scale(0.015625)"/>
      </defs>
      <use xlink:href="#CMR17-78" transform="scale(0.996264)"/>
      <use xlink:href="#CMR17-28" transform="translate(78.368882 0) scale(0.996264)"/>
      <use xlink:href="#CMR17-6b" transform="translate(113.64965 0) scale(0.996264)"/>
      <use xlink:href="#CMR17-6d" transform="translate(161.942566 0) scale(0.996264)"/>
      <use xlink:href="#CMR17-29" transform="translate(238.862156 0) scale(0.996264)"/>
     </g>
    </g>
   </g>
   <g id="matplotlib.axis_2">
    <g id="ytick_1">
     <g id="line2d_6">
      <defs>
       <path id="ma10f6849ce" d="M 0 0 
L -3.5 0 
" style="stroke: #000000; stroke-width: 0.8"/>
      </defs>
      <g>
       <use xlink:href="#ma10f6849ce" x="76.143122" y="317.765552" style="stroke: #000000; stroke-width: 0.8"/>
      </g>
     </g>
     <g id="text_7">
      <!-- $\mathdefault{0.1}$ -->
      <g transform="translate(34.701604 323.300346) scale(0.16 -0.16)">
       <defs>
        <path id="CMR17-31" d="M 1702 4058 
C 1702 4192 1696 4192 1606 4192 
C 1357 3916 979 3827 621 3827 
C 602 3827 570 3827 563 3808 
C 557 3795 557 3782 557 3648 
C 755 3648 1088 3686 1344 3839 
L 1344 461 
C 1344 236 1331 160 781 160 
L 589 160 
L 589 0 
C 896 0 1216 0 1523 0 
C 1830 0 2150 0 2458 0 
L 2458 160 
L 2266 160 
C 1715 160 1702 230 1702 458 
L 1702 4058 
z
" transform="scale(0.015625)"/>
       </defs>
       <use xlink:href="#CMSY10-0" transform="scale(0.996264)"/>
       <use xlink:href="#CMR17-30" transform="translate(77.487468 0) scale(0.996264)"/>
       <use xlink:href="#CMMI12-3a" transform="translate(123.177945 0) scale(0.996264)"/>
       <use xlink:href="#CMR17-31" transform="translate(150.275122 0) scale(0.996264)"/>
      </g>
     </g>
    </g>
    <g id="ytick_2">
     <g id="line2d_7">
      <g>
       <use xlink:href="#ma10f6849ce" x="76.143122" y="273.764018" style="stroke: #000000; stroke-width: 0.8"/>
      </g>
     </g>
     <g id="text_8">
      <!-- $\mathdefault{0.0}$ -->
      <g transform="translate(47.0996 279.298812) scale(0.16 -0.16)">
       <use xlink:href="#CMR17-30" transform="scale(0.996264)"/>
       <use xlink:href="#CMMI12-3a" transform="translate(45.690477 0) scale(0.996264)"/>
       <use xlink:href="#CMR17-30" transform="translate(72.787654 0) scale(0.996264)"/>
      </g>
     </g>
    </g>
    <g id="ytick_3">
     <g id="line2d_8">
      <g>
       <use xlink:href="#ma10f6849ce" x="76.143122" y="229.762484" style="stroke: #000000; stroke-width: 0.8"/>
      </g>
     </g>
     <g id="text_9">
      <!-- $\mathdefault{0.1}$ -->
      <g transform="translate(47.0996 235.297278) scale(0.16 -0.16)">
       <use xlink:href="#CMR17-30" transform="scale(0.996264)"/>
       <use xlink:href="#CMMI12-3a" transform="translate(45.690477 0) scale(0.996264)"/>
       <use xlink:href="#CMR17-31" transform="translate(72.787654 0) scale(0.996264)"/>
      </g>
     </g>
    </g>
    <g id="ytick_4">
     <g id="line2d_9">
      <g>
       <use xlink:href="#ma10f6849ce" x="76.143122" y="185.760949" style="stroke: #000000; stroke-width: 0.8"/>
      </g>
     </g>
     <g id="text_10">
      <!-- $\mathdefault{0.2}$ -->
      <g transform="translate(47.0996 191.295743) scale(0.16 -0.16)">
       <use xlink:href="#CMR17-30" transform="scale(0.996264)"/>
       <use xlink:href="#CMMI12-3a" transform="translate(45.690477 0) scale(0.996264)"/>
       <use xlink:href="#CMR17-32" transform="translate(72.787654 0) scale(0.996264)"/>
      </g>
     </g>
    </g>
    <g id="ytick_5">
     <g id="line2d_10">
      <g>
       <use xlink:href="#ma10f6849ce" x="76.143122" y="141.759415" style="stroke: #000000; stroke-width: 0.8"/>
      </g>
     </g>
     <g id="text_11">
      <!-- $\mathdefault{0.3}$ -->
      <g transform="translate(47.0996 147.294209) scale(0.16 -0.16)">
       <defs>
        <path id="CMR17-33" d="M 1414 2157 
C 1984 2157 2234 1662 2234 1090 
C 2234 320 1824 25 1453 25 
C 1114 25 563 194 390 693 
C 422 680 454 680 486 680 
C 640 680 755 782 755 948 
C 755 1133 614 1216 486 1216 
C 378 1216 211 1165 211 926 
C 211 335 787 -128 1466 -128 
C 2176 -128 2720 430 2720 1085 
C 2720 1707 2208 2157 1600 2227 
C 2086 2328 2554 2756 2554 3329 
C 2554 3820 2048 4179 1472 4179 
C 890 4179 378 3829 378 3329 
C 378 3110 544 3072 627 3072 
C 762 3072 877 3155 877 3321 
C 877 3486 762 3569 627 3569 
C 602 3569 570 3569 544 3557 
C 730 3959 1235 4032 1459 4032 
C 1683 4032 2106 3925 2106 3320 
C 2106 3143 2080 2828 1862 2550 
C 1670 2304 1453 2304 1242 2284 
C 1210 2284 1062 2269 1037 2269 
C 992 2263 966 2257 966 2208 
C 966 2163 973 2157 1101 2157 
L 1414 2157 
z
" transform="scale(0.015625)"/>
       </defs>
       <use xlink:href="#CMR17-30" transform="scale(0.996264)"/>
       <use xlink:href="#CMMI12-3a" transform="translate(45.690477 0) scale(0.996264)"/>
       <use xlink:href="#CMR17-33" transform="translate(72.787654 0) scale(0.996264)"/>
      </g>
     </g>
    </g>
    <g id="ytick_6">
     <g id="line2d_11">
      <g>
       <use xlink:href="#ma10f6849ce" x="76.143122" y="97.757881" style="stroke: #000000; stroke-width: 0.8"/>
      </g>
     </g>
     <g id="text_12">
      <!-- $\mathdefault{0.4}$ -->
      <g transform="translate(47.0996 103.292675) scale(0.16 -0.16)">
       <use xlink:href="#CMR17-30" transform="scale(0.996264)"/>
       <use xlink:href="#CMMI12-3a" transform="translate(45.690477 0) scale(0.996264)"/>
       <use xlink:href="#CMR17-34" transform="translate(72.787654 0) scale(0.996264)"/>
      </g>
     </g>
    </g>
    <g id="ytick_7">
     <g id="line2d_12">
      <g>
       <use xlink:href="#ma10f6849ce" x="76.143122" y="53.756346" style="stroke: #000000; stroke-width: 0.8"/>
      </g>
     </g>
     <g id="text_13">
      <!-- $\mathdefault{0.5}$ -->
      <g transform="translate(47.0996 59.29114) scale(0.16 -0.16)">
       <defs>
        <path id="CMR17-35" d="M 730 3692 
C 794 3666 1056 3584 1325 3584 
C 1920 3584 2246 3911 2432 4100 
C 2432 4157 2432 4192 2394 4192 
C 2387 4192 2374 4192 2323 4163 
C 2099 4058 1837 3973 1517 3973 
C 1325 3973 1037 3999 723 4139 
C 653 4171 640 4171 634 4171 
C 602 4171 595 4164 595 4037 
L 595 2203 
C 595 2089 595 2057 659 2057 
C 691 2057 704 2070 736 2114 
C 941 2401 1222 2522 1542 2522 
C 1766 2522 2246 2382 2246 1289 
C 2246 1085 2246 715 2054 421 
C 1894 159 1645 25 1370 25 
C 947 25 518 320 403 814 
C 429 807 480 795 506 795 
C 589 795 749 840 749 1038 
C 749 1210 627 1280 506 1280 
C 358 1280 262 1190 262 1011 
C 262 454 704 -128 1382 -128 
C 2042 -128 2669 440 2669 1264 
C 2669 2030 2170 2624 1549 2624 
C 1222 2624 947 2503 730 2274 
L 730 3692 
z
" transform="scale(0.015625)"/>
       </defs>
       <use xlink:href="#CMR17-30" transform="scale(0.996264)"/>
       <use xlink:href="#CMMI12-3a" transform="translate(45.690477 0) scale(0.996264)"/>
       <use xlink:href="#CMR17-35" transform="translate(72.787654 0) scale(0.996264)"/>
      </g>
     </g>
    </g>
    <g id="text_14">
     <!-- z (km) -->
     <g transform="translate(24.23342 194.330605) rotate(-90) scale(0.18 -0.18)">
      <defs>
       <path id="CMR17-7a" d="M 2310 2605 
C 2362 2670 2362 2682 2362 2695 
C 2362 2752 2336 2752 2221 2752 
L 275 2752 
L 211 1760 
L 326 1760 
C 371 2381 442 2650 1178 2650 
L 1958 2650 
L 128 96 
C 128 0 134 0 269 0 
L 2291 0 
L 2381 1152 
L 2266 1152 
C 2214 442 2131 115 1350 115 
L 531 115 
L 2310 2605 
z
" transform="scale(0.015625)"/>
      </defs>
      <use xlink:href="#CMR17-7a" transform="scale(0.996264)"/>
      <use xlink:href="#CMR17-28" transform="translate(70.561627 0) scale(0.996264)"/>
      <use xlink:href="#CMR17-6b" transform="translate(105.842395 0) scale(0.996264)"/>
      <use xlink:href="#CMR17-6d" transform="translate(154.13531 0) scale(0.996264)"/>
      <use xlink:href="#CMR17-29" transform="translate(231.0549 0) scale(0.996264)"/>
     </g>
    </g>
   </g>
   <g id="patch_4">
    <path d="M 76.143122 325.789332 
L 76.143122 14.931493 
" style="fill: none; stroke: #000000; stroke-width: 0.8; stroke-linejoin: miter; stroke-linecap: square"/>
   </g>
   <g id="patch_5">
    <path d="M 560.16 325.789332 
L 560.16 14.931493 
" style="fill: none; stroke: #000000; stroke-width: 0.8; stroke-linejoin: miter; stroke-linecap: square"/>
   </g>
   <g id="patch_6">
    <path d="M 76.143122 325.789332 
L 560.16 325.789332 
" style="fill: none; stroke: #000000; stroke-width: 0.8; stroke-linejoin: miter; stroke-linecap: square"/>
   </g>
   <g id="patch_7">
    <path d="M 76.143122 14.931493 
L 560.16 14.931493 
" style="fill: none; stroke: #000000; stroke-width: 0.8; stroke-linejoin: miter; stroke-linecap: square"/>
   </g>
  </g>
 </g>
 <defs>
  <clipPath id="p9587cc4903">
   <rect x="76.143122" y="14.931493" width="484.016878" height="310.857839"/>
  </clipPath>
 </defs>
</svg>
