<?xml version="1.0" encoding="utf-8" standalone="no"?>
<!DOCTYPE svg PUBLIC "-//W3C//DTD SVG 1.1//EN"
  "http://www.w3.org/Graphics/SVG/1.1/DTD/svg11.dtd">
<svg xmlns:xlink="http://www.w3.org/1999/xlink" width="430.56pt" height="380.88pt" viewBox="0 0 430.56 380.88" xmlns="http://www.w3.org/2000/svg" version="1.1">
 <metadata>
  <rdf:RDF xmlns:dc="http://purl.org/dc/elements/1.1/" xmlns:cc="http://creativecommons.org/ns#" xmlns:rdf="http://www.w3.org/1999/02/22-rdf-syntax-ns#">
   <cc:Work>
    <dc:type rdf:resource="http://purl.org/dc/dcmitype/StillImage"/>
    <dc:date>2025-09-22T16:01:52.844318</dc:date>
    <dc:format>image/svg+xml</dc:format>
    <dc:creator>
     <cc:Agent>
      <dc:title>Matplotlib v3.9.2, https://matplotlib.org/</dc:title>
     </cc:Agent>
    </dc:creator>
   </cc:Work>
  </rdf:RDF>
 </metadata>
 <defs>
  <style type="text/css">*{stroke-linejoin: round; stroke-linecap: butt}</style>
 </defs>
 <g id="figure_1">
  <g id="patch_1">
   <path d="M 0 380.88 
L 430.56 380.88 
L 430.56 0 
L 0 0 
z
" style="fill: #ffffff"/>
  </g>
  <g id="axes_1">
   <g id="patch_2">
    <path d="M 71.807574 322.909332 
L 419.76 322.909332 
L 419.76 10.8 
L 71.807574 10.8 
z
" style="fill: #ffffff"/>
   </g>
   <g id="patch_3">
    <path d="M 84.370024 263.024393 
L 86.631793 263.024393 
L 86.631793 198.911242 
L 84.370024 198.911242 
z
" clip-path="url(#p97d28d502d)" style="fill: #544942"/>
   </g>
   <g id="patch_4">
    <path d="M 84.370024 198.911242 
L 86.631793 198.911242 
L 86.631793 134.79809 
L 84.370024 134.79809 
z
" clip-path="url(#p97d28d502d)" style="fill: #544942"/>
   </g>
   <g id="patch_5">
    <path d="M 84.370024 134.79809 
L 86.631793 134.79809 
L 86.631793 70.684939 
L 84.370024 70.684939 
z
" clip-path="url(#p97d28d502d)" style="fill: #544942"/>
   </g>
   <g id="patch_6">
    <path d="M 191.225276 263.024393 
L 193.487046 263.024393 
L 193.487046 198.911242 
L 191.225276 198.911242 
z
" clip-path="url(#p97d28d502d)" style="fill: #544942"/>
   </g>
   <g id="patch_7">
    <path d="M 191.225276 198.911242 
L 193.487046 198.911242 
L 193.487046 134.79809 
L 191.225276 134.79809 
z
" clip-path="url(#p97d28d502d)" style="fill: #544942"/>
   </g>
   <g id="patch_8">
    <path d="M 191.225276 134.79809 
L 193.487046 134.79809 
L 193.487046 70.684939 
L 191.225276 70.684939 
z
" clip-path="url(#p97d28d502d)" style="fill: #544942"/>
   </g>
   <g id="patch_9">
    <path d="M 298.080528 263.024393 
L 300.342298 263.024393 
L 300.342298 198.911242 
L 298.080528 198.911242 
z
" clip-path="url(#p97d28d502d)" style="fill: #544942"/>
   </g>
   <g id="patch_10">
    <path d="M 298.080528 198.911242 
L 300.342298 198.911242 
L 300.342298 134.79809 
L 298.080528 134.79809 
z
" clip-path="url(#p97d28d502d)" style="fill: #544942"/>
   </g>
   <g id="patch_11">
    <path d="M 298.080528 134.79809 
L 300.342298 134.79809 
L 300.342298 70.684939 
L 298.080528 70.684939 
z
" clip-path="url(#p97d28d502d)" style="fill: #544942"/>
   </g>
   <g id="patch_12">
    <path d="M 404.93578 263.024393 
L 407.19755 263.024393 
L 407.19755 198.911242 
L 404.93578 198.911242 
z
" clip-path="url(#p97d28d502d)" style="fill: #544942"/>
   </g>
   <g id="patch_13">
    <path d="M 404.93578 198.911242 
L 407.19755 198.911242 
L 407.19755 134.79809 
L 404.93578 134.79809 
z
" clip-path="url(#p97d28d502d)" style="fill: #544942"/>
   </g>
   <g id="patch_14">
    <path d="M 404.93578 134.79809 
L 407.19755 134.79809 
L 407.19755 70.684939 
L 404.93578 70.684939 
z
" clip-path="url(#p97d28d502d)" style="fill: #544942"/>
   </g>
   <g id="patch_15">
    <path d="M 236.879183 282.614522 
L 254.688391 282.614522 
L 254.688391 51.094809 
L 236.879183 51.094809 
z
" clip-path="url(#p97d28d502d)" style="fill: #272727"/>
   </g>
   <g id="matplotlib.axis_1">
    <g id="xtick_1">
     <g id="line2d_1">
      <defs>
       <path id="md97c55f32f" d="M 0 0 
L 0 3.5 
" style="stroke: #000000; stroke-width: 0.8"/>
      </defs>
      <g>
       <use xlink:href="#md97c55f32f" x="156.737743" y="322.909332" style="stroke: #000000; stroke-width: 0.8"/>
      </g>
     </g>
     <g id="text_1">
      <!-- $\mathdefault{−50}$ -->
      <g transform="translate(142.734758 343.07892) scale(0.16 -0.16)">
       <defs>
        <path id="CMSY10-0" d="M 4218 1472 
C 4326 1472 4442 1472 4442 1600 
C 4442 1728 4326 1728 4218 1728 
L 755 1728 
C 646 1728 531 1728 531 1600 
C 531 1472 646 1472 755 1472 
L 4218 1472 
z
" transform="scale(0.015625)"/>
        <path id="CMR17-35" d="M 730 3692 
C 794 3666 1056 3584 1325 3584 
C 1920 3584 2246 3911 2432 4100 
C 2432 4157 2432 4192 2394 4192 
C 2387 4192 2374 4192 2323 4163 
C 2099 4058 1837 3973 1517 3973 
C 1325 3973 1037 3999 723 4139 
C 653 4171 640 4171 634 4171 
C 602 4171 595 4164 595 4037 
L 595 2203 
C 595 2089 595 2057 659 2057 
C 691 2057 704 2070 736 2114 
C 941 2401 1222 2522 1542 2522 
C 1766 2522 2246 2382 2246 1289 
C 2246 1085 2246 715 2054 421 
C 1894 159 1645 25 1370 25 
C 947 25 518 320 403 814 
C 429 807 480 795 506 795 
C 589 795 749 840 749 1038 
C 749 1210 627 1280 506 1280 
C 358 1280 262 1190 262 1011 
C 262 454 704 -128 1382 -128 
C 2042 -128 2669 440 2669 1264 
C 2669 2030 2170 2624 1549 2624 
C 1222 2624 947 2503 730 2274 
L 730 3692 
z
" transform="scale(0.015625)"/>
        <path id="CMR17-30" d="M 2688 2025 
C 2688 2416 2682 3080 2413 3591 
C 2176 4039 1798 4198 1466 4198 
C 1158 4198 768 4058 525 3597 
C 269 3118 243 2524 243 2025 
C 243 1661 250 1106 448 619 
C 723 -39 1216 -128 1466 -128 
C 1760 -128 2208 -7 2470 600 
C 2662 1042 2688 1559 2688 2025 
z
M 1466 -26 
C 1056 -26 813 325 723 812 
C 653 1188 653 1738 653 2096 
C 653 2588 653 2997 736 3387 
C 858 3929 1216 4096 1466 4096 
C 1728 4096 2067 3923 2189 3400 
C 2272 3036 2278 2607 2278 2096 
C 2278 1680 2278 1169 2202 792 
C 2067 95 1690 -26 1466 -26 
z
" transform="scale(0.015625)"/>
       </defs>
       <use xlink:href="#CMSY10-0" transform="scale(0.996264)"/>
       <use xlink:href="#CMR17-35" transform="translate(77.487468 0) scale(0.996264)"/>
       <use xlink:href="#CMR17-30" transform="translate(123.177945 0) scale(0.996264)"/>
      </g>
     </g>
    </g>
    <g id="xtick_2">
     <g id="line2d_2">
      <g>
       <use xlink:href="#md97c55f32f" x="245.783787" y="322.909332" style="stroke: #000000; stroke-width: 0.8"/>
      </g>
     </g>
     <g id="text_2">
      <!-- $\mathdefault{0}$ -->
      <g transform="translate(241.881793 343.07892) scale(0.16 -0.16)">
       <use xlink:href="#CMR17-30" transform="scale(0.996264)"/>
      </g>
     </g>
    </g>
    <g id="xtick_3">
     <g id="line2d_3">
      <g>
       <use xlink:href="#md97c55f32f" x="334.82983" y="322.909332" style="stroke: #000000; stroke-width: 0.8"/>
      </g>
     </g>
     <g id="text_3">
      <!-- $\mathdefault{50}$ -->
      <g transform="translate(327.025843 343.07892) scale(0.16 -0.16)">
       <use xlink:href="#CMR17-35" transform="scale(0.996264)"/>
       <use xlink:href="#CMR17-30" transform="translate(45.690477 0) scale(0.996264)"/>
      </g>
     </g>
    </g>
    <g id="text_4">
     <!-- y (cm) -->
     <g transform="translate(221.813594 365.611816) scale(0.18 -0.18)">
      <defs>
       <path id="CMR17-79" d="M 2496 2197 
C 2656 2586 2944 2586 3034 2586 
L 3034 2752 
C 2912 2752 2752 2752 2630 2752 
C 2496 2752 2285 2752 2157 2758 
L 2157 2592 
C 2400 2573 2406 2394 2406 2343 
C 2406 2280 2394 2248 2362 2171 
L 1664 449 
L 902 2306 
C 870 2382 870 2426 870 2433 
C 870 2573 1018 2586 1171 2586 
L 1171 2758 
C 1018 2752 742 2752 582 2752 
C 410 2752 205 2752 64 2758 
L 64 2586 
C 410 2586 448 2554 531 2350 
L 1485 15 
C 1197 -738 1030 -1178 627 -1178 
C 557 -1178 397 -1159 282 -1044 
C 429 -1031 493 -942 493 -833 
C 493 -725 416 -629 288 -629 
C 147 -629 77 -725 77 -840 
C 77 -1095 339 -1280 627 -1280 
C 998 -1280 1229 -922 1357 -604 
L 2496 2197 
z
" transform="scale(0.015625)"/>
       <path id="CMR17-28" d="M 1958 -1561 
C 1958 -1555 1958 -1542 1939 -1523 
C 1645 -1224 858 -407 858 1581 
C 858 3569 1632 4379 1946 4697 
C 1946 4704 1958 4717 1958 4736 
C 1958 4755 1939 4768 1914 4768 
C 1843 4768 1299 4296 986 3594 
C 666 2887 576 2199 576 1588 
C 576 1128 621 351 1005 -471 
C 1312 -1135 1837 -1600 1914 -1600 
C 1946 -1600 1958 -1587 1958 -1561 
z
" transform="scale(0.015625)"/>
       <path id="CMR17-63" d="M 2234 2240 
C 2112 2240 1933 2240 1933 2017 
C 1933 1838 2080 1787 2163 1787 
C 2208 1787 2394 1807 2394 2024 
C 2394 2467 1958 2803 1466 2803 
C 787 2803 211 2178 211 1363 
C 211 516 813 -64 1466 -64 
C 2259 -64 2458 677 2458 748 
C 2458 774 2451 793 2406 793 
C 2362 793 2355 787 2330 703 
C 2163 180 1798 51 1523 51 
C 1114 51 621 427 621 1369 
C 621 2338 1094 2688 1472 2688 
C 1722 2688 2093 2573 2234 2240 
z
" transform="scale(0.015625)"/>
       <path id="CMR17-6d" d="M 4326 1933 
C 4326 2252 4269 2790 3507 2790 
C 3072 2790 2771 2496 2656 2151 
L 2650 2151 
C 2573 2676 2195 2790 1837 2790 
C 1331 2790 1069 2400 973 2144 
L 966 2144 
L 966 2790 
L 211 2720 
L 211 2554 
C 589 2554 646 2515 646 2208 
L 646 428 
C 646 184 621 153 211 153 
L 211 -13 
C 365 0 646 0 813 0 
C 979 0 1267 0 1421 -13 
L 1421 153 
C 1011 153 986 178 986 428 
L 986 1658 
C 986 2247 1344 2688 1792 2688 
C 2266 2688 2317 2266 2317 1958 
L 2317 428 
C 2317 184 2291 153 1882 153 
L 1882 -13 
C 2035 0 2317 0 2483 0 
C 2650 0 2938 0 3091 -13 
L 3091 153 
C 2682 153 2656 178 2656 428 
L 2656 1658 
C 2656 2247 3014 2688 3462 2688 
C 3936 2688 3987 2266 3987 1958 
L 3987 428 
C 3987 184 3962 153 3552 153 
L 3552 -13 
C 3706 0 3987 0 4154 0 
C 4320 0 4608 0 4762 -13 
L 4762 153 
C 4352 153 4326 178 4326 428 
L 4326 1933 
z
" transform="scale(0.015625)"/>
       <path id="CMR17-29" d="M 1683 1581 
C 1683 2040 1638 2817 1254 3639 
C 947 4303 422 4768 346 4768 
C 326 4768 301 4761 301 4729 
C 301 4717 307 4710 314 4697 
C 621 4378 1402 3568 1402 1584 
C 1402 -407 627 -1217 314 -1537 
C 307 -1549 301 -1556 301 -1568 
C 301 -1600 326 -1600 346 -1600 
C 416 -1600 960 -1128 1274 -426 
C 1594 281 1683 969 1683 1581 
z
" transform="scale(0.015625)"/>
      </defs>
      <use xlink:href="#CMR17-79" transform="scale(0.996264)"/>
      <use xlink:href="#CMR17-28" transform="translate(78.368882 0) scale(0.996264)"/>
      <use xlink:href="#CMR17-63" transform="translate(113.64965 0) scale(0.996264)"/>
      <use xlink:href="#CMR17-6d" transform="translate(154.13531 0) scale(0.996264)"/>
      <use xlink:href="#CMR17-29" transform="translate(231.0549 0) scale(0.996264)"/>
     </g>
    </g>
   </g>
   <g id="matplotlib.axis_2">
    <g id="ytick_1">
     <g id="line2d_4">
      <defs>
       <path id="m028f169efc" d="M 0 0 
L -3.5 0 
" style="stroke: #000000; stroke-width: 0.8"/>
      </defs>
      <g>
       <use xlink:href="#m028f169efc" x="71.807574" y="255.900709" style="stroke: #000000; stroke-width: 0.8"/>
      </g>
     </g>
     <g id="text_5">
      <!-- $\mathdefault{−50}$ -->
      <g transform="translate(34.701604 261.435504) scale(0.16 -0.16)">
       <use xlink:href="#CMSY10-0" transform="scale(0.996264)"/>
       <use xlink:href="#CMR17-35" transform="translate(77.487468 0) scale(0.996264)"/>
       <use xlink:href="#CMR17-30" transform="translate(123.177945 0) scale(0.996264)"/>
      </g>
     </g>
    </g>
    <g id="ytick_2">
     <g id="line2d_5">
      <g>
       <use xlink:href="#m028f169efc" x="71.807574" y="166.854666" style="stroke: #000000; stroke-width: 0.8"/>
      </g>
     </g>
     <g id="text_6">
      <!-- $\mathdefault{0}$ -->
      <g transform="translate(54.903587 172.38946) scale(0.16 -0.16)">
       <use xlink:href="#CMR17-30" transform="scale(0.996264)"/>
      </g>
     </g>
    </g>
    <g id="ytick_3">
     <g id="line2d_6">
      <g>
       <use xlink:href="#m028f169efc" x="71.807574" y="77.808622" style="stroke: #000000; stroke-width: 0.8"/>
      </g>
     </g>
     <g id="text_7">
      <!-- $\mathdefault{50}$ -->
      <g transform="translate(47.0996 83.343417) scale(0.16 -0.16)">
       <use xlink:href="#CMR17-35" transform="scale(0.996264)"/>
       <use xlink:href="#CMR17-30" transform="translate(45.690477 0) scale(0.996264)"/>
      </g>
     </g>
    </g>
    <g id="text_8">
     <!-- z (cm) -->
     <g transform="translate(24.23342 190.12221) rotate(-90) scale(0.18 -0.18)">
      <defs>
       <path id="CMR17-7a" d="M 2310 2605 
C 2362 2670 2362 2682 2362 2695 
C 2362 2752 2336 2752 2221 2752 
L 275 2752 
L 211 1760 
L 326 1760 
C 371 2381 442 2650 1178 2650 
L 1958 2650 
L 128 96 
C 128 0 134 0 269 0 
L 2291 0 
L 2381 1152 
L 2266 1152 
C 2214 442 2131 115 1350 115 
L 531 115 
L 2310 2605 
z
" transform="scale(0.015625)"/>
      </defs>
      <use xlink:href="#CMR17-7a" transform="scale(0.996264)"/>
      <use xlink:href="#CMR17-28" transform="translate(70.561627 0) scale(0.996264)"/>
      <use xlink:href="#CMR17-63" transform="translate(105.842395 0) scale(0.996264)"/>
      <use xlink:href="#CMR17-6d" transform="translate(146.328055 0) scale(0.996264)"/>
      <use xlink:href="#CMR17-29" transform="translate(223.247645 0) scale(0.996264)"/>
     </g>
    </g>
   </g>
   <g id="patch_16">
    <path d="M 71.807574 322.909332 
L 71.807574 10.8 
" style="fill: none; stroke: #000000; stroke-width: 0.8; stroke-linejoin: miter; stroke-linecap: square"/>
   </g>
   <g id="patch_17">
    <path d="M 419.76 322.909332 
L 419.76 10.8 
" style="fill: none; stroke: #000000; stroke-width: 0.8; stroke-linejoin: miter; stroke-linecap: square"/>
   </g>
   <g id="patch_18">
    <path d="M 71.807574 322.909332 
L 419.76 322.909332 
" style="fill: none; stroke: #000000; stroke-width: 0.8; stroke-linejoin: miter; stroke-linecap: square"/>
   </g>
   <g id="patch_19">
    <path d="M 71.807574 10.8 
L 419.76 10.8 
" style="fill: none; stroke: #000000; stroke-width: 0.8; stroke-linejoin: miter; stroke-linecap: square"/>
   </g>
  </g>
 </g>
 <defs>
  <clipPath id="p97d28d502d">
   <rect x="71.807574" y="10.8" width="347.952426" height="312.109332"/>
  </clipPath>
 </defs>
</svg>
